M48
; DRILL file {KiCad 6.0.0-rc2-1.20211220git160328a.fc35} date Mon 03 Jan 2022 09:58:07 GMT
; FORMAT={-:-/ absolute / metric / decimal}
; #@! TF.CreationDate,2022-01-03T09:58:07+00:00
; #@! TF.GenerationSoftware,Kicad,Pcbnew,6.0.0-rc2-1.20211220git160328a.fc35
; #@! TF.FileFunction,Plated,1,2,PTH
FMAT,2
METRIC
; #@! TA.AperFunction,Plated,PTH,ComponentDrill
T1C1.000
; #@! TA.AperFunction,Plated,PTH,ComponentDrill
T2C1.200
; #@! TA.AperFunction,Plated,PTH,ComponentDrill
T3C1.300
; #@! TA.AperFunction,Plated,PTH,ComponentDrill
T4C3.200
%
G90
G05
T1
X68.46Y-68.57
X68.46Y-71.11
X68.46Y-73.65
X68.46Y-76.19
X68.46Y-78.73
X68.46Y-81.27
X68.46Y-83.81
X68.46Y-86.35
X68.46Y-88.89
X68.46Y-91.43
X71.0Y-68.57
X71.0Y-71.11
X71.0Y-73.65
X71.0Y-76.19
X71.0Y-78.73
X71.0Y-81.27
X71.0Y-83.81
X71.0Y-86.35
X71.0Y-88.89
X71.0Y-91.43
T2
X243.9Y-43.25
X243.9Y-46.75
X243.9Y-57.25
X243.9Y-60.75
X243.9Y-71.25
X243.9Y-74.75
X243.9Y-85.25
X243.9Y-88.75
X243.9Y-99.25
X243.9Y-102.75
X243.9Y-113.25
X243.9Y-116.75
T3
X79.75Y-42.5
X79.75Y-47.5
X79.75Y-56.5
X79.75Y-61.5
X79.75Y-70.5
X79.75Y-75.5
X79.75Y-84.5
X79.75Y-89.5
X79.75Y-98.5
X79.75Y-103.5
X79.75Y-112.5
X79.75Y-117.5
X92.25Y-42.5
X92.25Y-47.5
X92.25Y-56.5
X92.25Y-61.5
X92.25Y-70.5
X92.25Y-75.5
X92.25Y-84.5
X92.25Y-89.5
X92.25Y-98.5
X92.25Y-103.5
X92.25Y-112.5
X92.25Y-117.5
X95.75Y-42.5
X95.75Y-47.5
X95.75Y-56.5
X95.75Y-61.5
X95.75Y-70.5
X95.75Y-75.5
X95.75Y-84.5
X95.75Y-89.5
X95.75Y-98.5
X95.75Y-103.5
X95.75Y-112.5
X95.75Y-117.5
X108.25Y-42.5
X108.25Y-47.5
X108.25Y-56.5
X108.25Y-61.5
X108.25Y-70.5
X108.25Y-75.5
X108.25Y-84.5
X108.25Y-89.5
X108.25Y-98.5
X108.25Y-103.5
X108.25Y-112.5
X108.25Y-117.5
X111.75Y-42.5
X111.75Y-47.5
X111.75Y-56.5
X111.75Y-61.5
X111.75Y-70.5
X111.75Y-75.5
X111.75Y-84.5
X111.75Y-89.5
X111.75Y-98.5
X111.75Y-103.5
X111.75Y-112.5
X111.75Y-117.5
X124.25Y-42.5
X124.25Y-47.5
X124.25Y-56.5
X124.25Y-61.5
X124.25Y-70.5
X124.25Y-75.5
X124.25Y-84.5
X124.25Y-89.5
X124.25Y-98.5
X124.25Y-103.5
X124.25Y-112.5
X124.25Y-117.5
X127.75Y-42.5
X127.75Y-47.5
X127.75Y-56.5
X127.75Y-61.5
X127.75Y-70.5
X127.75Y-75.5
X127.75Y-84.5
X127.75Y-89.5
X127.75Y-98.5
X127.75Y-103.5
X127.75Y-112.5
X127.75Y-117.5
X140.25Y-42.5
X140.25Y-47.5
X140.25Y-56.5
X140.25Y-61.5
X140.25Y-70.5
X140.25Y-75.5
X140.25Y-84.5
X140.25Y-89.5
X140.25Y-98.5
X140.25Y-103.5
X140.25Y-112.5
X140.25Y-117.5
X143.75Y-42.5
X143.75Y-47.5
X143.75Y-56.5
X143.75Y-61.5
X143.75Y-70.5
X143.75Y-75.5
X143.75Y-84.5
X143.75Y-89.5
X143.75Y-98.5
X143.75Y-103.5
X143.75Y-112.5
X143.75Y-117.5
X156.25Y-42.5
X156.25Y-47.5
X156.25Y-56.5
X156.25Y-61.5
X156.25Y-70.5
X156.25Y-75.5
X156.25Y-84.5
X156.25Y-89.5
X156.25Y-98.5
X156.25Y-103.5
X156.25Y-112.5
X156.25Y-117.5
X159.75Y-42.5
X159.75Y-47.5
X159.75Y-56.5
X159.75Y-61.5
X159.75Y-70.5
X159.75Y-75.5
X159.75Y-84.5
X159.75Y-89.5
X159.75Y-98.5
X159.75Y-103.5
X159.75Y-112.5
X159.75Y-117.5
X172.25Y-42.5
X172.25Y-47.5
X172.25Y-56.5
X172.25Y-61.5
X172.25Y-70.5
X172.25Y-75.5
X172.25Y-84.5
X172.25Y-89.5
X172.25Y-98.5
X172.25Y-103.5
X172.25Y-112.5
X172.25Y-117.5
X175.75Y-42.5
X175.75Y-47.5
X175.75Y-56.5
X175.75Y-61.5
X175.75Y-70.5
X175.75Y-75.5
X175.75Y-84.5
X175.75Y-89.5
X175.75Y-98.5
X175.75Y-103.5
X175.75Y-112.5
X175.75Y-117.5
X188.25Y-42.5
X188.25Y-47.5
X188.25Y-56.5
X188.25Y-61.5
X188.25Y-70.5
X188.25Y-75.5
X188.25Y-84.5
X188.25Y-89.5
X188.25Y-98.5
X188.25Y-103.5
X188.25Y-112.5
X188.25Y-117.5
X191.75Y-42.5
X191.75Y-47.5
X191.75Y-56.5
X191.75Y-61.5
X191.75Y-70.5
X191.75Y-75.5
X191.75Y-84.5
X191.75Y-89.5
X191.75Y-98.5
X191.75Y-103.5
X191.75Y-112.5
X191.75Y-117.5
X204.25Y-42.5
X204.25Y-47.5
X204.25Y-56.5
X204.25Y-61.5
X204.25Y-70.5
X204.25Y-75.5
X204.25Y-84.5
X204.25Y-89.5
X204.25Y-98.5
X204.25Y-103.5
X204.25Y-112.5
X204.25Y-117.5
X207.75Y-42.5
X207.75Y-47.5
X207.75Y-56.5
X207.75Y-61.5
X207.75Y-70.5
X207.75Y-75.5
X207.75Y-84.5
X207.75Y-89.5
X207.75Y-98.5
X207.75Y-103.5
X207.75Y-112.5
X207.75Y-117.5
X220.25Y-42.5
X220.25Y-47.5
X220.25Y-56.5
X220.25Y-61.5
X220.25Y-70.5
X220.25Y-75.5
X220.25Y-84.5
X220.25Y-89.5
X220.25Y-98.5
X220.25Y-103.5
X220.25Y-112.5
X220.25Y-117.5
X223.75Y-42.5
X223.75Y-47.5
X223.75Y-56.5
X223.75Y-61.5
X223.75Y-70.5
X223.75Y-75.5
X223.75Y-84.5
X223.75Y-89.5
X223.75Y-98.5
X223.75Y-103.5
X223.75Y-112.5
X223.75Y-117.5
X236.25Y-42.5
X236.25Y-47.5
X236.25Y-56.5
X236.25Y-61.5
X236.25Y-70.5
X236.25Y-75.5
X236.25Y-84.5
X236.25Y-89.5
X236.25Y-98.5
X236.25Y-103.5
X236.25Y-112.5
X236.25Y-117.5
T4
X67.0Y-34.0
X67.0Y-126.0
X158.0Y-34.0
X158.0Y-126.0
X249.0Y-34.0
X249.0Y-126.0
T0
M30
