%TF.GenerationSoftware,KiCad,Pcbnew,6.0.0-rc2-1.20211220git160328a.fc35*%
%TF.CreationDate,2022-01-02T14:26:23+00:00*%
%TF.ProjectId,Keypad_6x11,4b657970-6164-45f3-9678-31312e6b6963,rev?*%
%TF.SameCoordinates,Original*%
%TF.FileFunction,Copper,L2,Bot*%
%TF.FilePolarity,Positive*%
%FSLAX46Y46*%
G04 Gerber Fmt 4.6, Leading zero omitted, Abs format (unit mm)*
G04 Created by KiCad (PCBNEW 6.0.0-rc2-1.20211220git160328a.fc35) date 2022-01-02 14:26:23*
%MOMM*%
%LPD*%
G01*
G04 APERTURE LIST*
G04 Aperture macros list*
%AMRoundRect*
0 Rectangle with rounded corners*
0 $1 Rounding radius*
0 $2 $3 $4 $5 $6 $7 $8 $9 X,Y pos of 4 corners*
0 Add a 4 corners polygon primitive as box body*
4,1,4,$2,$3,$4,$5,$6,$7,$8,$9,$2,$3,0*
0 Add four circle primitives for the rounded corners*
1,1,$1+$1,$2,$3*
1,1,$1+$1,$4,$5*
1,1,$1+$1,$6,$7*
1,1,$1+$1,$8,$9*
0 Add four rect primitives between the rounded corners*
20,1,$1+$1,$2,$3,$4,$5,0*
20,1,$1+$1,$4,$5,$6,$7,0*
20,1,$1+$1,$6,$7,$8,$9,0*
20,1,$1+$1,$8,$9,$2,$3,0*%
G04 Aperture macros list end*
%TA.AperFunction,ComponentPad*%
%ADD10RoundRect,0.250000X0.600000X0.600000X-0.600000X0.600000X-0.600000X-0.600000X0.600000X-0.600000X0*%
%TD*%
%TA.AperFunction,ComponentPad*%
%ADD11C,1.700000*%
%TD*%
%TA.AperFunction,SMDPad,CuDef*%
%ADD12R,1.000000X1.000000*%
%TD*%
%TA.AperFunction,ComponentPad*%
%ADD13O,2.750000X1.850000*%
%TD*%
%TA.AperFunction,ComponentPad*%
%ADD14C,4.201160*%
%TD*%
%TA.AperFunction,ComponentPad*%
%ADD15R,2.400000X2.400000*%
%TD*%
%TA.AperFunction,ComponentPad*%
%ADD16C,2.400000*%
%TD*%
%TA.AperFunction,Conductor*%
%ADD17C,0.250000*%
%TD*%
%TA.AperFunction,Conductor*%
%ADD18C,0.500000*%
%TD*%
G04 APERTURE END LIST*
D10*
X71000000Y-68570000D03*
D11*
X68460000Y-68570000D03*
X71000000Y-71110000D03*
X68460000Y-71110000D03*
X71000000Y-73650000D03*
X68460000Y-73650000D03*
X71000000Y-76190000D03*
X68460000Y-76190000D03*
X71000000Y-78730000D03*
X68460000Y-78730000D03*
X71000000Y-81270000D03*
X68460000Y-81270000D03*
X71000000Y-83810000D03*
X68460000Y-83810000D03*
X71000000Y-86350000D03*
X68460000Y-86350000D03*
X71000000Y-88890000D03*
X68460000Y-88890000D03*
X71000000Y-91430000D03*
X68460000Y-91430000D03*
D12*
X119250000Y-87000000D03*
X116750000Y-87000000D03*
X183250000Y-45000000D03*
X180750000Y-45000000D03*
X103250000Y-73000000D03*
X100750000Y-73000000D03*
X87250000Y-101000000D03*
X84750000Y-101000000D03*
X245250000Y-52000000D03*
X242750000Y-52000000D03*
X215250000Y-101000000D03*
X212750000Y-101000000D03*
X135250000Y-73000000D03*
X132750000Y-73000000D03*
X151250000Y-87000000D03*
X148750000Y-87000000D03*
X135250000Y-87000000D03*
X132750000Y-87000000D03*
X215250000Y-87000000D03*
X212750000Y-87000000D03*
X87250000Y-115000000D03*
X84750000Y-115000000D03*
X135250000Y-115000000D03*
X132750000Y-115000000D03*
X135250000Y-45000000D03*
X132750000Y-45000000D03*
X167250000Y-115000000D03*
X164750000Y-115000000D03*
X167250000Y-59000000D03*
X164750000Y-59000000D03*
X87250000Y-59000000D03*
X84750000Y-59000000D03*
X135250000Y-59000000D03*
X132750000Y-59000000D03*
X245250000Y-94000000D03*
X242750000Y-94000000D03*
X215250000Y-73000000D03*
X212750000Y-73000000D03*
X103250000Y-115000000D03*
X100750000Y-115000000D03*
X199250000Y-45000000D03*
X196750000Y-45000000D03*
X215250000Y-45000000D03*
X212750000Y-45000000D03*
X231250000Y-115000000D03*
X228750000Y-115000000D03*
X103250000Y-101000000D03*
X100750000Y-101000000D03*
X215250000Y-59000000D03*
X212750000Y-59000000D03*
X183250000Y-87000000D03*
X180750000Y-87000000D03*
X245250000Y-80000000D03*
X242750000Y-80000000D03*
X103250000Y-59000000D03*
X100750000Y-59000000D03*
X199250000Y-115000000D03*
X196750000Y-115000000D03*
X199250000Y-101000000D03*
X196750000Y-101000000D03*
X215250000Y-115000000D03*
X212750000Y-115000000D03*
X167250000Y-87000000D03*
X164750000Y-87000000D03*
X199250000Y-59000000D03*
X196750000Y-59000000D03*
X245250000Y-122000000D03*
X242750000Y-122000000D03*
X199250000Y-73000000D03*
X196750000Y-73000000D03*
X167250000Y-45000000D03*
X164750000Y-45000000D03*
X151250000Y-115000000D03*
X148750000Y-115000000D03*
X231250000Y-59000000D03*
X228750000Y-59000000D03*
X87250000Y-87000000D03*
X84750000Y-87000000D03*
X151250000Y-101000000D03*
X148750000Y-101000000D03*
X151250000Y-45000000D03*
X148750000Y-45000000D03*
X119250000Y-115000000D03*
X116750000Y-115000000D03*
X167250000Y-73000000D03*
X164750000Y-73000000D03*
X87250000Y-45000000D03*
X84750000Y-45000000D03*
X231250000Y-73000000D03*
X228750000Y-73000000D03*
X167250000Y-101000000D03*
X164750000Y-101000000D03*
X199250000Y-87000000D03*
X196750000Y-87000000D03*
X231250000Y-101000000D03*
X228750000Y-101000000D03*
X119250000Y-59000000D03*
X116750000Y-59000000D03*
X231250000Y-45000000D03*
X228750000Y-45000000D03*
X103250000Y-45000000D03*
X100750000Y-45000000D03*
X231250000Y-87000000D03*
X228750000Y-87000000D03*
X119250000Y-101000000D03*
X116750000Y-101000000D03*
X135250000Y-101000000D03*
X132750000Y-101000000D03*
X245250000Y-66000000D03*
X242750000Y-66000000D03*
X87250000Y-73000000D03*
X84750000Y-73000000D03*
X151250000Y-59000000D03*
X148750000Y-59000000D03*
X183250000Y-115000000D03*
X180750000Y-115000000D03*
X119250000Y-45000000D03*
X116750000Y-45000000D03*
X245250000Y-108000000D03*
X242750000Y-108000000D03*
X183250000Y-59000000D03*
X180750000Y-59000000D03*
X183250000Y-73000000D03*
X180750000Y-73000000D03*
X103250000Y-87000000D03*
X100750000Y-87000000D03*
X151250000Y-73000000D03*
X148750000Y-73000000D03*
X183250000Y-101000000D03*
X180750000Y-101000000D03*
X119250000Y-73000000D03*
X116750000Y-73000000D03*
D13*
X156250000Y-70500000D03*
X143750000Y-70500000D03*
X143750000Y-75500000D03*
X156250000Y-75500000D03*
X188250000Y-56500000D03*
X175750000Y-56500000D03*
X188250000Y-61500000D03*
X175750000Y-61500000D03*
X207750000Y-84500000D03*
X220250000Y-84500000D03*
X207750000Y-89500000D03*
X220250000Y-89500000D03*
X95750000Y-42500000D03*
X108250000Y-42500000D03*
X108250000Y-47500000D03*
X95750000Y-47500000D03*
X191750000Y-98500000D03*
X204250000Y-98500000D03*
X204250000Y-103500000D03*
X191750000Y-103500000D03*
X111750000Y-98500000D03*
X124250000Y-98500000D03*
X124250000Y-103500000D03*
X111750000Y-103500000D03*
X159750000Y-84500000D03*
X172250000Y-84500000D03*
X159750000Y-89500000D03*
X172250000Y-89500000D03*
X95750000Y-70500000D03*
X108250000Y-70500000D03*
X108250000Y-75500000D03*
X95750000Y-75500000D03*
X95750000Y-98500000D03*
X108250000Y-98500000D03*
X108250000Y-103500000D03*
X95750000Y-103500000D03*
X127750000Y-56500000D03*
X140250000Y-56500000D03*
X127750000Y-61500000D03*
X140250000Y-61500000D03*
X188250000Y-98500000D03*
X175750000Y-98500000D03*
X175750000Y-103500000D03*
X188250000Y-103500000D03*
X143750000Y-98500000D03*
X156250000Y-98500000D03*
X143750000Y-103500000D03*
X156250000Y-103500000D03*
X172250000Y-112500000D03*
X159750000Y-112500000D03*
X159750000Y-117500000D03*
X172250000Y-117500000D03*
X172250000Y-42500000D03*
X159750000Y-42500000D03*
X172250000Y-47500000D03*
X159750000Y-47500000D03*
X92250000Y-56500000D03*
X79750000Y-56500000D03*
X79750000Y-61500000D03*
X92250000Y-61500000D03*
X223750000Y-42500000D03*
X236250000Y-42500000D03*
X223750000Y-47500000D03*
X236250000Y-47500000D03*
X124250000Y-42500000D03*
X111750000Y-42500000D03*
X111750000Y-47500000D03*
X124250000Y-47500000D03*
D14*
X67000000Y-34000000D03*
D13*
X236250000Y-112500000D03*
X223750000Y-112500000D03*
X223750000Y-117500000D03*
X236250000Y-117500000D03*
X140250000Y-42500000D03*
X127750000Y-42500000D03*
X127750000Y-47500000D03*
X140250000Y-47500000D03*
X79750000Y-98500000D03*
X92250000Y-98500000D03*
X79750000Y-103500000D03*
X92250000Y-103500000D03*
X156250000Y-84500000D03*
X143750000Y-84500000D03*
X156250000Y-89500000D03*
X143750000Y-89500000D03*
D14*
X249000000Y-126000000D03*
X158000000Y-126000000D03*
D13*
X236250000Y-56500000D03*
X223750000Y-56500000D03*
X236250000Y-61500000D03*
X223750000Y-61500000D03*
X191750000Y-70500000D03*
X204250000Y-70500000D03*
X191750000Y-75500000D03*
X204250000Y-75500000D03*
X79750000Y-112500000D03*
X92250000Y-112500000D03*
X92250000Y-117500000D03*
X79750000Y-117500000D03*
X191750000Y-112500000D03*
X204250000Y-112500000D03*
X191750000Y-117500000D03*
X204250000Y-117500000D03*
X108250000Y-84500000D03*
X95750000Y-84500000D03*
X108250000Y-89500000D03*
X95750000Y-89500000D03*
X191750000Y-42500000D03*
X204250000Y-42500000D03*
X191750000Y-47500000D03*
X204250000Y-47500000D03*
X79750000Y-84500000D03*
X92250000Y-84500000D03*
X92250000Y-89500000D03*
X79750000Y-89500000D03*
X111750000Y-70500000D03*
X124250000Y-70500000D03*
X111750000Y-75500000D03*
X124250000Y-75500000D03*
X207750000Y-98500000D03*
X220250000Y-98500000D03*
X207750000Y-103500000D03*
X220250000Y-103500000D03*
X188250000Y-42500000D03*
X175750000Y-42500000D03*
X188250000Y-47500000D03*
X175750000Y-47500000D03*
X188250000Y-70500000D03*
X175750000Y-70500000D03*
X188250000Y-75500000D03*
X175750000Y-75500000D03*
X220250000Y-112500000D03*
X207750000Y-112500000D03*
X207750000Y-117500000D03*
X220250000Y-117500000D03*
D14*
X67000000Y-126000000D03*
D13*
X124250000Y-112500000D03*
X111750000Y-112500000D03*
X111750000Y-117500000D03*
X124250000Y-117500000D03*
X204250000Y-56500000D03*
X191750000Y-56500000D03*
X204250000Y-61500000D03*
X191750000Y-61500000D03*
X156250000Y-56500000D03*
X143750000Y-56500000D03*
X143750000Y-61500000D03*
X156250000Y-61500000D03*
X207750000Y-70500000D03*
X220250000Y-70500000D03*
X207750000Y-75500000D03*
X220250000Y-75500000D03*
X79750000Y-42500000D03*
X92250000Y-42500000D03*
X79750000Y-47500000D03*
X92250000Y-47500000D03*
X140250000Y-112500000D03*
X127750000Y-112500000D03*
X140250000Y-117500000D03*
X127750000Y-117500000D03*
X124250000Y-84500000D03*
X111750000Y-84500000D03*
X111750000Y-89500000D03*
X124250000Y-89500000D03*
X223750000Y-70500000D03*
X236250000Y-70500000D03*
X236250000Y-75500000D03*
X223750000Y-75500000D03*
X172250000Y-56500000D03*
X159750000Y-56500000D03*
X172250000Y-61500000D03*
X159750000Y-61500000D03*
X79750000Y-70500000D03*
X92250000Y-70500000D03*
X79750000Y-75500000D03*
X92250000Y-75500000D03*
X143750000Y-42500000D03*
X156250000Y-42500000D03*
X143750000Y-47500000D03*
X156250000Y-47500000D03*
X175750000Y-84500000D03*
X188250000Y-84500000D03*
X188250000Y-89500000D03*
X175750000Y-89500000D03*
X140250000Y-70500000D03*
X127750000Y-70500000D03*
X127750000Y-75500000D03*
X140250000Y-75500000D03*
D14*
X158000000Y-34000000D03*
D13*
X172250000Y-98500000D03*
X159750000Y-98500000D03*
X159750000Y-103500000D03*
X172250000Y-103500000D03*
X140250000Y-98500000D03*
X127750000Y-98500000D03*
X140250000Y-103500000D03*
X127750000Y-103500000D03*
D14*
X249000000Y-34000000D03*
D13*
X95750000Y-112500000D03*
X108250000Y-112500000D03*
X108250000Y-117500000D03*
X95750000Y-117500000D03*
X156250000Y-112500000D03*
X143750000Y-112500000D03*
X143750000Y-117500000D03*
X156250000Y-117500000D03*
X95750000Y-56500000D03*
X108250000Y-56500000D03*
X95750000Y-61500000D03*
X108250000Y-61500000D03*
X124250000Y-56500000D03*
X111750000Y-56500000D03*
X111750000Y-61500000D03*
X124250000Y-61500000D03*
X220250000Y-42500000D03*
X207750000Y-42500000D03*
X207750000Y-47500000D03*
X220250000Y-47500000D03*
X159750000Y-70500000D03*
X172250000Y-70500000D03*
X159750000Y-75500000D03*
X172250000Y-75500000D03*
X191750000Y-84500000D03*
X204250000Y-84500000D03*
X191750000Y-89500000D03*
X204250000Y-89500000D03*
X140250000Y-84500000D03*
X127750000Y-84500000D03*
X140250000Y-89500000D03*
X127750000Y-89500000D03*
X175750000Y-112500000D03*
X188250000Y-112500000D03*
X188250000Y-117500000D03*
X175750000Y-117500000D03*
X207750000Y-56500000D03*
X220250000Y-56500000D03*
X207750000Y-61500000D03*
X220250000Y-61500000D03*
X223750000Y-98500000D03*
X236250000Y-98500000D03*
X223750000Y-103500000D03*
X236250000Y-103500000D03*
X236250000Y-84500000D03*
X223750000Y-84500000D03*
X223750000Y-89500000D03*
X236250000Y-89500000D03*
D15*
X243900000Y-43250000D03*
D16*
X243900000Y-46750000D03*
D15*
X243900000Y-57250000D03*
D16*
X243900000Y-60750000D03*
D15*
X243900000Y-113250000D03*
D16*
X243900000Y-116750000D03*
D15*
X243900000Y-99250000D03*
D16*
X243900000Y-102750000D03*
D15*
X243900000Y-71250000D03*
D16*
X243900000Y-74750000D03*
D15*
X243900000Y-85250000D03*
D16*
X243900000Y-88750000D03*
D17*
X76500000Y-97500000D02*
X76500000Y-100500000D01*
X71000000Y-78730000D02*
X72624031Y-80354031D01*
X72624031Y-80354031D02*
X72624031Y-81627595D01*
X72624031Y-81627595D02*
X74547600Y-83551165D01*
X74547600Y-83551165D02*
X74547600Y-86058294D01*
X74547600Y-86058294D02*
X76220680Y-87731376D01*
X76220680Y-87731376D02*
X76220680Y-97220680D01*
X76220680Y-97220680D02*
X76500000Y-97500000D01*
X68460000Y-78730000D02*
X69730000Y-80000000D01*
X69730000Y-80000000D02*
X71391010Y-80000000D01*
X72174511Y-80783501D02*
X72174511Y-81813793D01*
X71391010Y-80000000D02*
X72174511Y-80783501D01*
X72174511Y-81813793D02*
X74098080Y-83737362D01*
X74098080Y-83737362D02*
X74098080Y-86244491D01*
X74098080Y-86244491D02*
X75771160Y-87917573D01*
X75771160Y-87917573D02*
X75771160Y-93950299D01*
X75771160Y-93950299D02*
X75500000Y-94221459D01*
X75500000Y-94221459D02*
X75500000Y-100500000D01*
X74500000Y-100500000D02*
X74500000Y-94585744D01*
X74500000Y-94585744D02*
X75321640Y-93764102D01*
X75321640Y-88103770D02*
X73648560Y-86430689D01*
X75321640Y-93764102D02*
X75321640Y-88103770D01*
X73648560Y-86430689D02*
X73648560Y-83923560D01*
X73648560Y-83923560D02*
X71000000Y-81275000D01*
X71000000Y-81275000D02*
X71000000Y-81270000D01*
X73500000Y-100500000D02*
X73500000Y-94950026D01*
X74872120Y-88289967D02*
X73199040Y-86616887D01*
X73500000Y-94950026D02*
X74872120Y-93577905D01*
X69740000Y-82550000D02*
X68460000Y-81270000D01*
X74872120Y-93577905D02*
X74872120Y-88289967D01*
X73199040Y-86616887D02*
X73199040Y-84274040D01*
X73199040Y-84274040D02*
X71475000Y-82550000D01*
X71475000Y-82550000D02*
X69740000Y-82550000D01*
X72500000Y-100500000D02*
X72500000Y-95314308D01*
X72500000Y-95314308D02*
X74422600Y-93391708D01*
X74422600Y-93391708D02*
X74422600Y-88476166D01*
X74422600Y-88476166D02*
X72749520Y-86803084D01*
X71000000Y-83825000D02*
X71000000Y-83810000D01*
X72749520Y-86803084D02*
X72749520Y-85574520D01*
X72749520Y-85574520D02*
X71000000Y-83825000D01*
X68460000Y-83810000D02*
X69750000Y-85100000D01*
X69750000Y-85100000D02*
X71525000Y-85100000D01*
X71525000Y-85100000D02*
X72300000Y-85875000D01*
X72300000Y-85875000D02*
X72300000Y-86989282D01*
X72300000Y-86989282D02*
X73973080Y-88662363D01*
X73973080Y-88662363D02*
X73973080Y-93205510D01*
X73973080Y-93205510D02*
X71500000Y-95678590D01*
X71500000Y-95678590D02*
X71500000Y-100500000D01*
X71000000Y-86350000D02*
X71025000Y-86350000D01*
X71025000Y-86350000D02*
X73523560Y-88848560D01*
X73523560Y-88848560D02*
X73523560Y-93019312D01*
X73523560Y-93019312D02*
X70500000Y-96042872D01*
X70500000Y-96042872D02*
X70500000Y-100500000D01*
X68460000Y-86350000D02*
X69735000Y-87625000D01*
X73074040Y-92833114D02*
X69500000Y-96407154D01*
X69735000Y-87625000D02*
X71525000Y-87625000D01*
X71525000Y-87625000D02*
X73074040Y-89174040D01*
X73074040Y-89174040D02*
X73074040Y-92833114D01*
X69500000Y-96407154D02*
X69500000Y-100500000D01*
X68500000Y-100500000D02*
X68500000Y-96771436D01*
X68500000Y-96771436D02*
X72624520Y-92646916D01*
X72624520Y-92646916D02*
X72624520Y-90524521D01*
X72624520Y-90524521D02*
X71000000Y-88900000D01*
X71000000Y-88900000D02*
X71000000Y-88890000D01*
X67500000Y-100500000D02*
X67500000Y-97135718D01*
X67500000Y-97135718D02*
X72175000Y-92460718D01*
X71639282Y-90175000D02*
X69745000Y-90175000D01*
X69745000Y-90175000D02*
X68460000Y-88890000D01*
X72175000Y-92460718D02*
X72175000Y-90710718D01*
X72175000Y-90710718D02*
X71639282Y-90175000D01*
X71000000Y-91430000D02*
X71000000Y-93000000D01*
X71000000Y-93000000D02*
X66500000Y-97500000D01*
X66500000Y-97500000D02*
X66500000Y-100500000D01*
D18*
X245250000Y-122000000D02*
X245250000Y-123050000D01*
X245250000Y-123050000D02*
X244800000Y-123500000D01*
X244800000Y-123500000D02*
X241000000Y-123500000D01*
X241000000Y-123500000D02*
X239947600Y-122447600D01*
X239947600Y-122447600D02*
X154052400Y-122447600D01*
X154052400Y-122447600D02*
X150500000Y-126000000D01*
X150500000Y-126000000D02*
X75053650Y-126000000D01*
X75053650Y-126000000D02*
X66500000Y-117446350D01*
X66500000Y-117446350D02*
X66500000Y-100500000D01*
X199250000Y-115000000D02*
X199250000Y-116000000D01*
X194900960Y-120349040D02*
X153150960Y-120349040D01*
X149600960Y-123899040D02*
X75920500Y-123899040D01*
X199250000Y-116000000D02*
X194900960Y-120349040D01*
X153150960Y-120349040D02*
X149600960Y-123899040D01*
X75920500Y-123899040D02*
X69500000Y-117478540D01*
X69500000Y-117478540D02*
X69500000Y-100500000D01*
X231250000Y-115000000D02*
X224501920Y-121748080D01*
X224501920Y-121748080D02*
X153751920Y-121748080D01*
X153751920Y-121748080D02*
X150201920Y-125298080D01*
X150201920Y-125298080D02*
X75341000Y-125298080D01*
X75341000Y-125298080D02*
X67500000Y-117457080D01*
X67500000Y-117457080D02*
X67500000Y-100500000D01*
X215250000Y-115000000D02*
X215250000Y-116000000D01*
X215250000Y-116000000D02*
X210201440Y-121048560D01*
X210201440Y-121048560D02*
X153440710Y-121048560D01*
X149890710Y-124598560D02*
X75630750Y-124598560D01*
X153440710Y-121048560D02*
X149890710Y-124598560D01*
X75630750Y-124598560D02*
X68500000Y-117467810D01*
X68500000Y-117467810D02*
X68500000Y-100500000D01*
X70500000Y-100500000D02*
X70500000Y-117489270D01*
X70500000Y-117489270D02*
X76210250Y-123199520D01*
X76210250Y-123199520D02*
X149289751Y-123199519D01*
X149289751Y-123199519D02*
X152839750Y-119649520D01*
X152839750Y-119649520D02*
X178600480Y-119649520D01*
X178600480Y-119649520D02*
X183250000Y-115000000D01*
X71500000Y-100500000D02*
X71500000Y-117500000D01*
X71500000Y-117500000D02*
X76500000Y-122500000D01*
X76500000Y-122500000D02*
X149000000Y-122500000D01*
X152550000Y-118950000D02*
X163300000Y-118950000D01*
X149000000Y-122500000D02*
X152550000Y-118950000D01*
X163300000Y-118950000D02*
X167250000Y-115000000D01*
X151250000Y-115000000D02*
X144451920Y-121798080D01*
X144451920Y-121798080D02*
X76798080Y-121798080D01*
X76798080Y-121798080D02*
X72500000Y-117500000D01*
X72500000Y-117500000D02*
X72500000Y-100500000D01*
X73500000Y-100500000D02*
X73500000Y-117500000D01*
X73500000Y-117500000D02*
X77098560Y-121098560D01*
X77098560Y-121098560D02*
X129151440Y-121098560D01*
X129151440Y-121098560D02*
X135250000Y-115000000D01*
X119250000Y-115000000D02*
X113850960Y-120399040D01*
X77399040Y-120399040D02*
X74500000Y-117500000D01*
X74500000Y-117500000D02*
X74500000Y-100500000D01*
X113850960Y-120399040D02*
X77399040Y-120399040D01*
X75500000Y-100500000D02*
X75500000Y-117500000D01*
X75500000Y-117500000D02*
X77699520Y-119699520D01*
X77699520Y-119699520D02*
X98550480Y-119699520D01*
X98550480Y-119699520D02*
X103250000Y-115000000D01*
X87250000Y-115000000D02*
X83250000Y-119000000D01*
X83250000Y-119000000D02*
X78000000Y-119000000D01*
X78000000Y-119000000D02*
X76500000Y-117500000D01*
X76500000Y-117500000D02*
X76500000Y-100500000D01*
X87250000Y-59000000D02*
X87250000Y-73000000D01*
X87250000Y-87000000D02*
X87250000Y-101000000D01*
X87250000Y-101000000D02*
X87250000Y-115000000D01*
X87250000Y-45000000D02*
X87250000Y-59000000D01*
X87250000Y-73000000D02*
X87250000Y-87000000D01*
X84750000Y-45000000D02*
X82250000Y-45000000D01*
X82250000Y-45000000D02*
X79750000Y-47500000D01*
X103250000Y-87000000D02*
X103250000Y-73000000D01*
X103250000Y-101000000D02*
X103250000Y-87000000D01*
X103250000Y-45000000D02*
X103250000Y-59000000D01*
X103250000Y-115000000D02*
X103250000Y-101000000D01*
X103250000Y-73000000D02*
X103250000Y-59000000D01*
X98250000Y-45000000D02*
X95750000Y-47500000D01*
X100750000Y-45000000D02*
X98250000Y-45000000D01*
X119250000Y-73000000D02*
X119250000Y-87000000D01*
X119250000Y-45000000D02*
X119250000Y-59000000D01*
X119250000Y-73000000D02*
X119250000Y-59000000D01*
X119250000Y-87000000D02*
X119250000Y-101000000D01*
X119250000Y-101000000D02*
X119250000Y-115000000D01*
X114250000Y-45000000D02*
X111750000Y-47500000D01*
X116750000Y-45000000D02*
X114250000Y-45000000D01*
X135250000Y-73000000D02*
X135250000Y-87000000D01*
X135250000Y-87000000D02*
X135250000Y-101000000D01*
X135250000Y-59000000D02*
X135250000Y-45000000D01*
X135250000Y-73000000D02*
X135250000Y-59000000D01*
X135250000Y-101000000D02*
X135250000Y-115000000D01*
X130250000Y-45000000D02*
X127750000Y-47500000D01*
X132750000Y-45000000D02*
X130250000Y-45000000D01*
X151250000Y-87000000D02*
X151250000Y-101000000D01*
X151250000Y-73000000D02*
X151250000Y-87000000D01*
X151250000Y-73000000D02*
X151250000Y-59000000D01*
X151250000Y-101000000D02*
X151250000Y-115000000D01*
X151250000Y-59000000D02*
X151250000Y-45000000D01*
X146250000Y-45000000D02*
X143750000Y-47500000D01*
X148750000Y-45000000D02*
X146250000Y-45000000D01*
X167250000Y-101000000D02*
X167250000Y-115000000D01*
X167250000Y-59000000D02*
X167250000Y-45000000D01*
X167250000Y-73000000D02*
X167250000Y-59000000D01*
X167250000Y-73000000D02*
X167250000Y-87000000D01*
X167250000Y-87000000D02*
X167250000Y-101000000D01*
X162250000Y-45000000D02*
X159750000Y-47500000D01*
X164750000Y-45000000D02*
X162250000Y-45000000D01*
X183250000Y-87000000D02*
X183250000Y-73000000D01*
X183250000Y-45000000D02*
X183250000Y-59000000D01*
X183250000Y-101000000D02*
X183250000Y-115000000D01*
X183250000Y-101000000D02*
X183250000Y-87000000D01*
X183250000Y-73000000D02*
X183250000Y-59000000D01*
X178250000Y-45000000D02*
X175750000Y-47500000D01*
X180750000Y-45000000D02*
X178250000Y-45000000D01*
X199250000Y-45000000D02*
X199250000Y-59000000D01*
X199250000Y-101000000D02*
X199250000Y-87000000D01*
X199250000Y-59000000D02*
X199250000Y-73000000D01*
X199250000Y-73000000D02*
X199250000Y-87000000D01*
X199250000Y-101000000D02*
X199250000Y-115000000D01*
X196750000Y-45000000D02*
X194250000Y-45000000D01*
X194250000Y-45000000D02*
X191750000Y-47500000D01*
X215250000Y-87000000D02*
X215250000Y-101000000D01*
X215250000Y-59000000D02*
X215250000Y-73000000D01*
X215250000Y-73000000D02*
X215250000Y-87000000D01*
X215250000Y-101000000D02*
X215250000Y-115000000D01*
X215250000Y-45000000D02*
X215250000Y-59000000D01*
X212750000Y-45000000D02*
X210250000Y-45000000D01*
X210250000Y-45000000D02*
X207750000Y-47500000D01*
X231250000Y-45000000D02*
X231250000Y-59000000D01*
X231250000Y-87000000D02*
X231250000Y-101000000D01*
X231250000Y-59000000D02*
X231250000Y-73000000D01*
X231250000Y-73000000D02*
X231250000Y-87000000D01*
X231250000Y-101000000D02*
X231250000Y-115000000D01*
X228750000Y-45000000D02*
X226250000Y-45000000D01*
X226250000Y-45000000D02*
X223750000Y-47500000D01*
X245250000Y-81250000D02*
X247000000Y-83000000D01*
X245250000Y-78750000D02*
X245250000Y-80000000D01*
X245250000Y-94000000D02*
X245250000Y-95250000D01*
X247000000Y-63000000D02*
X245250000Y-64750000D01*
X245250000Y-109250000D02*
X247000000Y-111000000D01*
X245250000Y-67250000D02*
X247000000Y-69000000D01*
X245250000Y-52000000D02*
X245250000Y-53250000D01*
X245250000Y-64750000D02*
X245250000Y-66000000D01*
X245250000Y-92750000D02*
X245250000Y-94000000D01*
X247000000Y-97000000D02*
X247000000Y-105000000D01*
X245250000Y-106750000D02*
X245250000Y-108000000D01*
X245250000Y-108000000D02*
X245250000Y-109250000D01*
X245250000Y-95250000D02*
X247000000Y-97000000D01*
X245250000Y-66000000D02*
X245250000Y-67250000D01*
X247000000Y-111000000D02*
X247000000Y-119000000D01*
X245250000Y-120750000D02*
X245250000Y-122000000D01*
X247000000Y-69000000D02*
X247000000Y-77000000D01*
X247000000Y-91000000D02*
X245250000Y-92750000D01*
X247000000Y-55000000D02*
X247000000Y-63000000D01*
X247000000Y-83000000D02*
X247000000Y-91000000D01*
X247000000Y-77000000D02*
X245250000Y-78750000D01*
X247000000Y-119000000D02*
X245250000Y-120750000D01*
X247000000Y-105000000D02*
X245250000Y-106750000D01*
X245250000Y-53250000D02*
X247000000Y-55000000D01*
X245250000Y-80000000D02*
X245250000Y-81250000D01*
X243900000Y-46750000D02*
X243900000Y-49100000D01*
X243900000Y-49100000D02*
X242750000Y-50250000D01*
X242750000Y-50250000D02*
X242750000Y-52000000D01*
X84750000Y-59000000D02*
X82250000Y-59000000D01*
X82250000Y-59000000D02*
X79750000Y-61500000D01*
X98250000Y-59000000D02*
X95750000Y-61500000D01*
X100750000Y-59000000D02*
X98250000Y-59000000D01*
X114250000Y-59000000D02*
X111750000Y-61500000D01*
X116750000Y-59000000D02*
X114250000Y-59000000D01*
X130250000Y-59000000D02*
X127750000Y-61500000D01*
X132750000Y-59000000D02*
X130250000Y-59000000D01*
X148750000Y-59000000D02*
X146250000Y-59000000D01*
X146250000Y-59000000D02*
X143750000Y-61500000D01*
X164750000Y-59000000D02*
X162250000Y-59000000D01*
X162250000Y-59000000D02*
X159750000Y-61500000D01*
X178250000Y-59000000D02*
X175750000Y-61500000D01*
X180750000Y-59000000D02*
X178250000Y-59000000D01*
X194250000Y-59000000D02*
X191750000Y-61500000D01*
X196750000Y-59000000D02*
X194250000Y-59000000D01*
X212750000Y-59000000D02*
X210250000Y-59000000D01*
X210250000Y-59000000D02*
X207750000Y-61500000D01*
X226250000Y-59000000D02*
X223750000Y-61500000D01*
X228750000Y-59000000D02*
X226250000Y-59000000D01*
X243900000Y-63100000D02*
X242750000Y-64250000D01*
X243900000Y-60750000D02*
X243900000Y-63100000D01*
X242750000Y-64250000D02*
X242750000Y-66000000D01*
X84750000Y-73000000D02*
X82250000Y-73000000D01*
X82250000Y-73000000D02*
X79750000Y-75500000D01*
X98250000Y-73000000D02*
X95750000Y-75500000D01*
X100750000Y-73000000D02*
X98250000Y-73000000D01*
X114250000Y-73000000D02*
X111750000Y-75500000D01*
X116750000Y-73000000D02*
X114250000Y-73000000D01*
X130250000Y-73000000D02*
X127750000Y-75500000D01*
X132750000Y-73000000D02*
X130250000Y-73000000D01*
X146250000Y-73000000D02*
X143750000Y-75500000D01*
X148750000Y-73000000D02*
X146250000Y-73000000D01*
X164750000Y-73000000D02*
X162250000Y-73000000D01*
X162250000Y-73000000D02*
X159750000Y-75500000D01*
X178250000Y-73000000D02*
X175750000Y-75500000D01*
X180750000Y-73000000D02*
X178250000Y-73000000D01*
X196750000Y-73000000D02*
X194250000Y-73000000D01*
X194250000Y-73000000D02*
X191750000Y-75500000D01*
X212750000Y-73000000D02*
X210250000Y-73000000D01*
X210250000Y-73000000D02*
X207750000Y-75500000D01*
X228750000Y-73000000D02*
X226250000Y-73000000D01*
X226250000Y-73000000D02*
X223750000Y-75500000D01*
X243900000Y-74750000D02*
X243900000Y-77100000D01*
X243900000Y-77100000D02*
X242750000Y-78250000D01*
X242750000Y-78250000D02*
X242750000Y-80000000D01*
X84750000Y-87000000D02*
X82250000Y-87000000D01*
X82250000Y-87000000D02*
X79750000Y-89500000D01*
X100750000Y-87000000D02*
X98250000Y-87000000D01*
X98250000Y-87000000D02*
X95750000Y-89500000D01*
X114250000Y-87000000D02*
X111750000Y-89500000D01*
X116750000Y-87000000D02*
X114250000Y-87000000D01*
X132750000Y-87000000D02*
X130250000Y-87000000D01*
X130250000Y-87000000D02*
X127750000Y-89500000D01*
X146250000Y-87000000D02*
X143750000Y-89500000D01*
X148750000Y-87000000D02*
X146250000Y-87000000D01*
X164750000Y-87000000D02*
X162250000Y-87000000D01*
X162250000Y-87000000D02*
X159750000Y-89500000D01*
X180750000Y-87000000D02*
X178250000Y-87000000D01*
X178250000Y-87000000D02*
X175750000Y-89500000D01*
X194250000Y-87000000D02*
X191750000Y-89500000D01*
X196750000Y-87000000D02*
X194250000Y-87000000D01*
X210250000Y-87000000D02*
X207750000Y-89500000D01*
X212750000Y-87000000D02*
X210250000Y-87000000D01*
X226250000Y-87000000D02*
X223750000Y-89500000D01*
X228750000Y-87000000D02*
X226250000Y-87000000D01*
X242750000Y-92250000D02*
X242750000Y-94000000D01*
X243900000Y-88750000D02*
X243900000Y-91100000D01*
X243900000Y-91100000D02*
X242750000Y-92250000D01*
X84750000Y-101000000D02*
X82250000Y-101000000D01*
X82250000Y-101000000D02*
X79750000Y-103500000D01*
X100750000Y-101000000D02*
X98250000Y-101000000D01*
X98250000Y-101000000D02*
X95750000Y-103500000D01*
X114250000Y-101000000D02*
X111750000Y-103500000D01*
X116750000Y-101000000D02*
X114250000Y-101000000D01*
X130250000Y-101000000D02*
X127750000Y-103500000D01*
X132750000Y-101000000D02*
X130250000Y-101000000D01*
X148750000Y-101000000D02*
X146250000Y-101000000D01*
X146250000Y-101000000D02*
X143750000Y-103500000D01*
X164750000Y-101000000D02*
X162250000Y-101000000D01*
X162250000Y-101000000D02*
X159750000Y-103500000D01*
X180750000Y-101000000D02*
X178250000Y-101000000D01*
X178250000Y-101000000D02*
X175750000Y-103500000D01*
X194250000Y-101000000D02*
X191750000Y-103500000D01*
X196750000Y-101000000D02*
X194250000Y-101000000D01*
X212750000Y-101000000D02*
X210250000Y-101000000D01*
X210250000Y-101000000D02*
X207750000Y-103500000D01*
X226250000Y-101000000D02*
X223750000Y-103500000D01*
X228750000Y-101000000D02*
X226250000Y-101000000D01*
X243900000Y-105100000D02*
X242750000Y-106250000D01*
X243900000Y-102750000D02*
X243900000Y-105100000D01*
X242750000Y-106250000D02*
X242750000Y-108000000D01*
X82250000Y-115000000D02*
X79750000Y-117500000D01*
X84750000Y-115000000D02*
X82250000Y-115000000D01*
X100750000Y-115000000D02*
X98250000Y-115000000D01*
X98250000Y-115000000D02*
X95750000Y-117500000D01*
X116750000Y-115000000D02*
X114250000Y-115000000D01*
X114250000Y-115000000D02*
X111750000Y-117500000D01*
X132750000Y-115000000D02*
X130250000Y-115000000D01*
X130250000Y-115000000D02*
X127750000Y-117500000D01*
X148750000Y-115000000D02*
X146250000Y-115000000D01*
X146250000Y-115000000D02*
X143750000Y-117500000D01*
X162250000Y-115000000D02*
X159750000Y-117500000D01*
X164750000Y-115000000D02*
X162250000Y-115000000D01*
X178250000Y-115000000D02*
X175750000Y-117500000D01*
X180750000Y-115000000D02*
X178250000Y-115000000D01*
X196750000Y-115000000D02*
X194250000Y-115000000D01*
X194250000Y-115000000D02*
X191750000Y-117500000D01*
X210250000Y-115000000D02*
X207750000Y-117500000D01*
X212750000Y-115000000D02*
X210250000Y-115000000D01*
X226250000Y-115000000D02*
X223750000Y-117500000D01*
X228750000Y-115000000D02*
X226250000Y-115000000D01*
X242750000Y-120250000D02*
X242750000Y-122000000D01*
X243900000Y-116750000D02*
X243900000Y-119100000D01*
X243900000Y-119100000D02*
X242750000Y-120250000D01*
M02*
