%TF.GenerationSoftware,KiCad,Pcbnew,6.0.0-rc2-1.20211220git160328a.fc35*%
%TF.CreationDate,2022-01-02T14:26:23+00:00*%
%TF.ProjectId,Keypad_6x11,4b657970-6164-45f3-9678-31312e6b6963,rev?*%
%TF.SameCoordinates,Original*%
%TF.FileFunction,Paste,Bot*%
%TF.FilePolarity,Positive*%
%FSLAX46Y46*%
G04 Gerber Fmt 4.6, Leading zero omitted, Abs format (unit mm)*
G04 Created by KiCad (PCBNEW 6.0.0-rc2-1.20211220git160328a.fc35) date 2022-01-02 14:26:23*
%MOMM*%
%LPD*%
G01*
G04 APERTURE LIST*
%ADD10R,1.000000X1.000000*%
G04 APERTURE END LIST*
D10*
X119250000Y-87000000D03*
X116750000Y-87000000D03*
X183250000Y-45000000D03*
X180750000Y-45000000D03*
X103250000Y-73000000D03*
X100750000Y-73000000D03*
X87250000Y-101000000D03*
X84750000Y-101000000D03*
X245250000Y-52000000D03*
X242750000Y-52000000D03*
X215250000Y-101000000D03*
X212750000Y-101000000D03*
X135250000Y-73000000D03*
X132750000Y-73000000D03*
X151250000Y-87000000D03*
X148750000Y-87000000D03*
X135250000Y-87000000D03*
X132750000Y-87000000D03*
X215250000Y-87000000D03*
X212750000Y-87000000D03*
X87250000Y-115000000D03*
X84750000Y-115000000D03*
X135250000Y-115000000D03*
X132750000Y-115000000D03*
X135250000Y-45000000D03*
X132750000Y-45000000D03*
X167250000Y-115000000D03*
X164750000Y-115000000D03*
X167250000Y-59000000D03*
X164750000Y-59000000D03*
X87250000Y-59000000D03*
X84750000Y-59000000D03*
X135250000Y-59000000D03*
X132750000Y-59000000D03*
X245250000Y-94000000D03*
X242750000Y-94000000D03*
X215250000Y-73000000D03*
X212750000Y-73000000D03*
X103250000Y-115000000D03*
X100750000Y-115000000D03*
X199250000Y-45000000D03*
X196750000Y-45000000D03*
X215250000Y-45000000D03*
X212750000Y-45000000D03*
X231250000Y-115000000D03*
X228750000Y-115000000D03*
X103250000Y-101000000D03*
X100750000Y-101000000D03*
X215250000Y-59000000D03*
X212750000Y-59000000D03*
X183250000Y-87000000D03*
X180750000Y-87000000D03*
X245250000Y-80000000D03*
X242750000Y-80000000D03*
X103250000Y-59000000D03*
X100750000Y-59000000D03*
X199250000Y-115000000D03*
X196750000Y-115000000D03*
X199250000Y-101000000D03*
X196750000Y-101000000D03*
X215250000Y-115000000D03*
X212750000Y-115000000D03*
X167250000Y-87000000D03*
X164750000Y-87000000D03*
X199250000Y-59000000D03*
X196750000Y-59000000D03*
X245250000Y-122000000D03*
X242750000Y-122000000D03*
X199250000Y-73000000D03*
X196750000Y-73000000D03*
X167250000Y-45000000D03*
X164750000Y-45000000D03*
X151250000Y-115000000D03*
X148750000Y-115000000D03*
X231250000Y-59000000D03*
X228750000Y-59000000D03*
X87250000Y-87000000D03*
X84750000Y-87000000D03*
X151250000Y-101000000D03*
X148750000Y-101000000D03*
X151250000Y-45000000D03*
X148750000Y-45000000D03*
X119250000Y-115000000D03*
X116750000Y-115000000D03*
X167250000Y-73000000D03*
X164750000Y-73000000D03*
X87250000Y-45000000D03*
X84750000Y-45000000D03*
X231250000Y-73000000D03*
X228750000Y-73000000D03*
X167250000Y-101000000D03*
X164750000Y-101000000D03*
X199250000Y-87000000D03*
X196750000Y-87000000D03*
X231250000Y-101000000D03*
X228750000Y-101000000D03*
X119250000Y-59000000D03*
X116750000Y-59000000D03*
X231250000Y-45000000D03*
X228750000Y-45000000D03*
X103250000Y-45000000D03*
X100750000Y-45000000D03*
X231250000Y-87000000D03*
X228750000Y-87000000D03*
X119250000Y-101000000D03*
X116750000Y-101000000D03*
X135250000Y-101000000D03*
X132750000Y-101000000D03*
X245250000Y-66000000D03*
X242750000Y-66000000D03*
X87250000Y-73000000D03*
X84750000Y-73000000D03*
X151250000Y-59000000D03*
X148750000Y-59000000D03*
X183250000Y-115000000D03*
X180750000Y-115000000D03*
X119250000Y-45000000D03*
X116750000Y-45000000D03*
X245250000Y-108000000D03*
X242750000Y-108000000D03*
X183250000Y-59000000D03*
X180750000Y-59000000D03*
X183250000Y-73000000D03*
X180750000Y-73000000D03*
X103250000Y-87000000D03*
X100750000Y-87000000D03*
X151250000Y-73000000D03*
X148750000Y-73000000D03*
X183250000Y-101000000D03*
X180750000Y-101000000D03*
X119250000Y-73000000D03*
X116750000Y-73000000D03*
M02*
