%FSLAX45Y45*%
G04 Gerber Fmt 4.5, Leading zero omitted, Abs format (unit mm)*
G04 Created by KiCad (PCBNEW 6.0.0-rc2-1.20211220git160328a.fc35) date 2022-01-03 09:58:08*
%MOMM*%
%LPD*%
G01*
G04 APERTURE LIST*
%TA.AperFunction,Profile*%
%ADD10C,0.100000*%
%TD*%
%ADD11C,0.200000*%
G04 APERTURE END LIST*
D10*
X24900000Y-13000000D02*
X6700000Y-13000000D01*
X24900000Y-13000000D02*
G75*
G03*
X25300000Y-12600000I0J400000D01*
G01*
X25300000Y-3400000D02*
G75*
G03*
X24900000Y-3000000I-400000J0D01*
G01*
X6300000Y-12600000D02*
X6300000Y-3400000D01*
X6700000Y-3000000D02*
G75*
G03*
X6300000Y-3400000I0J-400000D01*
G01*
X25300000Y-3400000D02*
X25300000Y-12600000D01*
X6300000Y-12600000D02*
G75*
G03*
X6700000Y-13000000I400000J0D01*
G01*
X6700000Y-3000000D02*
X24900000Y-3000000D01*
D11*
X6552619Y-13315476D02*
X6552619Y-13115476D01*
X6600238Y-13115476D01*
X6628809Y-13125000D01*
X6647857Y-13144048D01*
X6657381Y-13163095D01*
X6666905Y-13201190D01*
X6666905Y-13229762D01*
X6657381Y-13267857D01*
X6647857Y-13286905D01*
X6628809Y-13305952D01*
X6600238Y-13315476D01*
X6552619Y-13315476D01*
X6752619Y-13315476D02*
X6752619Y-13182143D01*
X6752619Y-13220238D02*
X6762143Y-13201190D01*
X6771667Y-13191667D01*
X6790714Y-13182143D01*
X6809762Y-13182143D01*
X6876428Y-13315476D02*
X6876428Y-13182143D01*
X6876428Y-13115476D02*
X6866905Y-13125000D01*
X6876428Y-13134524D01*
X6885952Y-13125000D01*
X6876428Y-13115476D01*
X6876428Y-13134524D01*
X7000238Y-13315476D02*
X6981190Y-13305952D01*
X6971667Y-13286905D01*
X6971667Y-13115476D01*
X7105000Y-13315476D02*
X7085952Y-13305952D01*
X7076428Y-13286905D01*
X7076428Y-13115476D01*
X7333571Y-13315476D02*
X7333571Y-13115476D01*
X7400238Y-13258333D01*
X7466905Y-13115476D01*
X7466905Y-13315476D01*
X7647857Y-13315476D02*
X7647857Y-13210714D01*
X7638333Y-13191667D01*
X7619286Y-13182143D01*
X7581190Y-13182143D01*
X7562143Y-13191667D01*
X7647857Y-13305952D02*
X7628809Y-13315476D01*
X7581190Y-13315476D01*
X7562143Y-13305952D01*
X7552619Y-13286905D01*
X7552619Y-13267857D01*
X7562143Y-13248809D01*
X7581190Y-13239286D01*
X7628809Y-13239286D01*
X7647857Y-13229762D01*
X7743095Y-13182143D02*
X7743095Y-13382143D01*
X7743095Y-13191667D02*
X7762143Y-13182143D01*
X7800238Y-13182143D01*
X7819286Y-13191667D01*
X7828809Y-13201190D01*
X7838333Y-13220238D01*
X7838333Y-13277381D01*
X7828809Y-13296428D01*
X7819286Y-13305952D01*
X7800238Y-13315476D01*
X7762143Y-13315476D01*
X7743095Y-13305952D01*
X7924048Y-13296428D02*
X7933571Y-13305952D01*
X7924048Y-13315476D01*
X7914524Y-13305952D01*
X7924048Y-13296428D01*
X7924048Y-13315476D01*
X7924048Y-13191667D02*
X7933571Y-13201190D01*
X7924048Y-13210714D01*
X7914524Y-13201190D01*
X7924048Y-13191667D01*
X7924048Y-13210714D01*
M02*
