%TF.GenerationSoftware,KiCad,Pcbnew,6.0.0-rc2-1.20211220git160328a.fc35*%
%TF.CreationDate,2022-01-02T14:26:24+00:00*%
%TF.ProjectId,Keypad_6x11,4b657970-6164-45f3-9678-31312e6b6963,rev?*%
%TF.SameCoordinates,Original*%
%TF.FileFunction,Soldermask,Top*%
%TF.FilePolarity,Negative*%
%FSLAX46Y46*%
G04 Gerber Fmt 4.6, Leading zero omitted, Abs format (unit mm)*
G04 Created by KiCad (PCBNEW 6.0.0-rc2-1.20211220git160328a.fc35) date 2022-01-02 14:26:24*
%MOMM*%
%LPD*%
G01*
G04 APERTURE LIST*
G04 Aperture macros list*
%AMRoundRect*
0 Rectangle with rounded corners*
0 $1 Rounding radius*
0 $2 $3 $4 $5 $6 $7 $8 $9 X,Y pos of 4 corners*
0 Add a 4 corners polygon primitive as box body*
4,1,4,$2,$3,$4,$5,$6,$7,$8,$9,$2,$3,0*
0 Add four circle primitives for the rounded corners*
1,1,$1+$1,$2,$3*
1,1,$1+$1,$4,$5*
1,1,$1+$1,$6,$7*
1,1,$1+$1,$8,$9*
0 Add four rect primitives between the rounded corners*
20,1,$1+$1,$2,$3,$4,$5,0*
20,1,$1+$1,$4,$5,$6,$7,0*
20,1,$1+$1,$6,$7,$8,$9,0*
20,1,$1+$1,$8,$9,$2,$3,0*%
G04 Aperture macros list end*
%ADD10RoundRect,0.250000X0.600000X0.600000X-0.600000X0.600000X-0.600000X-0.600000X0.600000X-0.600000X0*%
%ADD11C,1.700000*%
%ADD12O,2.750000X1.850000*%
%ADD13C,4.201160*%
%ADD14R,2.400000X2.400000*%
%ADD15C,2.400000*%
G04 APERTURE END LIST*
D10*
X71000000Y-68570000D03*
D11*
X68460000Y-68570000D03*
X71000000Y-71110000D03*
X68460000Y-71110000D03*
X71000000Y-73650000D03*
X68460000Y-73650000D03*
X71000000Y-76190000D03*
X68460000Y-76190000D03*
X71000000Y-78730000D03*
X68460000Y-78730000D03*
X71000000Y-81270000D03*
X68460000Y-81270000D03*
X71000000Y-83810000D03*
X68460000Y-83810000D03*
X71000000Y-86350000D03*
X68460000Y-86350000D03*
X71000000Y-88890000D03*
X68460000Y-88890000D03*
X71000000Y-91430000D03*
X68460000Y-91430000D03*
D12*
X156250000Y-70500000D03*
X143750000Y-70500000D03*
X143750000Y-75500000D03*
X156250000Y-75500000D03*
X188250000Y-56500000D03*
X175750000Y-56500000D03*
X188250000Y-61500000D03*
X175750000Y-61500000D03*
X207750000Y-84500000D03*
X220250000Y-84500000D03*
X207750000Y-89500000D03*
X220250000Y-89500000D03*
X95750000Y-42500000D03*
X108250000Y-42500000D03*
X108250000Y-47500000D03*
X95750000Y-47500000D03*
X191750000Y-98500000D03*
X204250000Y-98500000D03*
X204250000Y-103500000D03*
X191750000Y-103500000D03*
X111750000Y-98500000D03*
X124250000Y-98500000D03*
X124250000Y-103500000D03*
X111750000Y-103500000D03*
X159750000Y-84500000D03*
X172250000Y-84500000D03*
X159750000Y-89500000D03*
X172250000Y-89500000D03*
X95750000Y-70500000D03*
X108250000Y-70500000D03*
X108250000Y-75500000D03*
X95750000Y-75500000D03*
X95750000Y-98500000D03*
X108250000Y-98500000D03*
X108250000Y-103500000D03*
X95750000Y-103500000D03*
X127750000Y-56500000D03*
X140250000Y-56500000D03*
X127750000Y-61500000D03*
X140250000Y-61500000D03*
X188250000Y-98500000D03*
X175750000Y-98500000D03*
X175750000Y-103500000D03*
X188250000Y-103500000D03*
X143750000Y-98500000D03*
X156250000Y-98500000D03*
X143750000Y-103500000D03*
X156250000Y-103500000D03*
X172250000Y-112500000D03*
X159750000Y-112500000D03*
X159750000Y-117500000D03*
X172250000Y-117500000D03*
X172250000Y-42500000D03*
X159750000Y-42500000D03*
X172250000Y-47500000D03*
X159750000Y-47500000D03*
X92250000Y-56500000D03*
X79750000Y-56500000D03*
X79750000Y-61500000D03*
X92250000Y-61500000D03*
X223750000Y-42500000D03*
X236250000Y-42500000D03*
X223750000Y-47500000D03*
X236250000Y-47500000D03*
X124250000Y-42500000D03*
X111750000Y-42500000D03*
X111750000Y-47500000D03*
X124250000Y-47500000D03*
D13*
X67000000Y-34000000D03*
D12*
X236250000Y-112500000D03*
X223750000Y-112500000D03*
X223750000Y-117500000D03*
X236250000Y-117500000D03*
X140250000Y-42500000D03*
X127750000Y-42500000D03*
X127750000Y-47500000D03*
X140250000Y-47500000D03*
X79750000Y-98500000D03*
X92250000Y-98500000D03*
X79750000Y-103500000D03*
X92250000Y-103500000D03*
X156250000Y-84500000D03*
X143750000Y-84500000D03*
X156250000Y-89500000D03*
X143750000Y-89500000D03*
D13*
X249000000Y-126000000D03*
X158000000Y-126000000D03*
D12*
X236250000Y-56500000D03*
X223750000Y-56500000D03*
X236250000Y-61500000D03*
X223750000Y-61500000D03*
X191750000Y-70500000D03*
X204250000Y-70500000D03*
X191750000Y-75500000D03*
X204250000Y-75500000D03*
X79750000Y-112500000D03*
X92250000Y-112500000D03*
X92250000Y-117500000D03*
X79750000Y-117500000D03*
X191750000Y-112500000D03*
X204250000Y-112500000D03*
X191750000Y-117500000D03*
X204250000Y-117500000D03*
X108250000Y-84500000D03*
X95750000Y-84500000D03*
X108250000Y-89500000D03*
X95750000Y-89500000D03*
X191750000Y-42500000D03*
X204250000Y-42500000D03*
X191750000Y-47500000D03*
X204250000Y-47500000D03*
X79750000Y-84500000D03*
X92250000Y-84500000D03*
X92250000Y-89500000D03*
X79750000Y-89500000D03*
X111750000Y-70500000D03*
X124250000Y-70500000D03*
X111750000Y-75500000D03*
X124250000Y-75500000D03*
X207750000Y-98500000D03*
X220250000Y-98500000D03*
X207750000Y-103500000D03*
X220250000Y-103500000D03*
X188250000Y-42500000D03*
X175750000Y-42500000D03*
X188250000Y-47500000D03*
X175750000Y-47500000D03*
X188250000Y-70500000D03*
X175750000Y-70500000D03*
X188250000Y-75500000D03*
X175750000Y-75500000D03*
X220250000Y-112500000D03*
X207750000Y-112500000D03*
X207750000Y-117500000D03*
X220250000Y-117500000D03*
D13*
X67000000Y-126000000D03*
D12*
X124250000Y-112500000D03*
X111750000Y-112500000D03*
X111750000Y-117500000D03*
X124250000Y-117500000D03*
X204250000Y-56500000D03*
X191750000Y-56500000D03*
X204250000Y-61500000D03*
X191750000Y-61500000D03*
X156250000Y-56500000D03*
X143750000Y-56500000D03*
X143750000Y-61500000D03*
X156250000Y-61500000D03*
X207750000Y-70500000D03*
X220250000Y-70500000D03*
X207750000Y-75500000D03*
X220250000Y-75500000D03*
X79750000Y-42500000D03*
X92250000Y-42500000D03*
X79750000Y-47500000D03*
X92250000Y-47500000D03*
X140250000Y-112500000D03*
X127750000Y-112500000D03*
X140250000Y-117500000D03*
X127750000Y-117500000D03*
X124250000Y-84500000D03*
X111750000Y-84500000D03*
X111750000Y-89500000D03*
X124250000Y-89500000D03*
X223750000Y-70500000D03*
X236250000Y-70500000D03*
X236250000Y-75500000D03*
X223750000Y-75500000D03*
X172250000Y-56500000D03*
X159750000Y-56500000D03*
X172250000Y-61500000D03*
X159750000Y-61500000D03*
X79750000Y-70500000D03*
X92250000Y-70500000D03*
X79750000Y-75500000D03*
X92250000Y-75500000D03*
X143750000Y-42500000D03*
X156250000Y-42500000D03*
X143750000Y-47500000D03*
X156250000Y-47500000D03*
X175750000Y-84500000D03*
X188250000Y-84500000D03*
X188250000Y-89500000D03*
X175750000Y-89500000D03*
X140250000Y-70500000D03*
X127750000Y-70500000D03*
X127750000Y-75500000D03*
X140250000Y-75500000D03*
D13*
X158000000Y-34000000D03*
D12*
X172250000Y-98500000D03*
X159750000Y-98500000D03*
X159750000Y-103500000D03*
X172250000Y-103500000D03*
X140250000Y-98500000D03*
X127750000Y-98500000D03*
X140250000Y-103500000D03*
X127750000Y-103500000D03*
D13*
X249000000Y-34000000D03*
D12*
X95750000Y-112500000D03*
X108250000Y-112500000D03*
X108250000Y-117500000D03*
X95750000Y-117500000D03*
X156250000Y-112500000D03*
X143750000Y-112500000D03*
X143750000Y-117500000D03*
X156250000Y-117500000D03*
X95750000Y-56500000D03*
X108250000Y-56500000D03*
X95750000Y-61500000D03*
X108250000Y-61500000D03*
X124250000Y-56500000D03*
X111750000Y-56500000D03*
X111750000Y-61500000D03*
X124250000Y-61500000D03*
X220250000Y-42500000D03*
X207750000Y-42500000D03*
X207750000Y-47500000D03*
X220250000Y-47500000D03*
X159750000Y-70500000D03*
X172250000Y-70500000D03*
X159750000Y-75500000D03*
X172250000Y-75500000D03*
X191750000Y-84500000D03*
X204250000Y-84500000D03*
X191750000Y-89500000D03*
X204250000Y-89500000D03*
X140250000Y-84500000D03*
X127750000Y-84500000D03*
X140250000Y-89500000D03*
X127750000Y-89500000D03*
X175750000Y-112500000D03*
X188250000Y-112500000D03*
X188250000Y-117500000D03*
X175750000Y-117500000D03*
X207750000Y-56500000D03*
X220250000Y-56500000D03*
X207750000Y-61500000D03*
X220250000Y-61500000D03*
X223750000Y-98500000D03*
X236250000Y-98500000D03*
X223750000Y-103500000D03*
X236250000Y-103500000D03*
X236250000Y-84500000D03*
X223750000Y-84500000D03*
X223750000Y-89500000D03*
X236250000Y-89500000D03*
D14*
X243900000Y-43250000D03*
D15*
X243900000Y-46750000D03*
D14*
X243900000Y-57250000D03*
D15*
X243900000Y-60750000D03*
D14*
X243900000Y-113250000D03*
D15*
X243900000Y-116750000D03*
D14*
X243900000Y-99250000D03*
D15*
X243900000Y-102750000D03*
D14*
X243900000Y-71250000D03*
D15*
X243900000Y-74750000D03*
D14*
X243900000Y-85250000D03*
D15*
X243900000Y-88750000D03*
M02*
