%FSLAX45Y45*%
G04 Gerber Fmt 4.5, Leading zero omitted, Abs format (unit mm)*
G04 Created by KiCad (PCBNEW 6.0.0-rc2-1.20211220git160328a.fc35) date 2022-01-02 14:27:41*
%MOMM*%
%LPD*%
G01*
G04 APERTURE LIST*
%TA.AperFunction,Profile*%
%ADD10C,0.100000*%
%TD*%
%ADD11C,0.200000*%
%ADD12C,0.100000*%
%ADD13C,0.120000*%
%ADD14C,0.130000*%
%ADD15C,0.320040*%
G04 APERTURE END LIST*
D10*
X25300000Y-13000000D02*
X6300000Y-13000000D01*
X6300000Y-13000000D02*
X6300000Y-3000000D01*
X25300000Y-3000000D02*
X25300000Y-13000000D01*
X6300000Y-3000000D02*
X25300000Y-3000000D01*
D11*
D12*
X6796000Y-6807000D02*
X6896000Y-6907000D01*
X6896000Y-6807000D02*
X6796000Y-6907000D01*
X6796000Y-7061000D02*
X6896000Y-7161000D01*
X6896000Y-7061000D02*
X6796000Y-7161000D01*
X6796000Y-7315000D02*
X6896000Y-7415000D01*
X6896000Y-7315000D02*
X6796000Y-7415000D01*
X6796000Y-7569000D02*
X6896000Y-7669000D01*
X6896000Y-7569000D02*
X6796000Y-7669000D01*
X6796000Y-7823000D02*
X6896000Y-7923000D01*
X6896000Y-7823000D02*
X6796000Y-7923000D01*
X6796000Y-8077000D02*
X6896000Y-8177000D01*
X6896000Y-8077000D02*
X6796000Y-8177000D01*
X6796000Y-8331000D02*
X6896000Y-8431000D01*
X6896000Y-8331000D02*
X6796000Y-8431000D01*
X6796000Y-8585000D02*
X6896000Y-8685000D01*
X6896000Y-8585000D02*
X6796000Y-8685000D01*
X6796000Y-8839000D02*
X6896000Y-8939000D01*
X6896000Y-8839000D02*
X6796000Y-8939000D01*
X6796000Y-9093000D02*
X6896000Y-9193000D01*
X6896000Y-9093000D02*
X6796000Y-9193000D01*
X7050000Y-6807000D02*
X7150000Y-6907000D01*
X7150000Y-6807000D02*
X7050000Y-6907000D01*
X7050000Y-7061000D02*
X7150000Y-7161000D01*
X7150000Y-7061000D02*
X7050000Y-7161000D01*
X7050000Y-7315000D02*
X7150000Y-7415000D01*
X7150000Y-7315000D02*
X7050000Y-7415000D01*
X7050000Y-7569000D02*
X7150000Y-7669000D01*
X7150000Y-7569000D02*
X7050000Y-7669000D01*
X7050000Y-7823000D02*
X7150000Y-7923000D01*
X7150000Y-7823000D02*
X7050000Y-7923000D01*
X7050000Y-8077000D02*
X7150000Y-8177000D01*
X7150000Y-8077000D02*
X7050000Y-8177000D01*
X7050000Y-8331000D02*
X7150000Y-8431000D01*
X7150000Y-8331000D02*
X7050000Y-8431000D01*
X7050000Y-8585000D02*
X7150000Y-8685000D01*
X7150000Y-8585000D02*
X7050000Y-8685000D01*
X7050000Y-8839000D02*
X7150000Y-8939000D01*
X7150000Y-8839000D02*
X7050000Y-8939000D01*
X7050000Y-9093000D02*
X7150000Y-9193000D01*
X7150000Y-9093000D02*
X7050000Y-9193000D01*
D13*
X24450000Y-4325000D02*
G75*
G03*
X24450000Y-4325000I-60000J0D01*
G01*
X24450000Y-4675000D02*
G75*
G03*
X24450000Y-4675000I-60000J0D01*
G01*
X24450000Y-5725000D02*
G75*
G03*
X24450000Y-5725000I-60000J0D01*
G01*
X24450000Y-6075000D02*
G75*
G03*
X24450000Y-6075000I-60000J0D01*
G01*
X24450000Y-7125000D02*
G75*
G03*
X24450000Y-7125000I-60000J0D01*
G01*
X24450000Y-7475000D02*
G75*
G03*
X24450000Y-7475000I-60000J0D01*
G01*
X24450000Y-8525000D02*
G75*
G03*
X24450000Y-8525000I-60000J0D01*
G01*
X24450000Y-8875000D02*
G75*
G03*
X24450000Y-8875000I-60000J0D01*
G01*
X24450000Y-9925000D02*
G75*
G03*
X24450000Y-9925000I-60000J0D01*
G01*
X24450000Y-10275000D02*
G75*
G03*
X24450000Y-10275000I-60000J0D01*
G01*
X24450000Y-11325000D02*
G75*
G03*
X24450000Y-11325000I-60000J0D01*
G01*
X24450000Y-11675000D02*
G75*
G03*
X24450000Y-11675000I-60000J0D01*
G01*
D14*
X7975000Y-4185000D02*
X7975000Y-4315000D01*
X7910000Y-4250000D02*
X8040000Y-4250000D01*
X7975000Y-4685000D02*
X7975000Y-4815000D01*
X7910000Y-4750000D02*
X8040000Y-4750000D01*
X7975000Y-5585000D02*
X7975000Y-5715000D01*
X7910000Y-5650000D02*
X8040000Y-5650000D01*
X7975000Y-6085000D02*
X7975000Y-6215000D01*
X7910000Y-6150000D02*
X8040000Y-6150000D01*
X7975000Y-6985000D02*
X7975000Y-7115000D01*
X7910000Y-7050000D02*
X8040000Y-7050000D01*
X7975000Y-7485000D02*
X7975000Y-7615000D01*
X7910000Y-7550000D02*
X8040000Y-7550000D01*
X7975000Y-8385000D02*
X7975000Y-8515000D01*
X7910000Y-8450000D02*
X8040000Y-8450000D01*
X7975000Y-8885000D02*
X7975000Y-9015000D01*
X7910000Y-8950000D02*
X8040000Y-8950000D01*
X7975000Y-9785000D02*
X7975000Y-9915000D01*
X7910000Y-9850000D02*
X8040000Y-9850000D01*
X7975000Y-10285000D02*
X7975000Y-10415000D01*
X7910000Y-10350000D02*
X8040000Y-10350000D01*
X7975000Y-11185000D02*
X7975000Y-11315000D01*
X7910000Y-11250000D02*
X8040000Y-11250000D01*
X7975000Y-11685000D02*
X7975000Y-11815000D01*
X7910000Y-11750000D02*
X8040000Y-11750000D01*
X9225000Y-4185000D02*
X9225000Y-4315000D01*
X9160000Y-4250000D02*
X9290000Y-4250000D01*
X9225000Y-4685000D02*
X9225000Y-4815000D01*
X9160000Y-4750000D02*
X9290000Y-4750000D01*
X9225000Y-5585000D02*
X9225000Y-5715000D01*
X9160000Y-5650000D02*
X9290000Y-5650000D01*
X9225000Y-6085000D02*
X9225000Y-6215000D01*
X9160000Y-6150000D02*
X9290000Y-6150000D01*
X9225000Y-6985000D02*
X9225000Y-7115000D01*
X9160000Y-7050000D02*
X9290000Y-7050000D01*
X9225000Y-7485000D02*
X9225000Y-7615000D01*
X9160000Y-7550000D02*
X9290000Y-7550000D01*
X9225000Y-8385000D02*
X9225000Y-8515000D01*
X9160000Y-8450000D02*
X9290000Y-8450000D01*
X9225000Y-8885000D02*
X9225000Y-9015000D01*
X9160000Y-8950000D02*
X9290000Y-8950000D01*
X9225000Y-9785000D02*
X9225000Y-9915000D01*
X9160000Y-9850000D02*
X9290000Y-9850000D01*
X9225000Y-10285000D02*
X9225000Y-10415000D01*
X9160000Y-10350000D02*
X9290000Y-10350000D01*
X9225000Y-11185000D02*
X9225000Y-11315000D01*
X9160000Y-11250000D02*
X9290000Y-11250000D01*
X9225000Y-11685000D02*
X9225000Y-11815000D01*
X9160000Y-11750000D02*
X9290000Y-11750000D01*
X9575000Y-4185000D02*
X9575000Y-4315000D01*
X9510000Y-4250000D02*
X9640000Y-4250000D01*
X9575000Y-4685000D02*
X9575000Y-4815000D01*
X9510000Y-4750000D02*
X9640000Y-4750000D01*
X9575000Y-5585000D02*
X9575000Y-5715000D01*
X9510000Y-5650000D02*
X9640000Y-5650000D01*
X9575000Y-6085000D02*
X9575000Y-6215000D01*
X9510000Y-6150000D02*
X9640000Y-6150000D01*
X9575000Y-6985000D02*
X9575000Y-7115000D01*
X9510000Y-7050000D02*
X9640000Y-7050000D01*
X9575000Y-7485000D02*
X9575000Y-7615000D01*
X9510000Y-7550000D02*
X9640000Y-7550000D01*
X9575000Y-8385000D02*
X9575000Y-8515000D01*
X9510000Y-8450000D02*
X9640000Y-8450000D01*
X9575000Y-8885000D02*
X9575000Y-9015000D01*
X9510000Y-8950000D02*
X9640000Y-8950000D01*
X9575000Y-9785000D02*
X9575000Y-9915000D01*
X9510000Y-9850000D02*
X9640000Y-9850000D01*
X9575000Y-10285000D02*
X9575000Y-10415000D01*
X9510000Y-10350000D02*
X9640000Y-10350000D01*
X9575000Y-11185000D02*
X9575000Y-11315000D01*
X9510000Y-11250000D02*
X9640000Y-11250000D01*
X9575000Y-11685000D02*
X9575000Y-11815000D01*
X9510000Y-11750000D02*
X9640000Y-11750000D01*
X10825000Y-4185000D02*
X10825000Y-4315000D01*
X10760000Y-4250000D02*
X10890000Y-4250000D01*
X10825000Y-4685000D02*
X10825000Y-4815000D01*
X10760000Y-4750000D02*
X10890000Y-4750000D01*
X10825000Y-5585000D02*
X10825000Y-5715000D01*
X10760000Y-5650000D02*
X10890000Y-5650000D01*
X10825000Y-6085000D02*
X10825000Y-6215000D01*
X10760000Y-6150000D02*
X10890000Y-6150000D01*
X10825000Y-6985000D02*
X10825000Y-7115000D01*
X10760000Y-7050000D02*
X10890000Y-7050000D01*
X10825000Y-7485000D02*
X10825000Y-7615000D01*
X10760000Y-7550000D02*
X10890000Y-7550000D01*
X10825000Y-8385000D02*
X10825000Y-8515000D01*
X10760000Y-8450000D02*
X10890000Y-8450000D01*
X10825000Y-8885000D02*
X10825000Y-9015000D01*
X10760000Y-8950000D02*
X10890000Y-8950000D01*
X10825000Y-9785000D02*
X10825000Y-9915000D01*
X10760000Y-9850000D02*
X10890000Y-9850000D01*
X10825000Y-10285000D02*
X10825000Y-10415000D01*
X10760000Y-10350000D02*
X10890000Y-10350000D01*
X10825000Y-11185000D02*
X10825000Y-11315000D01*
X10760000Y-11250000D02*
X10890000Y-11250000D01*
X10825000Y-11685000D02*
X10825000Y-11815000D01*
X10760000Y-11750000D02*
X10890000Y-11750000D01*
X11175000Y-4185000D02*
X11175000Y-4315000D01*
X11110000Y-4250000D02*
X11240000Y-4250000D01*
X11175000Y-4685000D02*
X11175000Y-4815000D01*
X11110000Y-4750000D02*
X11240000Y-4750000D01*
X11175000Y-5585000D02*
X11175000Y-5715000D01*
X11110000Y-5650000D02*
X11240000Y-5650000D01*
X11175000Y-6085000D02*
X11175000Y-6215000D01*
X11110000Y-6150000D02*
X11240000Y-6150000D01*
X11175000Y-6985000D02*
X11175000Y-7115000D01*
X11110000Y-7050000D02*
X11240000Y-7050000D01*
X11175000Y-7485000D02*
X11175000Y-7615000D01*
X11110000Y-7550000D02*
X11240000Y-7550000D01*
X11175000Y-8385000D02*
X11175000Y-8515000D01*
X11110000Y-8450000D02*
X11240000Y-8450000D01*
X11175000Y-8885000D02*
X11175000Y-9015000D01*
X11110000Y-8950000D02*
X11240000Y-8950000D01*
X11175000Y-9785000D02*
X11175000Y-9915000D01*
X11110000Y-9850000D02*
X11240000Y-9850000D01*
X11175000Y-10285000D02*
X11175000Y-10415000D01*
X11110000Y-10350000D02*
X11240000Y-10350000D01*
X11175000Y-11185000D02*
X11175000Y-11315000D01*
X11110000Y-11250000D02*
X11240000Y-11250000D01*
X11175000Y-11685000D02*
X11175000Y-11815000D01*
X11110000Y-11750000D02*
X11240000Y-11750000D01*
X12425000Y-4185000D02*
X12425000Y-4315000D01*
X12360000Y-4250000D02*
X12490000Y-4250000D01*
X12425000Y-4685000D02*
X12425000Y-4815000D01*
X12360000Y-4750000D02*
X12490000Y-4750000D01*
X12425000Y-5585000D02*
X12425000Y-5715000D01*
X12360000Y-5650000D02*
X12490000Y-5650000D01*
X12425000Y-6085000D02*
X12425000Y-6215000D01*
X12360000Y-6150000D02*
X12490000Y-6150000D01*
X12425000Y-6985000D02*
X12425000Y-7115000D01*
X12360000Y-7050000D02*
X12490000Y-7050000D01*
X12425000Y-7485000D02*
X12425000Y-7615000D01*
X12360000Y-7550000D02*
X12490000Y-7550000D01*
X12425000Y-8385000D02*
X12425000Y-8515000D01*
X12360000Y-8450000D02*
X12490000Y-8450000D01*
X12425000Y-8885000D02*
X12425000Y-9015000D01*
X12360000Y-8950000D02*
X12490000Y-8950000D01*
X12425000Y-9785000D02*
X12425000Y-9915000D01*
X12360000Y-9850000D02*
X12490000Y-9850000D01*
X12425000Y-10285000D02*
X12425000Y-10415000D01*
X12360000Y-10350000D02*
X12490000Y-10350000D01*
X12425000Y-11185000D02*
X12425000Y-11315000D01*
X12360000Y-11250000D02*
X12490000Y-11250000D01*
X12425000Y-11685000D02*
X12425000Y-11815000D01*
X12360000Y-11750000D02*
X12490000Y-11750000D01*
X12775000Y-4185000D02*
X12775000Y-4315000D01*
X12710000Y-4250000D02*
X12840000Y-4250000D01*
X12775000Y-4685000D02*
X12775000Y-4815000D01*
X12710000Y-4750000D02*
X12840000Y-4750000D01*
X12775000Y-5585000D02*
X12775000Y-5715000D01*
X12710000Y-5650000D02*
X12840000Y-5650000D01*
X12775000Y-6085000D02*
X12775000Y-6215000D01*
X12710000Y-6150000D02*
X12840000Y-6150000D01*
X12775000Y-6985000D02*
X12775000Y-7115000D01*
X12710000Y-7050000D02*
X12840000Y-7050000D01*
X12775000Y-7485000D02*
X12775000Y-7615000D01*
X12710000Y-7550000D02*
X12840000Y-7550000D01*
X12775000Y-8385000D02*
X12775000Y-8515000D01*
X12710000Y-8450000D02*
X12840000Y-8450000D01*
X12775000Y-8885000D02*
X12775000Y-9015000D01*
X12710000Y-8950000D02*
X12840000Y-8950000D01*
X12775000Y-9785000D02*
X12775000Y-9915000D01*
X12710000Y-9850000D02*
X12840000Y-9850000D01*
X12775000Y-10285000D02*
X12775000Y-10415000D01*
X12710000Y-10350000D02*
X12840000Y-10350000D01*
X12775000Y-11185000D02*
X12775000Y-11315000D01*
X12710000Y-11250000D02*
X12840000Y-11250000D01*
X12775000Y-11685000D02*
X12775000Y-11815000D01*
X12710000Y-11750000D02*
X12840000Y-11750000D01*
X14025000Y-4185000D02*
X14025000Y-4315000D01*
X13960000Y-4250000D02*
X14090000Y-4250000D01*
X14025000Y-4685000D02*
X14025000Y-4815000D01*
X13960000Y-4750000D02*
X14090000Y-4750000D01*
X14025000Y-5585000D02*
X14025000Y-5715000D01*
X13960000Y-5650000D02*
X14090000Y-5650000D01*
X14025000Y-6085000D02*
X14025000Y-6215000D01*
X13960000Y-6150000D02*
X14090000Y-6150000D01*
X14025000Y-6985000D02*
X14025000Y-7115000D01*
X13960000Y-7050000D02*
X14090000Y-7050000D01*
X14025000Y-7485000D02*
X14025000Y-7615000D01*
X13960000Y-7550000D02*
X14090000Y-7550000D01*
X14025000Y-8385000D02*
X14025000Y-8515000D01*
X13960000Y-8450000D02*
X14090000Y-8450000D01*
X14025000Y-8885000D02*
X14025000Y-9015000D01*
X13960000Y-8950000D02*
X14090000Y-8950000D01*
X14025000Y-9785000D02*
X14025000Y-9915000D01*
X13960000Y-9850000D02*
X14090000Y-9850000D01*
X14025000Y-10285000D02*
X14025000Y-10415000D01*
X13960000Y-10350000D02*
X14090000Y-10350000D01*
X14025000Y-11185000D02*
X14025000Y-11315000D01*
X13960000Y-11250000D02*
X14090000Y-11250000D01*
X14025000Y-11685000D02*
X14025000Y-11815000D01*
X13960000Y-11750000D02*
X14090000Y-11750000D01*
X14375000Y-4185000D02*
X14375000Y-4315000D01*
X14310000Y-4250000D02*
X14440000Y-4250000D01*
X14375000Y-4685000D02*
X14375000Y-4815000D01*
X14310000Y-4750000D02*
X14440000Y-4750000D01*
X14375000Y-5585000D02*
X14375000Y-5715000D01*
X14310000Y-5650000D02*
X14440000Y-5650000D01*
X14375000Y-6085000D02*
X14375000Y-6215000D01*
X14310000Y-6150000D02*
X14440000Y-6150000D01*
X14375000Y-6985000D02*
X14375000Y-7115000D01*
X14310000Y-7050000D02*
X14440000Y-7050000D01*
X14375000Y-7485000D02*
X14375000Y-7615000D01*
X14310000Y-7550000D02*
X14440000Y-7550000D01*
X14375000Y-8385000D02*
X14375000Y-8515000D01*
X14310000Y-8450000D02*
X14440000Y-8450000D01*
X14375000Y-8885000D02*
X14375000Y-9015000D01*
X14310000Y-8950000D02*
X14440000Y-8950000D01*
X14375000Y-9785000D02*
X14375000Y-9915000D01*
X14310000Y-9850000D02*
X14440000Y-9850000D01*
X14375000Y-10285000D02*
X14375000Y-10415000D01*
X14310000Y-10350000D02*
X14440000Y-10350000D01*
X14375000Y-11185000D02*
X14375000Y-11315000D01*
X14310000Y-11250000D02*
X14440000Y-11250000D01*
X14375000Y-11685000D02*
X14375000Y-11815000D01*
X14310000Y-11750000D02*
X14440000Y-11750000D01*
X15625000Y-4185000D02*
X15625000Y-4315000D01*
X15560000Y-4250000D02*
X15690000Y-4250000D01*
X15625000Y-4685000D02*
X15625000Y-4815000D01*
X15560000Y-4750000D02*
X15690000Y-4750000D01*
X15625000Y-5585000D02*
X15625000Y-5715000D01*
X15560000Y-5650000D02*
X15690000Y-5650000D01*
X15625000Y-6085000D02*
X15625000Y-6215000D01*
X15560000Y-6150000D02*
X15690000Y-6150000D01*
X15625000Y-6985000D02*
X15625000Y-7115000D01*
X15560000Y-7050000D02*
X15690000Y-7050000D01*
X15625000Y-7485000D02*
X15625000Y-7615000D01*
X15560000Y-7550000D02*
X15690000Y-7550000D01*
X15625000Y-8385000D02*
X15625000Y-8515000D01*
X15560000Y-8450000D02*
X15690000Y-8450000D01*
X15625000Y-8885000D02*
X15625000Y-9015000D01*
X15560000Y-8950000D02*
X15690000Y-8950000D01*
X15625000Y-9785000D02*
X15625000Y-9915000D01*
X15560000Y-9850000D02*
X15690000Y-9850000D01*
X15625000Y-10285000D02*
X15625000Y-10415000D01*
X15560000Y-10350000D02*
X15690000Y-10350000D01*
X15625000Y-11185000D02*
X15625000Y-11315000D01*
X15560000Y-11250000D02*
X15690000Y-11250000D01*
X15625000Y-11685000D02*
X15625000Y-11815000D01*
X15560000Y-11750000D02*
X15690000Y-11750000D01*
X15975000Y-4185000D02*
X15975000Y-4315000D01*
X15910000Y-4250000D02*
X16040000Y-4250000D01*
X15975000Y-4685000D02*
X15975000Y-4815000D01*
X15910000Y-4750000D02*
X16040000Y-4750000D01*
X15975000Y-5585000D02*
X15975000Y-5715000D01*
X15910000Y-5650000D02*
X16040000Y-5650000D01*
X15975000Y-6085000D02*
X15975000Y-6215000D01*
X15910000Y-6150000D02*
X16040000Y-6150000D01*
X15975000Y-6985000D02*
X15975000Y-7115000D01*
X15910000Y-7050000D02*
X16040000Y-7050000D01*
X15975000Y-7485000D02*
X15975000Y-7615000D01*
X15910000Y-7550000D02*
X16040000Y-7550000D01*
X15975000Y-8385000D02*
X15975000Y-8515000D01*
X15910000Y-8450000D02*
X16040000Y-8450000D01*
X15975000Y-8885000D02*
X15975000Y-9015000D01*
X15910000Y-8950000D02*
X16040000Y-8950000D01*
X15975000Y-9785000D02*
X15975000Y-9915000D01*
X15910000Y-9850000D02*
X16040000Y-9850000D01*
X15975000Y-10285000D02*
X15975000Y-10415000D01*
X15910000Y-10350000D02*
X16040000Y-10350000D01*
X15975000Y-11185000D02*
X15975000Y-11315000D01*
X15910000Y-11250000D02*
X16040000Y-11250000D01*
X15975000Y-11685000D02*
X15975000Y-11815000D01*
X15910000Y-11750000D02*
X16040000Y-11750000D01*
X17225000Y-4185000D02*
X17225000Y-4315000D01*
X17160000Y-4250000D02*
X17290000Y-4250000D01*
X17225000Y-4685000D02*
X17225000Y-4815000D01*
X17160000Y-4750000D02*
X17290000Y-4750000D01*
X17225000Y-5585000D02*
X17225000Y-5715000D01*
X17160000Y-5650000D02*
X17290000Y-5650000D01*
X17225000Y-6085000D02*
X17225000Y-6215000D01*
X17160000Y-6150000D02*
X17290000Y-6150000D01*
X17225000Y-6985000D02*
X17225000Y-7115000D01*
X17160000Y-7050000D02*
X17290000Y-7050000D01*
X17225000Y-7485000D02*
X17225000Y-7615000D01*
X17160000Y-7550000D02*
X17290000Y-7550000D01*
X17225000Y-8385000D02*
X17225000Y-8515000D01*
X17160000Y-8450000D02*
X17290000Y-8450000D01*
X17225000Y-8885000D02*
X17225000Y-9015000D01*
X17160000Y-8950000D02*
X17290000Y-8950000D01*
X17225000Y-9785000D02*
X17225000Y-9915000D01*
X17160000Y-9850000D02*
X17290000Y-9850000D01*
X17225000Y-10285000D02*
X17225000Y-10415000D01*
X17160000Y-10350000D02*
X17290000Y-10350000D01*
X17225000Y-11185000D02*
X17225000Y-11315000D01*
X17160000Y-11250000D02*
X17290000Y-11250000D01*
X17225000Y-11685000D02*
X17225000Y-11815000D01*
X17160000Y-11750000D02*
X17290000Y-11750000D01*
X17575000Y-4185000D02*
X17575000Y-4315000D01*
X17510000Y-4250000D02*
X17640000Y-4250000D01*
X17575000Y-4685000D02*
X17575000Y-4815000D01*
X17510000Y-4750000D02*
X17640000Y-4750000D01*
X17575000Y-5585000D02*
X17575000Y-5715000D01*
X17510000Y-5650000D02*
X17640000Y-5650000D01*
X17575000Y-6085000D02*
X17575000Y-6215000D01*
X17510000Y-6150000D02*
X17640000Y-6150000D01*
X17575000Y-6985000D02*
X17575000Y-7115000D01*
X17510000Y-7050000D02*
X17640000Y-7050000D01*
X17575000Y-7485000D02*
X17575000Y-7615000D01*
X17510000Y-7550000D02*
X17640000Y-7550000D01*
X17575000Y-8385000D02*
X17575000Y-8515000D01*
X17510000Y-8450000D02*
X17640000Y-8450000D01*
X17575000Y-8885000D02*
X17575000Y-9015000D01*
X17510000Y-8950000D02*
X17640000Y-8950000D01*
X17575000Y-9785000D02*
X17575000Y-9915000D01*
X17510000Y-9850000D02*
X17640000Y-9850000D01*
X17575000Y-10285000D02*
X17575000Y-10415000D01*
X17510000Y-10350000D02*
X17640000Y-10350000D01*
X17575000Y-11185000D02*
X17575000Y-11315000D01*
X17510000Y-11250000D02*
X17640000Y-11250000D01*
X17575000Y-11685000D02*
X17575000Y-11815000D01*
X17510000Y-11750000D02*
X17640000Y-11750000D01*
X18825000Y-4185000D02*
X18825000Y-4315000D01*
X18760000Y-4250000D02*
X18890000Y-4250000D01*
X18825000Y-4685000D02*
X18825000Y-4815000D01*
X18760000Y-4750000D02*
X18890000Y-4750000D01*
X18825000Y-5585000D02*
X18825000Y-5715000D01*
X18760000Y-5650000D02*
X18890000Y-5650000D01*
X18825000Y-6085000D02*
X18825000Y-6215000D01*
X18760000Y-6150000D02*
X18890000Y-6150000D01*
X18825000Y-6985000D02*
X18825000Y-7115000D01*
X18760000Y-7050000D02*
X18890000Y-7050000D01*
X18825000Y-7485000D02*
X18825000Y-7615000D01*
X18760000Y-7550000D02*
X18890000Y-7550000D01*
X18825000Y-8385000D02*
X18825000Y-8515000D01*
X18760000Y-8450000D02*
X18890000Y-8450000D01*
X18825000Y-8885000D02*
X18825000Y-9015000D01*
X18760000Y-8950000D02*
X18890000Y-8950000D01*
X18825000Y-9785000D02*
X18825000Y-9915000D01*
X18760000Y-9850000D02*
X18890000Y-9850000D01*
X18825000Y-10285000D02*
X18825000Y-10415000D01*
X18760000Y-10350000D02*
X18890000Y-10350000D01*
X18825000Y-11185000D02*
X18825000Y-11315000D01*
X18760000Y-11250000D02*
X18890000Y-11250000D01*
X18825000Y-11685000D02*
X18825000Y-11815000D01*
X18760000Y-11750000D02*
X18890000Y-11750000D01*
X19175000Y-4185000D02*
X19175000Y-4315000D01*
X19110000Y-4250000D02*
X19240000Y-4250000D01*
X19175000Y-4685000D02*
X19175000Y-4815000D01*
X19110000Y-4750000D02*
X19240000Y-4750000D01*
X19175000Y-5585000D02*
X19175000Y-5715000D01*
X19110000Y-5650000D02*
X19240000Y-5650000D01*
X19175000Y-6085000D02*
X19175000Y-6215000D01*
X19110000Y-6150000D02*
X19240000Y-6150000D01*
X19175000Y-6985000D02*
X19175000Y-7115000D01*
X19110000Y-7050000D02*
X19240000Y-7050000D01*
X19175000Y-7485000D02*
X19175000Y-7615000D01*
X19110000Y-7550000D02*
X19240000Y-7550000D01*
X19175000Y-8385000D02*
X19175000Y-8515000D01*
X19110000Y-8450000D02*
X19240000Y-8450000D01*
X19175000Y-8885000D02*
X19175000Y-9015000D01*
X19110000Y-8950000D02*
X19240000Y-8950000D01*
X19175000Y-9785000D02*
X19175000Y-9915000D01*
X19110000Y-9850000D02*
X19240000Y-9850000D01*
X19175000Y-10285000D02*
X19175000Y-10415000D01*
X19110000Y-10350000D02*
X19240000Y-10350000D01*
X19175000Y-11185000D02*
X19175000Y-11315000D01*
X19110000Y-11250000D02*
X19240000Y-11250000D01*
X19175000Y-11685000D02*
X19175000Y-11815000D01*
X19110000Y-11750000D02*
X19240000Y-11750000D01*
X20425000Y-4185000D02*
X20425000Y-4315000D01*
X20360000Y-4250000D02*
X20490000Y-4250000D01*
X20425000Y-4685000D02*
X20425000Y-4815000D01*
X20360000Y-4750000D02*
X20490000Y-4750000D01*
X20425000Y-5585000D02*
X20425000Y-5715000D01*
X20360000Y-5650000D02*
X20490000Y-5650000D01*
X20425000Y-6085000D02*
X20425000Y-6215000D01*
X20360000Y-6150000D02*
X20490000Y-6150000D01*
X20425000Y-6985000D02*
X20425000Y-7115000D01*
X20360000Y-7050000D02*
X20490000Y-7050000D01*
X20425000Y-7485000D02*
X20425000Y-7615000D01*
X20360000Y-7550000D02*
X20490000Y-7550000D01*
X20425000Y-8385000D02*
X20425000Y-8515000D01*
X20360000Y-8450000D02*
X20490000Y-8450000D01*
X20425000Y-8885000D02*
X20425000Y-9015000D01*
X20360000Y-8950000D02*
X20490000Y-8950000D01*
X20425000Y-9785000D02*
X20425000Y-9915000D01*
X20360000Y-9850000D02*
X20490000Y-9850000D01*
X20425000Y-10285000D02*
X20425000Y-10415000D01*
X20360000Y-10350000D02*
X20490000Y-10350000D01*
X20425000Y-11185000D02*
X20425000Y-11315000D01*
X20360000Y-11250000D02*
X20490000Y-11250000D01*
X20425000Y-11685000D02*
X20425000Y-11815000D01*
X20360000Y-11750000D02*
X20490000Y-11750000D01*
X20775000Y-4185000D02*
X20775000Y-4315000D01*
X20710000Y-4250000D02*
X20840000Y-4250000D01*
X20775000Y-4685000D02*
X20775000Y-4815000D01*
X20710000Y-4750000D02*
X20840000Y-4750000D01*
X20775000Y-5585000D02*
X20775000Y-5715000D01*
X20710000Y-5650000D02*
X20840000Y-5650000D01*
X20775000Y-6085000D02*
X20775000Y-6215000D01*
X20710000Y-6150000D02*
X20840000Y-6150000D01*
X20775000Y-6985000D02*
X20775000Y-7115000D01*
X20710000Y-7050000D02*
X20840000Y-7050000D01*
X20775000Y-7485000D02*
X20775000Y-7615000D01*
X20710000Y-7550000D02*
X20840000Y-7550000D01*
X20775000Y-8385000D02*
X20775000Y-8515000D01*
X20710000Y-8450000D02*
X20840000Y-8450000D01*
X20775000Y-8885000D02*
X20775000Y-9015000D01*
X20710000Y-8950000D02*
X20840000Y-8950000D01*
X20775000Y-9785000D02*
X20775000Y-9915000D01*
X20710000Y-9850000D02*
X20840000Y-9850000D01*
X20775000Y-10285000D02*
X20775000Y-10415000D01*
X20710000Y-10350000D02*
X20840000Y-10350000D01*
X20775000Y-11185000D02*
X20775000Y-11315000D01*
X20710000Y-11250000D02*
X20840000Y-11250000D01*
X20775000Y-11685000D02*
X20775000Y-11815000D01*
X20710000Y-11750000D02*
X20840000Y-11750000D01*
X22025000Y-4185000D02*
X22025000Y-4315000D01*
X21960000Y-4250000D02*
X22090000Y-4250000D01*
X22025000Y-4685000D02*
X22025000Y-4815000D01*
X21960000Y-4750000D02*
X22090000Y-4750000D01*
X22025000Y-5585000D02*
X22025000Y-5715000D01*
X21960000Y-5650000D02*
X22090000Y-5650000D01*
X22025000Y-6085000D02*
X22025000Y-6215000D01*
X21960000Y-6150000D02*
X22090000Y-6150000D01*
X22025000Y-6985000D02*
X22025000Y-7115000D01*
X21960000Y-7050000D02*
X22090000Y-7050000D01*
X22025000Y-7485000D02*
X22025000Y-7615000D01*
X21960000Y-7550000D02*
X22090000Y-7550000D01*
X22025000Y-8385000D02*
X22025000Y-8515000D01*
X21960000Y-8450000D02*
X22090000Y-8450000D01*
X22025000Y-8885000D02*
X22025000Y-9015000D01*
X21960000Y-8950000D02*
X22090000Y-8950000D01*
X22025000Y-9785000D02*
X22025000Y-9915000D01*
X21960000Y-9850000D02*
X22090000Y-9850000D01*
X22025000Y-10285000D02*
X22025000Y-10415000D01*
X21960000Y-10350000D02*
X22090000Y-10350000D01*
X22025000Y-11185000D02*
X22025000Y-11315000D01*
X21960000Y-11250000D02*
X22090000Y-11250000D01*
X22025000Y-11685000D02*
X22025000Y-11815000D01*
X21960000Y-11750000D02*
X22090000Y-11750000D01*
X22375000Y-4185000D02*
X22375000Y-4315000D01*
X22310000Y-4250000D02*
X22440000Y-4250000D01*
X22375000Y-4685000D02*
X22375000Y-4815000D01*
X22310000Y-4750000D02*
X22440000Y-4750000D01*
X22375000Y-5585000D02*
X22375000Y-5715000D01*
X22310000Y-5650000D02*
X22440000Y-5650000D01*
X22375000Y-6085000D02*
X22375000Y-6215000D01*
X22310000Y-6150000D02*
X22440000Y-6150000D01*
X22375000Y-6985000D02*
X22375000Y-7115000D01*
X22310000Y-7050000D02*
X22440000Y-7050000D01*
X22375000Y-7485000D02*
X22375000Y-7615000D01*
X22310000Y-7550000D02*
X22440000Y-7550000D01*
X22375000Y-8385000D02*
X22375000Y-8515000D01*
X22310000Y-8450000D02*
X22440000Y-8450000D01*
X22375000Y-8885000D02*
X22375000Y-9015000D01*
X22310000Y-8950000D02*
X22440000Y-8950000D01*
X22375000Y-9785000D02*
X22375000Y-9915000D01*
X22310000Y-9850000D02*
X22440000Y-9850000D01*
X22375000Y-10285000D02*
X22375000Y-10415000D01*
X22310000Y-10350000D02*
X22440000Y-10350000D01*
X22375000Y-11185000D02*
X22375000Y-11315000D01*
X22310000Y-11250000D02*
X22440000Y-11250000D01*
X22375000Y-11685000D02*
X22375000Y-11815000D01*
X22310000Y-11750000D02*
X22440000Y-11750000D01*
X23625000Y-4185000D02*
X23625000Y-4315000D01*
X23560000Y-4250000D02*
X23690000Y-4250000D01*
X23625000Y-4685000D02*
X23625000Y-4815000D01*
X23560000Y-4750000D02*
X23690000Y-4750000D01*
X23625000Y-5585000D02*
X23625000Y-5715000D01*
X23560000Y-5650000D02*
X23690000Y-5650000D01*
X23625000Y-6085000D02*
X23625000Y-6215000D01*
X23560000Y-6150000D02*
X23690000Y-6150000D01*
X23625000Y-6985000D02*
X23625000Y-7115000D01*
X23560000Y-7050000D02*
X23690000Y-7050000D01*
X23625000Y-7485000D02*
X23625000Y-7615000D01*
X23560000Y-7550000D02*
X23690000Y-7550000D01*
X23625000Y-8385000D02*
X23625000Y-8515000D01*
X23560000Y-8450000D02*
X23690000Y-8450000D01*
X23625000Y-8885000D02*
X23625000Y-9015000D01*
X23560000Y-8950000D02*
X23690000Y-8950000D01*
X23625000Y-9785000D02*
X23625000Y-9915000D01*
X23560000Y-9850000D02*
X23690000Y-9850000D01*
X23625000Y-10285000D02*
X23625000Y-10415000D01*
X23560000Y-10350000D02*
X23690000Y-10350000D01*
X23625000Y-11185000D02*
X23625000Y-11315000D01*
X23560000Y-11250000D02*
X23690000Y-11250000D01*
X23625000Y-11685000D02*
X23625000Y-11815000D01*
X23560000Y-11750000D02*
X23690000Y-11750000D01*
D15*
X6813152Y-3513152D02*
X6813152Y-3286848D01*
X6586848Y-3286848D01*
X6586848Y-3513152D01*
X6813152Y-3513152D01*
X6813152Y-12713152D02*
X6813152Y-12486848D01*
X6586848Y-12486848D01*
X6586848Y-12713152D01*
X6813152Y-12713152D01*
X15913152Y-3513152D02*
X15913152Y-3286848D01*
X15686848Y-3286848D01*
X15686848Y-3513152D01*
X15913152Y-3513152D01*
X15913152Y-12713152D02*
X15913152Y-12486848D01*
X15686848Y-12486848D01*
X15686848Y-12713152D01*
X15913152Y-12713152D01*
X25013152Y-3513152D02*
X25013152Y-3286848D01*
X24786848Y-3286848D01*
X24786848Y-3513152D01*
X25013152Y-3513152D01*
X25013152Y-12713152D02*
X25013152Y-12486848D01*
X24786848Y-12486848D01*
X24786848Y-12713152D01*
X25013152Y-12713152D01*
D11*
X6552619Y-13315476D02*
X6552619Y-13115476D01*
X6600238Y-13115476D01*
X6628809Y-13125000D01*
X6647857Y-13144048D01*
X6657381Y-13163095D01*
X6666905Y-13201190D01*
X6666905Y-13229762D01*
X6657381Y-13267857D01*
X6647857Y-13286905D01*
X6628809Y-13305952D01*
X6600238Y-13315476D01*
X6552619Y-13315476D01*
X6752619Y-13315476D02*
X6752619Y-13182143D01*
X6752619Y-13220238D02*
X6762143Y-13201190D01*
X6771667Y-13191667D01*
X6790714Y-13182143D01*
X6809762Y-13182143D01*
X6876428Y-13315476D02*
X6876428Y-13182143D01*
X6876428Y-13115476D02*
X6866905Y-13125000D01*
X6876428Y-13134524D01*
X6885952Y-13125000D01*
X6876428Y-13115476D01*
X6876428Y-13134524D01*
X7000238Y-13315476D02*
X6981190Y-13305952D01*
X6971667Y-13286905D01*
X6971667Y-13115476D01*
X7105000Y-13315476D02*
X7085952Y-13305952D01*
X7076428Y-13286905D01*
X7076428Y-13115476D01*
X7333571Y-13315476D02*
X7333571Y-13115476D01*
X7400238Y-13258333D01*
X7466905Y-13115476D01*
X7466905Y-13315476D01*
X7647857Y-13315476D02*
X7647857Y-13210714D01*
X7638333Y-13191667D01*
X7619286Y-13182143D01*
X7581190Y-13182143D01*
X7562143Y-13191667D01*
X7647857Y-13305952D02*
X7628809Y-13315476D01*
X7581190Y-13315476D01*
X7562143Y-13305952D01*
X7552619Y-13286905D01*
X7552619Y-13267857D01*
X7562143Y-13248809D01*
X7581190Y-13239286D01*
X7628809Y-13239286D01*
X7647857Y-13229762D01*
X7743095Y-13182143D02*
X7743095Y-13382143D01*
X7743095Y-13191667D02*
X7762143Y-13182143D01*
X7800238Y-13182143D01*
X7819286Y-13191667D01*
X7828809Y-13201190D01*
X7838333Y-13220238D01*
X7838333Y-13277381D01*
X7828809Y-13296428D01*
X7819286Y-13305952D01*
X7800238Y-13315476D01*
X7762143Y-13315476D01*
X7743095Y-13305952D01*
X7924048Y-13296428D02*
X7933571Y-13305952D01*
X7924048Y-13315476D01*
X7914524Y-13305952D01*
X7924048Y-13296428D01*
X7924048Y-13315476D01*
X7924048Y-13191667D02*
X7933571Y-13201190D01*
X7924048Y-13210714D01*
X7914524Y-13201190D01*
X7924048Y-13191667D01*
X7924048Y-13210714D01*
D12*
X6195000Y-13595000D02*
X6295000Y-13695000D01*
X6295000Y-13595000D02*
X6195000Y-13695000D01*
D11*
X6657381Y-13735476D02*
X6543095Y-13735476D01*
X6600238Y-13735476D02*
X6600238Y-13535476D01*
X6581190Y-13564048D01*
X6562143Y-13583095D01*
X6543095Y-13592619D01*
X6743095Y-13716428D02*
X6752619Y-13725952D01*
X6743095Y-13735476D01*
X6733571Y-13725952D01*
X6743095Y-13716428D01*
X6743095Y-13735476D01*
X6876428Y-13535476D02*
X6895476Y-13535476D01*
X6914524Y-13545000D01*
X6924048Y-13554524D01*
X6933571Y-13573571D01*
X6943095Y-13611667D01*
X6943095Y-13659286D01*
X6933571Y-13697381D01*
X6924048Y-13716428D01*
X6914524Y-13725952D01*
X6895476Y-13735476D01*
X6876428Y-13735476D01*
X6857381Y-13725952D01*
X6847857Y-13716428D01*
X6838333Y-13697381D01*
X6828809Y-13659286D01*
X6828809Y-13611667D01*
X6838333Y-13573571D01*
X6847857Y-13554524D01*
X6857381Y-13545000D01*
X6876428Y-13535476D01*
X7066905Y-13535476D02*
X7085952Y-13535476D01*
X7105000Y-13545000D01*
X7114524Y-13554524D01*
X7124048Y-13573571D01*
X7133571Y-13611667D01*
X7133571Y-13659286D01*
X7124048Y-13697381D01*
X7114524Y-13716428D01*
X7105000Y-13725952D01*
X7085952Y-13735476D01*
X7066905Y-13735476D01*
X7047857Y-13725952D01*
X7038333Y-13716428D01*
X7028809Y-13697381D01*
X7019286Y-13659286D01*
X7019286Y-13611667D01*
X7028809Y-13573571D01*
X7038333Y-13554524D01*
X7047857Y-13545000D01*
X7066905Y-13535476D01*
X7257381Y-13535476D02*
X7276428Y-13535476D01*
X7295476Y-13545000D01*
X7305000Y-13554524D01*
X7314524Y-13573571D01*
X7324048Y-13611667D01*
X7324048Y-13659286D01*
X7314524Y-13697381D01*
X7305000Y-13716428D01*
X7295476Y-13725952D01*
X7276428Y-13735476D01*
X7257381Y-13735476D01*
X7238333Y-13725952D01*
X7228809Y-13716428D01*
X7219286Y-13697381D01*
X7209762Y-13659286D01*
X7209762Y-13611667D01*
X7219286Y-13573571D01*
X7228809Y-13554524D01*
X7238333Y-13545000D01*
X7257381Y-13535476D01*
X7409762Y-13735476D02*
X7409762Y-13602143D01*
X7409762Y-13621190D02*
X7419286Y-13611667D01*
X7438333Y-13602143D01*
X7466905Y-13602143D01*
X7485952Y-13611667D01*
X7495476Y-13630714D01*
X7495476Y-13735476D01*
X7495476Y-13630714D02*
X7505000Y-13611667D01*
X7524048Y-13602143D01*
X7552619Y-13602143D01*
X7571667Y-13611667D01*
X7581190Y-13630714D01*
X7581190Y-13735476D01*
X7676428Y-13735476D02*
X7676428Y-13602143D01*
X7676428Y-13621190D02*
X7685952Y-13611667D01*
X7705000Y-13602143D01*
X7733571Y-13602143D01*
X7752619Y-13611667D01*
X7762143Y-13630714D01*
X7762143Y-13735476D01*
X7762143Y-13630714D02*
X7771667Y-13611667D01*
X7790714Y-13602143D01*
X7819286Y-13602143D01*
X7838333Y-13611667D01*
X7847857Y-13630714D01*
X7847857Y-13735476D01*
X8238333Y-13525952D02*
X8066905Y-13783095D01*
X8495476Y-13535476D02*
X8514524Y-13535476D01*
X8533571Y-13545000D01*
X8543095Y-13554524D01*
X8552619Y-13573571D01*
X8562143Y-13611667D01*
X8562143Y-13659286D01*
X8552619Y-13697381D01*
X8543095Y-13716428D01*
X8533571Y-13725952D01*
X8514524Y-13735476D01*
X8495476Y-13735476D01*
X8476429Y-13725952D01*
X8466905Y-13716428D01*
X8457381Y-13697381D01*
X8447857Y-13659286D01*
X8447857Y-13611667D01*
X8457381Y-13573571D01*
X8466905Y-13554524D01*
X8476429Y-13545000D01*
X8495476Y-13535476D01*
X8647857Y-13716428D02*
X8657381Y-13725952D01*
X8647857Y-13735476D01*
X8638333Y-13725952D01*
X8647857Y-13716428D01*
X8647857Y-13735476D01*
X8781190Y-13535476D02*
X8800238Y-13535476D01*
X8819286Y-13545000D01*
X8828810Y-13554524D01*
X8838333Y-13573571D01*
X8847857Y-13611667D01*
X8847857Y-13659286D01*
X8838333Y-13697381D01*
X8828810Y-13716428D01*
X8819286Y-13725952D01*
X8800238Y-13735476D01*
X8781190Y-13735476D01*
X8762143Y-13725952D01*
X8752619Y-13716428D01*
X8743095Y-13697381D01*
X8733571Y-13659286D01*
X8733571Y-13611667D01*
X8743095Y-13573571D01*
X8752619Y-13554524D01*
X8762143Y-13545000D01*
X8781190Y-13535476D01*
X8914524Y-13535476D02*
X9038333Y-13535476D01*
X8971667Y-13611667D01*
X9000238Y-13611667D01*
X9019286Y-13621190D01*
X9028810Y-13630714D01*
X9038333Y-13649762D01*
X9038333Y-13697381D01*
X9028810Y-13716428D01*
X9019286Y-13725952D01*
X9000238Y-13735476D01*
X8943095Y-13735476D01*
X8924048Y-13725952D01*
X8914524Y-13716428D01*
X9133571Y-13735476D02*
X9171667Y-13735476D01*
X9190714Y-13725952D01*
X9200238Y-13716428D01*
X9219286Y-13687857D01*
X9228810Y-13649762D01*
X9228810Y-13573571D01*
X9219286Y-13554524D01*
X9209762Y-13545000D01*
X9190714Y-13535476D01*
X9152619Y-13535476D01*
X9133571Y-13545000D01*
X9124048Y-13554524D01*
X9114524Y-13573571D01*
X9114524Y-13621190D01*
X9124048Y-13640238D01*
X9133571Y-13649762D01*
X9152619Y-13659286D01*
X9190714Y-13659286D01*
X9209762Y-13649762D01*
X9219286Y-13640238D01*
X9228810Y-13621190D01*
X9400238Y-13602143D02*
X9400238Y-13735476D01*
X9352619Y-13525952D02*
X9305000Y-13668809D01*
X9428810Y-13668809D01*
X9495476Y-13535476D02*
X9495476Y-13573571D01*
X9571667Y-13535476D02*
X9571667Y-13573571D01*
X9866905Y-13811667D02*
X9857381Y-13802143D01*
X9838333Y-13773571D01*
X9828810Y-13754524D01*
X9819286Y-13725952D01*
X9809762Y-13678333D01*
X9809762Y-13640238D01*
X9819286Y-13592619D01*
X9828810Y-13564048D01*
X9838333Y-13545000D01*
X9857381Y-13516428D01*
X9866905Y-13506905D01*
X9933571Y-13554524D02*
X9943095Y-13545000D01*
X9962143Y-13535476D01*
X10009762Y-13535476D01*
X10028810Y-13545000D01*
X10038333Y-13554524D01*
X10047857Y-13573571D01*
X10047857Y-13592619D01*
X10038333Y-13621190D01*
X9924048Y-13735476D01*
X10047857Y-13735476D01*
X10171667Y-13535476D02*
X10190714Y-13535476D01*
X10209762Y-13545000D01*
X10219286Y-13554524D01*
X10228810Y-13573571D01*
X10238333Y-13611667D01*
X10238333Y-13659286D01*
X10228810Y-13697381D01*
X10219286Y-13716428D01*
X10209762Y-13725952D01*
X10190714Y-13735476D01*
X10171667Y-13735476D01*
X10152619Y-13725952D01*
X10143095Y-13716428D01*
X10133571Y-13697381D01*
X10124048Y-13659286D01*
X10124048Y-13611667D01*
X10133571Y-13573571D01*
X10143095Y-13554524D01*
X10152619Y-13545000D01*
X10171667Y-13535476D01*
X10476429Y-13735476D02*
X10476429Y-13535476D01*
X10562143Y-13735476D02*
X10562143Y-13630714D01*
X10552619Y-13611667D01*
X10533571Y-13602143D01*
X10505000Y-13602143D01*
X10485952Y-13611667D01*
X10476429Y-13621190D01*
X10685952Y-13735476D02*
X10666905Y-13725952D01*
X10657381Y-13716428D01*
X10647857Y-13697381D01*
X10647857Y-13640238D01*
X10657381Y-13621190D01*
X10666905Y-13611667D01*
X10685952Y-13602143D01*
X10714524Y-13602143D01*
X10733571Y-13611667D01*
X10743095Y-13621190D01*
X10752619Y-13640238D01*
X10752619Y-13697381D01*
X10743095Y-13716428D01*
X10733571Y-13725952D01*
X10714524Y-13735476D01*
X10685952Y-13735476D01*
X10866905Y-13735476D02*
X10847857Y-13725952D01*
X10838333Y-13706905D01*
X10838333Y-13535476D01*
X11019286Y-13725952D02*
X11000238Y-13735476D01*
X10962143Y-13735476D01*
X10943095Y-13725952D01*
X10933571Y-13706905D01*
X10933571Y-13630714D01*
X10943095Y-13611667D01*
X10962143Y-13602143D01*
X11000238Y-13602143D01*
X11019286Y-13611667D01*
X11028810Y-13630714D01*
X11028810Y-13649762D01*
X10933571Y-13668809D01*
X11105000Y-13725952D02*
X11124048Y-13735476D01*
X11162143Y-13735476D01*
X11181190Y-13725952D01*
X11190714Y-13706905D01*
X11190714Y-13697381D01*
X11181190Y-13678333D01*
X11162143Y-13668809D01*
X11133571Y-13668809D01*
X11114524Y-13659286D01*
X11105000Y-13640238D01*
X11105000Y-13630714D01*
X11114524Y-13611667D01*
X11133571Y-13602143D01*
X11162143Y-13602143D01*
X11181190Y-13611667D01*
X11257381Y-13811667D02*
X11266905Y-13802143D01*
X11285952Y-13773571D01*
X11295476Y-13754524D01*
X11305000Y-13725952D01*
X11314524Y-13678333D01*
X11314524Y-13640238D01*
X11305000Y-13592619D01*
X11295476Y-13564048D01*
X11285952Y-13545000D01*
X11266905Y-13516428D01*
X11257381Y-13506905D01*
D13*
X6295000Y-13909000D02*
G75*
G03*
X6295000Y-13909000I-60000J0D01*
G01*
D11*
X6657381Y-13999476D02*
X6543095Y-13999476D01*
X6600238Y-13999476D02*
X6600238Y-13799476D01*
X6581190Y-13828048D01*
X6562143Y-13847095D01*
X6543095Y-13856619D01*
X6743095Y-13980428D02*
X6752619Y-13989952D01*
X6743095Y-13999476D01*
X6733571Y-13989952D01*
X6743095Y-13980428D01*
X6743095Y-13999476D01*
X6828809Y-13818524D02*
X6838333Y-13809000D01*
X6857381Y-13799476D01*
X6905000Y-13799476D01*
X6924048Y-13809000D01*
X6933571Y-13818524D01*
X6943095Y-13837571D01*
X6943095Y-13856619D01*
X6933571Y-13885190D01*
X6819286Y-13999476D01*
X6943095Y-13999476D01*
X7066905Y-13799476D02*
X7085952Y-13799476D01*
X7105000Y-13809000D01*
X7114524Y-13818524D01*
X7124048Y-13837571D01*
X7133571Y-13875667D01*
X7133571Y-13923286D01*
X7124048Y-13961381D01*
X7114524Y-13980428D01*
X7105000Y-13989952D01*
X7085952Y-13999476D01*
X7066905Y-13999476D01*
X7047857Y-13989952D01*
X7038333Y-13980428D01*
X7028809Y-13961381D01*
X7019286Y-13923286D01*
X7019286Y-13875667D01*
X7028809Y-13837571D01*
X7038333Y-13818524D01*
X7047857Y-13809000D01*
X7066905Y-13799476D01*
X7257381Y-13799476D02*
X7276428Y-13799476D01*
X7295476Y-13809000D01*
X7305000Y-13818524D01*
X7314524Y-13837571D01*
X7324048Y-13875667D01*
X7324048Y-13923286D01*
X7314524Y-13961381D01*
X7305000Y-13980428D01*
X7295476Y-13989952D01*
X7276428Y-13999476D01*
X7257381Y-13999476D01*
X7238333Y-13989952D01*
X7228809Y-13980428D01*
X7219286Y-13961381D01*
X7209762Y-13923286D01*
X7209762Y-13875667D01*
X7219286Y-13837571D01*
X7228809Y-13818524D01*
X7238333Y-13809000D01*
X7257381Y-13799476D01*
X7409762Y-13999476D02*
X7409762Y-13866143D01*
X7409762Y-13885190D02*
X7419286Y-13875667D01*
X7438333Y-13866143D01*
X7466905Y-13866143D01*
X7485952Y-13875667D01*
X7495476Y-13894714D01*
X7495476Y-13999476D01*
X7495476Y-13894714D02*
X7505000Y-13875667D01*
X7524048Y-13866143D01*
X7552619Y-13866143D01*
X7571667Y-13875667D01*
X7581190Y-13894714D01*
X7581190Y-13999476D01*
X7676428Y-13999476D02*
X7676428Y-13866143D01*
X7676428Y-13885190D02*
X7685952Y-13875667D01*
X7705000Y-13866143D01*
X7733571Y-13866143D01*
X7752619Y-13875667D01*
X7762143Y-13894714D01*
X7762143Y-13999476D01*
X7762143Y-13894714D02*
X7771667Y-13875667D01*
X7790714Y-13866143D01*
X7819286Y-13866143D01*
X7838333Y-13875667D01*
X7847857Y-13894714D01*
X7847857Y-13999476D01*
X8238333Y-13789952D02*
X8066905Y-14047095D01*
X8495476Y-13799476D02*
X8514524Y-13799476D01*
X8533571Y-13809000D01*
X8543095Y-13818524D01*
X8552619Y-13837571D01*
X8562143Y-13875667D01*
X8562143Y-13923286D01*
X8552619Y-13961381D01*
X8543095Y-13980428D01*
X8533571Y-13989952D01*
X8514524Y-13999476D01*
X8495476Y-13999476D01*
X8476429Y-13989952D01*
X8466905Y-13980428D01*
X8457381Y-13961381D01*
X8447857Y-13923286D01*
X8447857Y-13875667D01*
X8457381Y-13837571D01*
X8466905Y-13818524D01*
X8476429Y-13809000D01*
X8495476Y-13799476D01*
X8647857Y-13980428D02*
X8657381Y-13989952D01*
X8647857Y-13999476D01*
X8638333Y-13989952D01*
X8647857Y-13980428D01*
X8647857Y-13999476D01*
X8781190Y-13799476D02*
X8800238Y-13799476D01*
X8819286Y-13809000D01*
X8828810Y-13818524D01*
X8838333Y-13837571D01*
X8847857Y-13875667D01*
X8847857Y-13923286D01*
X8838333Y-13961381D01*
X8828810Y-13980428D01*
X8819286Y-13989952D01*
X8800238Y-13999476D01*
X8781190Y-13999476D01*
X8762143Y-13989952D01*
X8752619Y-13980428D01*
X8743095Y-13961381D01*
X8733571Y-13923286D01*
X8733571Y-13875667D01*
X8743095Y-13837571D01*
X8752619Y-13818524D01*
X8762143Y-13809000D01*
X8781190Y-13799476D01*
X9019286Y-13866143D02*
X9019286Y-13999476D01*
X8971667Y-13789952D02*
X8924048Y-13932809D01*
X9047857Y-13932809D01*
X9105000Y-13799476D02*
X9238333Y-13799476D01*
X9152619Y-13999476D01*
X9305000Y-13818524D02*
X9314524Y-13809000D01*
X9333571Y-13799476D01*
X9381190Y-13799476D01*
X9400238Y-13809000D01*
X9409762Y-13818524D01*
X9419286Y-13837571D01*
X9419286Y-13856619D01*
X9409762Y-13885190D01*
X9295476Y-13999476D01*
X9419286Y-13999476D01*
X9495476Y-13799476D02*
X9495476Y-13837571D01*
X9571667Y-13799476D02*
X9571667Y-13837571D01*
X9866905Y-14075667D02*
X9857381Y-14066143D01*
X9838333Y-14037571D01*
X9828810Y-14018524D01*
X9819286Y-13989952D01*
X9809762Y-13942333D01*
X9809762Y-13904238D01*
X9819286Y-13856619D01*
X9828810Y-13828048D01*
X9838333Y-13809000D01*
X9857381Y-13780428D01*
X9866905Y-13770905D01*
X10047857Y-13999476D02*
X9933571Y-13999476D01*
X9990714Y-13999476D02*
X9990714Y-13799476D01*
X9971667Y-13828048D01*
X9952619Y-13847095D01*
X9933571Y-13856619D01*
X10124048Y-13818524D02*
X10133571Y-13809000D01*
X10152619Y-13799476D01*
X10200238Y-13799476D01*
X10219286Y-13809000D01*
X10228810Y-13818524D01*
X10238333Y-13837571D01*
X10238333Y-13856619D01*
X10228810Y-13885190D01*
X10114524Y-13999476D01*
X10238333Y-13999476D01*
X10476429Y-13999476D02*
X10476429Y-13799476D01*
X10562143Y-13999476D02*
X10562143Y-13894714D01*
X10552619Y-13875667D01*
X10533571Y-13866143D01*
X10505000Y-13866143D01*
X10485952Y-13875667D01*
X10476429Y-13885190D01*
X10685952Y-13999476D02*
X10666905Y-13989952D01*
X10657381Y-13980428D01*
X10647857Y-13961381D01*
X10647857Y-13904238D01*
X10657381Y-13885190D01*
X10666905Y-13875667D01*
X10685952Y-13866143D01*
X10714524Y-13866143D01*
X10733571Y-13875667D01*
X10743095Y-13885190D01*
X10752619Y-13904238D01*
X10752619Y-13961381D01*
X10743095Y-13980428D01*
X10733571Y-13989952D01*
X10714524Y-13999476D01*
X10685952Y-13999476D01*
X10866905Y-13999476D02*
X10847857Y-13989952D01*
X10838333Y-13970905D01*
X10838333Y-13799476D01*
X11019286Y-13989952D02*
X11000238Y-13999476D01*
X10962143Y-13999476D01*
X10943095Y-13989952D01*
X10933571Y-13970905D01*
X10933571Y-13894714D01*
X10943095Y-13875667D01*
X10962143Y-13866143D01*
X11000238Y-13866143D01*
X11019286Y-13875667D01*
X11028810Y-13894714D01*
X11028810Y-13913762D01*
X10933571Y-13932809D01*
X11105000Y-13989952D02*
X11124048Y-13999476D01*
X11162143Y-13999476D01*
X11181190Y-13989952D01*
X11190714Y-13970905D01*
X11190714Y-13961381D01*
X11181190Y-13942333D01*
X11162143Y-13932809D01*
X11133571Y-13932809D01*
X11114524Y-13923286D01*
X11105000Y-13904238D01*
X11105000Y-13894714D01*
X11114524Y-13875667D01*
X11133571Y-13866143D01*
X11162143Y-13866143D01*
X11181190Y-13875667D01*
X11257381Y-14075667D02*
X11266905Y-14066143D01*
X11285952Y-14037571D01*
X11295476Y-14018524D01*
X11305000Y-13989952D01*
X11314524Y-13942333D01*
X11314524Y-13904238D01*
X11305000Y-13856619D01*
X11295476Y-13828048D01*
X11285952Y-13809000D01*
X11266905Y-13780428D01*
X11257381Y-13770905D01*
D14*
X6230000Y-14108000D02*
X6230000Y-14238000D01*
X6165000Y-14173000D02*
X6295000Y-14173000D01*
D11*
X6657381Y-14263476D02*
X6543095Y-14263476D01*
X6600238Y-14263476D02*
X6600238Y-14063476D01*
X6581190Y-14092048D01*
X6562143Y-14111095D01*
X6543095Y-14120619D01*
X6743095Y-14244428D02*
X6752619Y-14253952D01*
X6743095Y-14263476D01*
X6733571Y-14253952D01*
X6743095Y-14244428D01*
X6743095Y-14263476D01*
X6819286Y-14063476D02*
X6943095Y-14063476D01*
X6876428Y-14139667D01*
X6905000Y-14139667D01*
X6924048Y-14149190D01*
X6933571Y-14158714D01*
X6943095Y-14177762D01*
X6943095Y-14225381D01*
X6933571Y-14244428D01*
X6924048Y-14253952D01*
X6905000Y-14263476D01*
X6847857Y-14263476D01*
X6828809Y-14253952D01*
X6819286Y-14244428D01*
X7066905Y-14063476D02*
X7085952Y-14063476D01*
X7105000Y-14073000D01*
X7114524Y-14082524D01*
X7124048Y-14101571D01*
X7133571Y-14139667D01*
X7133571Y-14187286D01*
X7124048Y-14225381D01*
X7114524Y-14244428D01*
X7105000Y-14253952D01*
X7085952Y-14263476D01*
X7066905Y-14263476D01*
X7047857Y-14253952D01*
X7038333Y-14244428D01*
X7028809Y-14225381D01*
X7019286Y-14187286D01*
X7019286Y-14139667D01*
X7028809Y-14101571D01*
X7038333Y-14082524D01*
X7047857Y-14073000D01*
X7066905Y-14063476D01*
X7257381Y-14063476D02*
X7276428Y-14063476D01*
X7295476Y-14073000D01*
X7305000Y-14082524D01*
X7314524Y-14101571D01*
X7324048Y-14139667D01*
X7324048Y-14187286D01*
X7314524Y-14225381D01*
X7305000Y-14244428D01*
X7295476Y-14253952D01*
X7276428Y-14263476D01*
X7257381Y-14263476D01*
X7238333Y-14253952D01*
X7228809Y-14244428D01*
X7219286Y-14225381D01*
X7209762Y-14187286D01*
X7209762Y-14139667D01*
X7219286Y-14101571D01*
X7228809Y-14082524D01*
X7238333Y-14073000D01*
X7257381Y-14063476D01*
X7409762Y-14263476D02*
X7409762Y-14130143D01*
X7409762Y-14149190D02*
X7419286Y-14139667D01*
X7438333Y-14130143D01*
X7466905Y-14130143D01*
X7485952Y-14139667D01*
X7495476Y-14158714D01*
X7495476Y-14263476D01*
X7495476Y-14158714D02*
X7505000Y-14139667D01*
X7524048Y-14130143D01*
X7552619Y-14130143D01*
X7571667Y-14139667D01*
X7581190Y-14158714D01*
X7581190Y-14263476D01*
X7676428Y-14263476D02*
X7676428Y-14130143D01*
X7676428Y-14149190D02*
X7685952Y-14139667D01*
X7705000Y-14130143D01*
X7733571Y-14130143D01*
X7752619Y-14139667D01*
X7762143Y-14158714D01*
X7762143Y-14263476D01*
X7762143Y-14158714D02*
X7771667Y-14139667D01*
X7790714Y-14130143D01*
X7819286Y-14130143D01*
X7838333Y-14139667D01*
X7847857Y-14158714D01*
X7847857Y-14263476D01*
X8238333Y-14053952D02*
X8066905Y-14311095D01*
X8495476Y-14063476D02*
X8514524Y-14063476D01*
X8533571Y-14073000D01*
X8543095Y-14082524D01*
X8552619Y-14101571D01*
X8562143Y-14139667D01*
X8562143Y-14187286D01*
X8552619Y-14225381D01*
X8543095Y-14244428D01*
X8533571Y-14253952D01*
X8514524Y-14263476D01*
X8495476Y-14263476D01*
X8476429Y-14253952D01*
X8466905Y-14244428D01*
X8457381Y-14225381D01*
X8447857Y-14187286D01*
X8447857Y-14139667D01*
X8457381Y-14101571D01*
X8466905Y-14082524D01*
X8476429Y-14073000D01*
X8495476Y-14063476D01*
X8647857Y-14244428D02*
X8657381Y-14253952D01*
X8647857Y-14263476D01*
X8638333Y-14253952D01*
X8647857Y-14244428D01*
X8647857Y-14263476D01*
X8781190Y-14063476D02*
X8800238Y-14063476D01*
X8819286Y-14073000D01*
X8828810Y-14082524D01*
X8838333Y-14101571D01*
X8847857Y-14139667D01*
X8847857Y-14187286D01*
X8838333Y-14225381D01*
X8828810Y-14244428D01*
X8819286Y-14253952D01*
X8800238Y-14263476D01*
X8781190Y-14263476D01*
X8762143Y-14253952D01*
X8752619Y-14244428D01*
X8743095Y-14225381D01*
X8733571Y-14187286D01*
X8733571Y-14139667D01*
X8743095Y-14101571D01*
X8752619Y-14082524D01*
X8762143Y-14073000D01*
X8781190Y-14063476D01*
X9028810Y-14063476D02*
X8933571Y-14063476D01*
X8924048Y-14158714D01*
X8933571Y-14149190D01*
X8952619Y-14139667D01*
X9000238Y-14139667D01*
X9019286Y-14149190D01*
X9028810Y-14158714D01*
X9038333Y-14177762D01*
X9038333Y-14225381D01*
X9028810Y-14244428D01*
X9019286Y-14253952D01*
X9000238Y-14263476D01*
X8952619Y-14263476D01*
X8933571Y-14253952D01*
X8924048Y-14244428D01*
X9228810Y-14263476D02*
X9114524Y-14263476D01*
X9171667Y-14263476D02*
X9171667Y-14063476D01*
X9152619Y-14092048D01*
X9133571Y-14111095D01*
X9114524Y-14120619D01*
X9305000Y-14082524D02*
X9314524Y-14073000D01*
X9333571Y-14063476D01*
X9381190Y-14063476D01*
X9400238Y-14073000D01*
X9409762Y-14082524D01*
X9419286Y-14101571D01*
X9419286Y-14120619D01*
X9409762Y-14149190D01*
X9295476Y-14263476D01*
X9419286Y-14263476D01*
X9495476Y-14063476D02*
X9495476Y-14101571D01*
X9571667Y-14063476D02*
X9571667Y-14101571D01*
X9866905Y-14339667D02*
X9857381Y-14330143D01*
X9838333Y-14301571D01*
X9828810Y-14282524D01*
X9819286Y-14253952D01*
X9809762Y-14206333D01*
X9809762Y-14168238D01*
X9819286Y-14120619D01*
X9828810Y-14092048D01*
X9838333Y-14073000D01*
X9857381Y-14044428D01*
X9866905Y-14034905D01*
X9933571Y-14082524D02*
X9943095Y-14073000D01*
X9962143Y-14063476D01*
X10009762Y-14063476D01*
X10028810Y-14073000D01*
X10038333Y-14082524D01*
X10047857Y-14101571D01*
X10047857Y-14120619D01*
X10038333Y-14149190D01*
X9924048Y-14263476D01*
X10047857Y-14263476D01*
X10219286Y-14130143D02*
X10219286Y-14263476D01*
X10171667Y-14053952D02*
X10124048Y-14196809D01*
X10247857Y-14196809D01*
X10362143Y-14063476D02*
X10381190Y-14063476D01*
X10400238Y-14073000D01*
X10409762Y-14082524D01*
X10419286Y-14101571D01*
X10428810Y-14139667D01*
X10428810Y-14187286D01*
X10419286Y-14225381D01*
X10409762Y-14244428D01*
X10400238Y-14253952D01*
X10381190Y-14263476D01*
X10362143Y-14263476D01*
X10343095Y-14253952D01*
X10333571Y-14244428D01*
X10324048Y-14225381D01*
X10314524Y-14187286D01*
X10314524Y-14139667D01*
X10324048Y-14101571D01*
X10333571Y-14082524D01*
X10343095Y-14073000D01*
X10362143Y-14063476D01*
X10666905Y-14263476D02*
X10666905Y-14063476D01*
X10752619Y-14263476D02*
X10752619Y-14158714D01*
X10743095Y-14139667D01*
X10724048Y-14130143D01*
X10695476Y-14130143D01*
X10676429Y-14139667D01*
X10666905Y-14149190D01*
X10876429Y-14263476D02*
X10857381Y-14253952D01*
X10847857Y-14244428D01*
X10838333Y-14225381D01*
X10838333Y-14168238D01*
X10847857Y-14149190D01*
X10857381Y-14139667D01*
X10876429Y-14130143D01*
X10905000Y-14130143D01*
X10924048Y-14139667D01*
X10933571Y-14149190D01*
X10943095Y-14168238D01*
X10943095Y-14225381D01*
X10933571Y-14244428D01*
X10924048Y-14253952D01*
X10905000Y-14263476D01*
X10876429Y-14263476D01*
X11057381Y-14263476D02*
X11038333Y-14253952D01*
X11028810Y-14234905D01*
X11028810Y-14063476D01*
X11209762Y-14253952D02*
X11190714Y-14263476D01*
X11152619Y-14263476D01*
X11133571Y-14253952D01*
X11124048Y-14234905D01*
X11124048Y-14158714D01*
X11133571Y-14139667D01*
X11152619Y-14130143D01*
X11190714Y-14130143D01*
X11209762Y-14139667D01*
X11219286Y-14158714D01*
X11219286Y-14177762D01*
X11124048Y-14196809D01*
X11295476Y-14253952D02*
X11314524Y-14263476D01*
X11352619Y-14263476D01*
X11371667Y-14253952D01*
X11381190Y-14234905D01*
X11381190Y-14225381D01*
X11371667Y-14206333D01*
X11352619Y-14196809D01*
X11324048Y-14196809D01*
X11305000Y-14187286D01*
X11295476Y-14168238D01*
X11295476Y-14158714D01*
X11305000Y-14139667D01*
X11324048Y-14130143D01*
X11352619Y-14130143D01*
X11371667Y-14139667D01*
X11447857Y-14339667D02*
X11457381Y-14330143D01*
X11476428Y-14301571D01*
X11485952Y-14282524D01*
X11495476Y-14253952D01*
X11505000Y-14206333D01*
X11505000Y-14168238D01*
X11495476Y-14120619D01*
X11485952Y-14092048D01*
X11476428Y-14073000D01*
X11457381Y-14044428D01*
X11447857Y-14034905D01*
X6265711Y-14507711D02*
X6265711Y-14366289D01*
X6124289Y-14366289D01*
X6124289Y-14507711D01*
X6265711Y-14507711D01*
X6533571Y-14327476D02*
X6657381Y-14327476D01*
X6590714Y-14403667D01*
X6619286Y-14403667D01*
X6638333Y-14413190D01*
X6647857Y-14422714D01*
X6657381Y-14441762D01*
X6657381Y-14489381D01*
X6647857Y-14508428D01*
X6638333Y-14517952D01*
X6619286Y-14527476D01*
X6562143Y-14527476D01*
X6543095Y-14517952D01*
X6533571Y-14508428D01*
X6743095Y-14508428D02*
X6752619Y-14517952D01*
X6743095Y-14527476D01*
X6733571Y-14517952D01*
X6743095Y-14508428D01*
X6743095Y-14527476D01*
X6828809Y-14346524D02*
X6838333Y-14337000D01*
X6857381Y-14327476D01*
X6905000Y-14327476D01*
X6924048Y-14337000D01*
X6933571Y-14346524D01*
X6943095Y-14365571D01*
X6943095Y-14384619D01*
X6933571Y-14413190D01*
X6819286Y-14527476D01*
X6943095Y-14527476D01*
X7066905Y-14327476D02*
X7085952Y-14327476D01*
X7105000Y-14337000D01*
X7114524Y-14346524D01*
X7124048Y-14365571D01*
X7133571Y-14403667D01*
X7133571Y-14451286D01*
X7124048Y-14489381D01*
X7114524Y-14508428D01*
X7105000Y-14517952D01*
X7085952Y-14527476D01*
X7066905Y-14527476D01*
X7047857Y-14517952D01*
X7038333Y-14508428D01*
X7028809Y-14489381D01*
X7019286Y-14451286D01*
X7019286Y-14403667D01*
X7028809Y-14365571D01*
X7038333Y-14346524D01*
X7047857Y-14337000D01*
X7066905Y-14327476D01*
X7257381Y-14327476D02*
X7276428Y-14327476D01*
X7295476Y-14337000D01*
X7305000Y-14346524D01*
X7314524Y-14365571D01*
X7324048Y-14403667D01*
X7324048Y-14451286D01*
X7314524Y-14489381D01*
X7305000Y-14508428D01*
X7295476Y-14517952D01*
X7276428Y-14527476D01*
X7257381Y-14527476D01*
X7238333Y-14517952D01*
X7228809Y-14508428D01*
X7219286Y-14489381D01*
X7209762Y-14451286D01*
X7209762Y-14403667D01*
X7219286Y-14365571D01*
X7228809Y-14346524D01*
X7238333Y-14337000D01*
X7257381Y-14327476D01*
X7409762Y-14527476D02*
X7409762Y-14394143D01*
X7409762Y-14413190D02*
X7419286Y-14403667D01*
X7438333Y-14394143D01*
X7466905Y-14394143D01*
X7485952Y-14403667D01*
X7495476Y-14422714D01*
X7495476Y-14527476D01*
X7495476Y-14422714D02*
X7505000Y-14403667D01*
X7524048Y-14394143D01*
X7552619Y-14394143D01*
X7571667Y-14403667D01*
X7581190Y-14422714D01*
X7581190Y-14527476D01*
X7676428Y-14527476D02*
X7676428Y-14394143D01*
X7676428Y-14413190D02*
X7685952Y-14403667D01*
X7705000Y-14394143D01*
X7733571Y-14394143D01*
X7752619Y-14403667D01*
X7762143Y-14422714D01*
X7762143Y-14527476D01*
X7762143Y-14422714D02*
X7771667Y-14403667D01*
X7790714Y-14394143D01*
X7819286Y-14394143D01*
X7838333Y-14403667D01*
X7847857Y-14422714D01*
X7847857Y-14527476D01*
X8238333Y-14317952D02*
X8066905Y-14575095D01*
X8495476Y-14327476D02*
X8514524Y-14327476D01*
X8533571Y-14337000D01*
X8543095Y-14346524D01*
X8552619Y-14365571D01*
X8562143Y-14403667D01*
X8562143Y-14451286D01*
X8552619Y-14489381D01*
X8543095Y-14508428D01*
X8533571Y-14517952D01*
X8514524Y-14527476D01*
X8495476Y-14527476D01*
X8476429Y-14517952D01*
X8466905Y-14508428D01*
X8457381Y-14489381D01*
X8447857Y-14451286D01*
X8447857Y-14403667D01*
X8457381Y-14365571D01*
X8466905Y-14346524D01*
X8476429Y-14337000D01*
X8495476Y-14327476D01*
X8647857Y-14508428D02*
X8657381Y-14517952D01*
X8647857Y-14527476D01*
X8638333Y-14517952D01*
X8647857Y-14508428D01*
X8647857Y-14527476D01*
X8847857Y-14527476D02*
X8733571Y-14527476D01*
X8790714Y-14527476D02*
X8790714Y-14327476D01*
X8771667Y-14356048D01*
X8752619Y-14375095D01*
X8733571Y-14384619D01*
X8924048Y-14346524D02*
X8933571Y-14337000D01*
X8952619Y-14327476D01*
X9000238Y-14327476D01*
X9019286Y-14337000D01*
X9028810Y-14346524D01*
X9038333Y-14365571D01*
X9038333Y-14384619D01*
X9028810Y-14413190D01*
X8914524Y-14527476D01*
X9038333Y-14527476D01*
X9209762Y-14327476D02*
X9171667Y-14327476D01*
X9152619Y-14337000D01*
X9143095Y-14346524D01*
X9124048Y-14375095D01*
X9114524Y-14413190D01*
X9114524Y-14489381D01*
X9124048Y-14508428D01*
X9133571Y-14517952D01*
X9152619Y-14527476D01*
X9190714Y-14527476D01*
X9209762Y-14517952D01*
X9219286Y-14508428D01*
X9228810Y-14489381D01*
X9228810Y-14441762D01*
X9219286Y-14422714D01*
X9209762Y-14413190D01*
X9190714Y-14403667D01*
X9152619Y-14403667D01*
X9133571Y-14413190D01*
X9124048Y-14422714D01*
X9114524Y-14441762D01*
X9352619Y-14327476D02*
X9371667Y-14327476D01*
X9390714Y-14337000D01*
X9400238Y-14346524D01*
X9409762Y-14365571D01*
X9419286Y-14403667D01*
X9419286Y-14451286D01*
X9409762Y-14489381D01*
X9400238Y-14508428D01*
X9390714Y-14517952D01*
X9371667Y-14527476D01*
X9352619Y-14527476D01*
X9333571Y-14517952D01*
X9324048Y-14508428D01*
X9314524Y-14489381D01*
X9305000Y-14451286D01*
X9305000Y-14403667D01*
X9314524Y-14365571D01*
X9324048Y-14346524D01*
X9333571Y-14337000D01*
X9352619Y-14327476D01*
X9495476Y-14327476D02*
X9495476Y-14365571D01*
X9571667Y-14327476D02*
X9571667Y-14365571D01*
X9866905Y-14603667D02*
X9857381Y-14594143D01*
X9838333Y-14565571D01*
X9828810Y-14546524D01*
X9819286Y-14517952D01*
X9809762Y-14470333D01*
X9809762Y-14432238D01*
X9819286Y-14384619D01*
X9828810Y-14356048D01*
X9838333Y-14337000D01*
X9857381Y-14308428D01*
X9866905Y-14298905D01*
X10028810Y-14327476D02*
X9990714Y-14327476D01*
X9971667Y-14337000D01*
X9962143Y-14346524D01*
X9943095Y-14375095D01*
X9933571Y-14413190D01*
X9933571Y-14489381D01*
X9943095Y-14508428D01*
X9952619Y-14517952D01*
X9971667Y-14527476D01*
X10009762Y-14527476D01*
X10028810Y-14517952D01*
X10038333Y-14508428D01*
X10047857Y-14489381D01*
X10047857Y-14441762D01*
X10038333Y-14422714D01*
X10028810Y-14413190D01*
X10009762Y-14403667D01*
X9971667Y-14403667D01*
X9952619Y-14413190D01*
X9943095Y-14422714D01*
X9933571Y-14441762D01*
X10285952Y-14527476D02*
X10285952Y-14327476D01*
X10371667Y-14527476D02*
X10371667Y-14422714D01*
X10362143Y-14403667D01*
X10343095Y-14394143D01*
X10314524Y-14394143D01*
X10295476Y-14403667D01*
X10285952Y-14413190D01*
X10495476Y-14527476D02*
X10476429Y-14517952D01*
X10466905Y-14508428D01*
X10457381Y-14489381D01*
X10457381Y-14432238D01*
X10466905Y-14413190D01*
X10476429Y-14403667D01*
X10495476Y-14394143D01*
X10524048Y-14394143D01*
X10543095Y-14403667D01*
X10552619Y-14413190D01*
X10562143Y-14432238D01*
X10562143Y-14489381D01*
X10552619Y-14508428D01*
X10543095Y-14517952D01*
X10524048Y-14527476D01*
X10495476Y-14527476D01*
X10676429Y-14527476D02*
X10657381Y-14517952D01*
X10647857Y-14498905D01*
X10647857Y-14327476D01*
X10828810Y-14517952D02*
X10809762Y-14527476D01*
X10771667Y-14527476D01*
X10752619Y-14517952D01*
X10743095Y-14498905D01*
X10743095Y-14422714D01*
X10752619Y-14403667D01*
X10771667Y-14394143D01*
X10809762Y-14394143D01*
X10828810Y-14403667D01*
X10838333Y-14422714D01*
X10838333Y-14441762D01*
X10743095Y-14460809D01*
X10914524Y-14517952D02*
X10933571Y-14527476D01*
X10971667Y-14527476D01*
X10990714Y-14517952D01*
X11000238Y-14498905D01*
X11000238Y-14489381D01*
X10990714Y-14470333D01*
X10971667Y-14460809D01*
X10943095Y-14460809D01*
X10924048Y-14451286D01*
X10914524Y-14432238D01*
X10914524Y-14422714D01*
X10924048Y-14403667D01*
X10943095Y-14394143D01*
X10971667Y-14394143D01*
X10990714Y-14403667D01*
X11066905Y-14603667D02*
X11076429Y-14594143D01*
X11095476Y-14565571D01*
X11105000Y-14546524D01*
X11114524Y-14517952D01*
X11124048Y-14470333D01*
X11124048Y-14432238D01*
X11114524Y-14384619D01*
X11105000Y-14356048D01*
X11095476Y-14337000D01*
X11076429Y-14308428D01*
X11066905Y-14298905D01*
M02*
