%TF.GenerationSoftware,KiCad,Pcbnew,6.0.0-rc2-1.20211220git160328a.fc35*%
%TF.CreationDate,2022-01-03T09:57:57+00:00*%
%TF.ProjectId,Keypad_6x11,4b657970-6164-45f3-9678-31312e6b6963,rev?*%
%TF.SameCoordinates,Original*%
%TF.FileFunction,Legend,Top*%
%TF.FilePolarity,Positive*%
%FSLAX46Y46*%
G04 Gerber Fmt 4.6, Leading zero omitted, Abs format (unit mm)*
G04 Created by KiCad (PCBNEW 6.0.0-rc2-1.20211220git160328a.fc35) date 2022-01-03 09:57:57*
%MOMM*%
%LPD*%
G01*
G04 APERTURE LIST*
G04 Aperture macros list*
%AMRoundRect*
0 Rectangle with rounded corners*
0 $1 Rounding radius*
0 $2 $3 $4 $5 $6 $7 $8 $9 X,Y pos of 4 corners*
0 Add a 4 corners polygon primitive as box body*
4,1,4,$2,$3,$4,$5,$6,$7,$8,$9,$2,$3,0*
0 Add four circle primitives for the rounded corners*
1,1,$1+$1,$2,$3*
1,1,$1+$1,$4,$5*
1,1,$1+$1,$6,$7*
1,1,$1+$1,$8,$9*
0 Add four rect primitives between the rounded corners*
20,1,$1+$1,$2,$3,$4,$5,0*
20,1,$1+$1,$4,$5,$6,$7,0*
20,1,$1+$1,$6,$7,$8,$9,0*
20,1,$1+$1,$8,$9,$2,$3,0*%
G04 Aperture macros list end*
%ADD10C,0.150000*%
%ADD11C,0.120000*%
%ADD12C,4.201160*%
%ADD13O,2.750000X1.850000*%
%ADD14R,2.400000X2.400000*%
%ADD15C,2.400000*%
%ADD16RoundRect,0.250000X0.600000X0.600000X-0.600000X0.600000X-0.600000X-0.600000X0.600000X-0.600000X0*%
%ADD17C,1.700000*%
G04 APERTURE END LIST*
D10*
X148190476Y-66404761D02*
X148333333Y-66452380D01*
X148571428Y-66452380D01*
X148666666Y-66404761D01*
X148714285Y-66357142D01*
X148761904Y-66261904D01*
X148761904Y-66166666D01*
X148714285Y-66071428D01*
X148666666Y-66023809D01*
X148571428Y-65976190D01*
X148380952Y-65928571D01*
X148285714Y-65880952D01*
X148238095Y-65833333D01*
X148190476Y-65738095D01*
X148190476Y-65642857D01*
X148238095Y-65547619D01*
X148285714Y-65500000D01*
X148380952Y-65452380D01*
X148619047Y-65452380D01*
X148761904Y-65500000D01*
X149095238Y-65452380D02*
X149333333Y-66452380D01*
X149523809Y-65738095D01*
X149714285Y-66452380D01*
X149952380Y-65452380D01*
X150285714Y-65547619D02*
X150333333Y-65500000D01*
X150428571Y-65452380D01*
X150666666Y-65452380D01*
X150761904Y-65500000D01*
X150809523Y-65547619D01*
X150857142Y-65642857D01*
X150857142Y-65738095D01*
X150809523Y-65880952D01*
X150238095Y-66452380D01*
X150857142Y-66452380D01*
X151190476Y-65452380D02*
X151857142Y-65452380D01*
X151428571Y-66452380D01*
X180190476Y-52404761D02*
X180333333Y-52452380D01*
X180571428Y-52452380D01*
X180666666Y-52404761D01*
X180714285Y-52357142D01*
X180761904Y-52261904D01*
X180761904Y-52166666D01*
X180714285Y-52071428D01*
X180666666Y-52023809D01*
X180571428Y-51976190D01*
X180380952Y-51928571D01*
X180285714Y-51880952D01*
X180238095Y-51833333D01*
X180190476Y-51738095D01*
X180190476Y-51642857D01*
X180238095Y-51547619D01*
X180285714Y-51500000D01*
X180380952Y-51452380D01*
X180619047Y-51452380D01*
X180761904Y-51500000D01*
X181095238Y-51452380D02*
X181333333Y-52452380D01*
X181523809Y-51738095D01*
X181714285Y-52452380D01*
X181952380Y-51452380D01*
X182857142Y-52452380D02*
X182285714Y-52452380D01*
X182571428Y-52452380D02*
X182571428Y-51452380D01*
X182476190Y-51595238D01*
X182380952Y-51690476D01*
X182285714Y-51738095D01*
X183428571Y-51880952D02*
X183333333Y-51833333D01*
X183285714Y-51785714D01*
X183238095Y-51690476D01*
X183238095Y-51642857D01*
X183285714Y-51547619D01*
X183333333Y-51500000D01*
X183428571Y-51452380D01*
X183619047Y-51452380D01*
X183714285Y-51500000D01*
X183761904Y-51547619D01*
X183809523Y-51642857D01*
X183809523Y-51690476D01*
X183761904Y-51785714D01*
X183714285Y-51833333D01*
X183619047Y-51880952D01*
X183428571Y-51880952D01*
X183333333Y-51928571D01*
X183285714Y-51976190D01*
X183238095Y-52071428D01*
X183238095Y-52261904D01*
X183285714Y-52357142D01*
X183333333Y-52404761D01*
X183428571Y-52452380D01*
X183619047Y-52452380D01*
X183714285Y-52404761D01*
X183761904Y-52357142D01*
X183809523Y-52261904D01*
X183809523Y-52071428D01*
X183761904Y-51976190D01*
X183714285Y-51928571D01*
X183619047Y-51880952D01*
X212190476Y-80404761D02*
X212333333Y-80452380D01*
X212571428Y-80452380D01*
X212666666Y-80404761D01*
X212714285Y-80357142D01*
X212761904Y-80261904D01*
X212761904Y-80166666D01*
X212714285Y-80071428D01*
X212666666Y-80023809D01*
X212571428Y-79976190D01*
X212380952Y-79928571D01*
X212285714Y-79880952D01*
X212238095Y-79833333D01*
X212190476Y-79738095D01*
X212190476Y-79642857D01*
X212238095Y-79547619D01*
X212285714Y-79500000D01*
X212380952Y-79452380D01*
X212619047Y-79452380D01*
X212761904Y-79500000D01*
X213095238Y-79452380D02*
X213333333Y-80452380D01*
X213523809Y-79738095D01*
X213714285Y-80452380D01*
X213952380Y-79452380D01*
X214761904Y-79785714D02*
X214761904Y-80452380D01*
X214523809Y-79404761D02*
X214285714Y-80119047D01*
X214904761Y-80119047D01*
X215238095Y-79547619D02*
X215285714Y-79500000D01*
X215380952Y-79452380D01*
X215619047Y-79452380D01*
X215714285Y-79500000D01*
X215761904Y-79547619D01*
X215809523Y-79642857D01*
X215809523Y-79738095D01*
X215761904Y-79880952D01*
X215190476Y-80452380D01*
X215809523Y-80452380D01*
X100666666Y-38404761D02*
X100809523Y-38452380D01*
X101047619Y-38452380D01*
X101142857Y-38404761D01*
X101190476Y-38357142D01*
X101238095Y-38261904D01*
X101238095Y-38166666D01*
X101190476Y-38071428D01*
X101142857Y-38023809D01*
X101047619Y-37976190D01*
X100857142Y-37928571D01*
X100761904Y-37880952D01*
X100714285Y-37833333D01*
X100666666Y-37738095D01*
X100666666Y-37642857D01*
X100714285Y-37547619D01*
X100761904Y-37500000D01*
X100857142Y-37452380D01*
X101095238Y-37452380D01*
X101238095Y-37500000D01*
X101571428Y-37452380D02*
X101809523Y-38452380D01*
X102000000Y-37738095D01*
X102190476Y-38452380D01*
X102428571Y-37452380D01*
X102761904Y-37547619D02*
X102809523Y-37500000D01*
X102904761Y-37452380D01*
X103142857Y-37452380D01*
X103238095Y-37500000D01*
X103285714Y-37547619D01*
X103333333Y-37642857D01*
X103333333Y-37738095D01*
X103285714Y-37880952D01*
X102714285Y-38452380D01*
X103333333Y-38452380D01*
X196190476Y-94404761D02*
X196333333Y-94452380D01*
X196571428Y-94452380D01*
X196666666Y-94404761D01*
X196714285Y-94357142D01*
X196761904Y-94261904D01*
X196761904Y-94166666D01*
X196714285Y-94071428D01*
X196666666Y-94023809D01*
X196571428Y-93976190D01*
X196380952Y-93928571D01*
X196285714Y-93880952D01*
X196238095Y-93833333D01*
X196190476Y-93738095D01*
X196190476Y-93642857D01*
X196238095Y-93547619D01*
X196285714Y-93500000D01*
X196380952Y-93452380D01*
X196619047Y-93452380D01*
X196761904Y-93500000D01*
X197095238Y-93452380D02*
X197333333Y-94452380D01*
X197523809Y-93738095D01*
X197714285Y-94452380D01*
X197952380Y-93452380D01*
X198809523Y-93452380D02*
X198333333Y-93452380D01*
X198285714Y-93928571D01*
X198333333Y-93880952D01*
X198428571Y-93833333D01*
X198666666Y-93833333D01*
X198761904Y-93880952D01*
X198809523Y-93928571D01*
X198857142Y-94023809D01*
X198857142Y-94261904D01*
X198809523Y-94357142D01*
X198761904Y-94404761D01*
X198666666Y-94452380D01*
X198428571Y-94452380D01*
X198333333Y-94404761D01*
X198285714Y-94357142D01*
X199238095Y-93547619D02*
X199285714Y-93500000D01*
X199380952Y-93452380D01*
X199619047Y-93452380D01*
X199714285Y-93500000D01*
X199761904Y-93547619D01*
X199809523Y-93642857D01*
X199809523Y-93738095D01*
X199761904Y-93880952D01*
X199190476Y-94452380D01*
X199809523Y-94452380D01*
X116190476Y-94404761D02*
X116333333Y-94452380D01*
X116571428Y-94452380D01*
X116666666Y-94404761D01*
X116714285Y-94357142D01*
X116761904Y-94261904D01*
X116761904Y-94166666D01*
X116714285Y-94071428D01*
X116666666Y-94023809D01*
X116571428Y-93976190D01*
X116380952Y-93928571D01*
X116285714Y-93880952D01*
X116238095Y-93833333D01*
X116190476Y-93738095D01*
X116190476Y-93642857D01*
X116238095Y-93547619D01*
X116285714Y-93500000D01*
X116380952Y-93452380D01*
X116619047Y-93452380D01*
X116761904Y-93500000D01*
X117095238Y-93452380D02*
X117333333Y-94452380D01*
X117523809Y-93738095D01*
X117714285Y-94452380D01*
X117952380Y-93452380D01*
X118761904Y-93785714D02*
X118761904Y-94452380D01*
X118523809Y-93404761D02*
X118285714Y-94119047D01*
X118904761Y-94119047D01*
X119190476Y-93452380D02*
X119857142Y-93452380D01*
X119428571Y-94452380D01*
X164190476Y-80404761D02*
X164333333Y-80452380D01*
X164571428Y-80452380D01*
X164666666Y-80404761D01*
X164714285Y-80357142D01*
X164761904Y-80261904D01*
X164761904Y-80166666D01*
X164714285Y-80071428D01*
X164666666Y-80023809D01*
X164571428Y-79976190D01*
X164380952Y-79928571D01*
X164285714Y-79880952D01*
X164238095Y-79833333D01*
X164190476Y-79738095D01*
X164190476Y-79642857D01*
X164238095Y-79547619D01*
X164285714Y-79500000D01*
X164380952Y-79452380D01*
X164619047Y-79452380D01*
X164761904Y-79500000D01*
X165095238Y-79452380D02*
X165333333Y-80452380D01*
X165523809Y-79738095D01*
X165714285Y-80452380D01*
X165952380Y-79452380D01*
X166238095Y-79452380D02*
X166857142Y-79452380D01*
X166523809Y-79833333D01*
X166666666Y-79833333D01*
X166761904Y-79880952D01*
X166809523Y-79928571D01*
X166857142Y-80023809D01*
X166857142Y-80261904D01*
X166809523Y-80357142D01*
X166761904Y-80404761D01*
X166666666Y-80452380D01*
X166380952Y-80452380D01*
X166285714Y-80404761D01*
X166238095Y-80357142D01*
X167333333Y-80452380D02*
X167523809Y-80452380D01*
X167619047Y-80404761D01*
X167666666Y-80357142D01*
X167761904Y-80214285D01*
X167809523Y-80023809D01*
X167809523Y-79642857D01*
X167761904Y-79547619D01*
X167714285Y-79500000D01*
X167619047Y-79452380D01*
X167428571Y-79452380D01*
X167333333Y-79500000D01*
X167285714Y-79547619D01*
X167238095Y-79642857D01*
X167238095Y-79880952D01*
X167285714Y-79976190D01*
X167333333Y-80023809D01*
X167428571Y-80071428D01*
X167619047Y-80071428D01*
X167714285Y-80023809D01*
X167761904Y-79976190D01*
X167809523Y-79880952D01*
X100190476Y-66404761D02*
X100333333Y-66452380D01*
X100571428Y-66452380D01*
X100666666Y-66404761D01*
X100714285Y-66357142D01*
X100761904Y-66261904D01*
X100761904Y-66166666D01*
X100714285Y-66071428D01*
X100666666Y-66023809D01*
X100571428Y-65976190D01*
X100380952Y-65928571D01*
X100285714Y-65880952D01*
X100238095Y-65833333D01*
X100190476Y-65738095D01*
X100190476Y-65642857D01*
X100238095Y-65547619D01*
X100285714Y-65500000D01*
X100380952Y-65452380D01*
X100619047Y-65452380D01*
X100761904Y-65500000D01*
X101095238Y-65452380D02*
X101333333Y-66452380D01*
X101523809Y-65738095D01*
X101714285Y-66452380D01*
X101952380Y-65452380D01*
X102285714Y-65547619D02*
X102333333Y-65500000D01*
X102428571Y-65452380D01*
X102666666Y-65452380D01*
X102761904Y-65500000D01*
X102809523Y-65547619D01*
X102857142Y-65642857D01*
X102857142Y-65738095D01*
X102809523Y-65880952D01*
X102238095Y-66452380D01*
X102857142Y-66452380D01*
X103714285Y-65785714D02*
X103714285Y-66452380D01*
X103476190Y-65404761D02*
X103238095Y-66119047D01*
X103857142Y-66119047D01*
X100190476Y-94404761D02*
X100333333Y-94452380D01*
X100571428Y-94452380D01*
X100666666Y-94404761D01*
X100714285Y-94357142D01*
X100761904Y-94261904D01*
X100761904Y-94166666D01*
X100714285Y-94071428D01*
X100666666Y-94023809D01*
X100571428Y-93976190D01*
X100380952Y-93928571D01*
X100285714Y-93880952D01*
X100238095Y-93833333D01*
X100190476Y-93738095D01*
X100190476Y-93642857D01*
X100238095Y-93547619D01*
X100285714Y-93500000D01*
X100380952Y-93452380D01*
X100619047Y-93452380D01*
X100761904Y-93500000D01*
X101095238Y-93452380D02*
X101333333Y-94452380D01*
X101523809Y-93738095D01*
X101714285Y-94452380D01*
X101952380Y-93452380D01*
X102761904Y-93785714D02*
X102761904Y-94452380D01*
X102523809Y-93404761D02*
X102285714Y-94119047D01*
X102904761Y-94119047D01*
X103714285Y-93452380D02*
X103523809Y-93452380D01*
X103428571Y-93500000D01*
X103380952Y-93547619D01*
X103285714Y-93690476D01*
X103238095Y-93880952D01*
X103238095Y-94261904D01*
X103285714Y-94357142D01*
X103333333Y-94404761D01*
X103428571Y-94452380D01*
X103619047Y-94452380D01*
X103714285Y-94404761D01*
X103761904Y-94357142D01*
X103809523Y-94261904D01*
X103809523Y-94023809D01*
X103761904Y-93928571D01*
X103714285Y-93880952D01*
X103619047Y-93833333D01*
X103428571Y-93833333D01*
X103333333Y-93880952D01*
X103285714Y-93928571D01*
X103238095Y-94023809D01*
X132190476Y-52404761D02*
X132333333Y-52452380D01*
X132571428Y-52452380D01*
X132666666Y-52404761D01*
X132714285Y-52357142D01*
X132761904Y-52261904D01*
X132761904Y-52166666D01*
X132714285Y-52071428D01*
X132666666Y-52023809D01*
X132571428Y-51976190D01*
X132380952Y-51928571D01*
X132285714Y-51880952D01*
X132238095Y-51833333D01*
X132190476Y-51738095D01*
X132190476Y-51642857D01*
X132238095Y-51547619D01*
X132285714Y-51500000D01*
X132380952Y-51452380D01*
X132619047Y-51452380D01*
X132761904Y-51500000D01*
X133095238Y-51452380D02*
X133333333Y-52452380D01*
X133523809Y-51738095D01*
X133714285Y-52452380D01*
X133952380Y-51452380D01*
X134857142Y-52452380D02*
X134285714Y-52452380D01*
X134571428Y-52452380D02*
X134571428Y-51452380D01*
X134476190Y-51595238D01*
X134380952Y-51690476D01*
X134285714Y-51738095D01*
X135761904Y-51452380D02*
X135285714Y-51452380D01*
X135238095Y-51928571D01*
X135285714Y-51880952D01*
X135380952Y-51833333D01*
X135619047Y-51833333D01*
X135714285Y-51880952D01*
X135761904Y-51928571D01*
X135809523Y-52023809D01*
X135809523Y-52261904D01*
X135761904Y-52357142D01*
X135714285Y-52404761D01*
X135619047Y-52452380D01*
X135380952Y-52452380D01*
X135285714Y-52404761D01*
X135238095Y-52357142D01*
X180190476Y-94404761D02*
X180333333Y-94452380D01*
X180571428Y-94452380D01*
X180666666Y-94404761D01*
X180714285Y-94357142D01*
X180761904Y-94261904D01*
X180761904Y-94166666D01*
X180714285Y-94071428D01*
X180666666Y-94023809D01*
X180571428Y-93976190D01*
X180380952Y-93928571D01*
X180285714Y-93880952D01*
X180238095Y-93833333D01*
X180190476Y-93738095D01*
X180190476Y-93642857D01*
X180238095Y-93547619D01*
X180285714Y-93500000D01*
X180380952Y-93452380D01*
X180619047Y-93452380D01*
X180761904Y-93500000D01*
X181095238Y-93452380D02*
X181333333Y-94452380D01*
X181523809Y-93738095D01*
X181714285Y-94452380D01*
X181952380Y-93452380D01*
X182809523Y-93452380D02*
X182333333Y-93452380D01*
X182285714Y-93928571D01*
X182333333Y-93880952D01*
X182428571Y-93833333D01*
X182666666Y-93833333D01*
X182761904Y-93880952D01*
X182809523Y-93928571D01*
X182857142Y-94023809D01*
X182857142Y-94261904D01*
X182809523Y-94357142D01*
X182761904Y-94404761D01*
X182666666Y-94452380D01*
X182428571Y-94452380D01*
X182333333Y-94404761D01*
X182285714Y-94357142D01*
X183809523Y-94452380D02*
X183238095Y-94452380D01*
X183523809Y-94452380D02*
X183523809Y-93452380D01*
X183428571Y-93595238D01*
X183333333Y-93690476D01*
X183238095Y-93738095D01*
X148190476Y-94404761D02*
X148333333Y-94452380D01*
X148571428Y-94452380D01*
X148666666Y-94404761D01*
X148714285Y-94357142D01*
X148761904Y-94261904D01*
X148761904Y-94166666D01*
X148714285Y-94071428D01*
X148666666Y-94023809D01*
X148571428Y-93976190D01*
X148380952Y-93928571D01*
X148285714Y-93880952D01*
X148238095Y-93833333D01*
X148190476Y-93738095D01*
X148190476Y-93642857D01*
X148238095Y-93547619D01*
X148285714Y-93500000D01*
X148380952Y-93452380D01*
X148619047Y-93452380D01*
X148761904Y-93500000D01*
X149095238Y-93452380D02*
X149333333Y-94452380D01*
X149523809Y-93738095D01*
X149714285Y-94452380D01*
X149952380Y-93452380D01*
X150761904Y-93785714D02*
X150761904Y-94452380D01*
X150523809Y-93404761D02*
X150285714Y-94119047D01*
X150904761Y-94119047D01*
X151333333Y-94452380D02*
X151523809Y-94452380D01*
X151619047Y-94404761D01*
X151666666Y-94357142D01*
X151761904Y-94214285D01*
X151809523Y-94023809D01*
X151809523Y-93642857D01*
X151761904Y-93547619D01*
X151714285Y-93500000D01*
X151619047Y-93452380D01*
X151428571Y-93452380D01*
X151333333Y-93500000D01*
X151285714Y-93547619D01*
X151238095Y-93642857D01*
X151238095Y-93880952D01*
X151285714Y-93976190D01*
X151333333Y-94023809D01*
X151428571Y-94071428D01*
X151619047Y-94071428D01*
X151714285Y-94023809D01*
X151761904Y-93976190D01*
X151809523Y-93880952D01*
X164190476Y-108404761D02*
X164333333Y-108452380D01*
X164571428Y-108452380D01*
X164666666Y-108404761D01*
X164714285Y-108357142D01*
X164761904Y-108261904D01*
X164761904Y-108166666D01*
X164714285Y-108071428D01*
X164666666Y-108023809D01*
X164571428Y-107976190D01*
X164380952Y-107928571D01*
X164285714Y-107880952D01*
X164238095Y-107833333D01*
X164190476Y-107738095D01*
X164190476Y-107642857D01*
X164238095Y-107547619D01*
X164285714Y-107500000D01*
X164380952Y-107452380D01*
X164619047Y-107452380D01*
X164761904Y-107500000D01*
X165095238Y-107452380D02*
X165333333Y-108452380D01*
X165523809Y-107738095D01*
X165714285Y-108452380D01*
X165952380Y-107452380D01*
X166761904Y-107452380D02*
X166571428Y-107452380D01*
X166476190Y-107500000D01*
X166428571Y-107547619D01*
X166333333Y-107690476D01*
X166285714Y-107880952D01*
X166285714Y-108261904D01*
X166333333Y-108357142D01*
X166380952Y-108404761D01*
X166476190Y-108452380D01*
X166666666Y-108452380D01*
X166761904Y-108404761D01*
X166809523Y-108357142D01*
X166857142Y-108261904D01*
X166857142Y-108023809D01*
X166809523Y-107928571D01*
X166761904Y-107880952D01*
X166666666Y-107833333D01*
X166476190Y-107833333D01*
X166380952Y-107880952D01*
X166333333Y-107928571D01*
X166285714Y-108023809D01*
X167809523Y-108452380D02*
X167238095Y-108452380D01*
X167523809Y-108452380D02*
X167523809Y-107452380D01*
X167428571Y-107595238D01*
X167333333Y-107690476D01*
X167238095Y-107738095D01*
X164666666Y-38404761D02*
X164809523Y-38452380D01*
X165047619Y-38452380D01*
X165142857Y-38404761D01*
X165190476Y-38357142D01*
X165238095Y-38261904D01*
X165238095Y-38166666D01*
X165190476Y-38071428D01*
X165142857Y-38023809D01*
X165047619Y-37976190D01*
X164857142Y-37928571D01*
X164761904Y-37880952D01*
X164714285Y-37833333D01*
X164666666Y-37738095D01*
X164666666Y-37642857D01*
X164714285Y-37547619D01*
X164761904Y-37500000D01*
X164857142Y-37452380D01*
X165095238Y-37452380D01*
X165238095Y-37500000D01*
X165571428Y-37452380D02*
X165809523Y-38452380D01*
X166000000Y-37738095D01*
X166190476Y-38452380D01*
X166428571Y-37452380D01*
X167238095Y-37452380D02*
X167047619Y-37452380D01*
X166952380Y-37500000D01*
X166904761Y-37547619D01*
X166809523Y-37690476D01*
X166761904Y-37880952D01*
X166761904Y-38261904D01*
X166809523Y-38357142D01*
X166857142Y-38404761D01*
X166952380Y-38452380D01*
X167142857Y-38452380D01*
X167238095Y-38404761D01*
X167285714Y-38357142D01*
X167333333Y-38261904D01*
X167333333Y-38023809D01*
X167285714Y-37928571D01*
X167238095Y-37880952D01*
X167142857Y-37833333D01*
X166952380Y-37833333D01*
X166857142Y-37880952D01*
X166809523Y-37928571D01*
X166761904Y-38023809D01*
X84190476Y-52404761D02*
X84333333Y-52452380D01*
X84571428Y-52452380D01*
X84666666Y-52404761D01*
X84714285Y-52357142D01*
X84761904Y-52261904D01*
X84761904Y-52166666D01*
X84714285Y-52071428D01*
X84666666Y-52023809D01*
X84571428Y-51976190D01*
X84380952Y-51928571D01*
X84285714Y-51880952D01*
X84238095Y-51833333D01*
X84190476Y-51738095D01*
X84190476Y-51642857D01*
X84238095Y-51547619D01*
X84285714Y-51500000D01*
X84380952Y-51452380D01*
X84619047Y-51452380D01*
X84761904Y-51500000D01*
X85095238Y-51452380D02*
X85333333Y-52452380D01*
X85523809Y-51738095D01*
X85714285Y-52452380D01*
X85952380Y-51452380D01*
X86857142Y-52452380D02*
X86285714Y-52452380D01*
X86571428Y-52452380D02*
X86571428Y-51452380D01*
X86476190Y-51595238D01*
X86380952Y-51690476D01*
X86285714Y-51738095D01*
X87238095Y-51547619D02*
X87285714Y-51500000D01*
X87380952Y-51452380D01*
X87619047Y-51452380D01*
X87714285Y-51500000D01*
X87761904Y-51547619D01*
X87809523Y-51642857D01*
X87809523Y-51738095D01*
X87761904Y-51880952D01*
X87190476Y-52452380D01*
X87809523Y-52452380D01*
X228190476Y-38404761D02*
X228333333Y-38452380D01*
X228571428Y-38452380D01*
X228666666Y-38404761D01*
X228714285Y-38357142D01*
X228761904Y-38261904D01*
X228761904Y-38166666D01*
X228714285Y-38071428D01*
X228666666Y-38023809D01*
X228571428Y-37976190D01*
X228380952Y-37928571D01*
X228285714Y-37880952D01*
X228238095Y-37833333D01*
X228190476Y-37738095D01*
X228190476Y-37642857D01*
X228238095Y-37547619D01*
X228285714Y-37500000D01*
X228380952Y-37452380D01*
X228619047Y-37452380D01*
X228761904Y-37500000D01*
X229095238Y-37452380D02*
X229333333Y-38452380D01*
X229523809Y-37738095D01*
X229714285Y-38452380D01*
X229952380Y-37452380D01*
X230857142Y-38452380D02*
X230285714Y-38452380D01*
X230571428Y-38452380D02*
X230571428Y-37452380D01*
X230476190Y-37595238D01*
X230380952Y-37690476D01*
X230285714Y-37738095D01*
X231476190Y-37452380D02*
X231571428Y-37452380D01*
X231666666Y-37500000D01*
X231714285Y-37547619D01*
X231761904Y-37642857D01*
X231809523Y-37833333D01*
X231809523Y-38071428D01*
X231761904Y-38261904D01*
X231714285Y-38357142D01*
X231666666Y-38404761D01*
X231571428Y-38452380D01*
X231476190Y-38452380D01*
X231380952Y-38404761D01*
X231333333Y-38357142D01*
X231285714Y-38261904D01*
X231238095Y-38071428D01*
X231238095Y-37833333D01*
X231285714Y-37642857D01*
X231333333Y-37547619D01*
X231380952Y-37500000D01*
X231476190Y-37452380D01*
X116666666Y-38404761D02*
X116809523Y-38452380D01*
X117047619Y-38452380D01*
X117142857Y-38404761D01*
X117190476Y-38357142D01*
X117238095Y-38261904D01*
X117238095Y-38166666D01*
X117190476Y-38071428D01*
X117142857Y-38023809D01*
X117047619Y-37976190D01*
X116857142Y-37928571D01*
X116761904Y-37880952D01*
X116714285Y-37833333D01*
X116666666Y-37738095D01*
X116666666Y-37642857D01*
X116714285Y-37547619D01*
X116761904Y-37500000D01*
X116857142Y-37452380D01*
X117095238Y-37452380D01*
X117238095Y-37500000D01*
X117571428Y-37452380D02*
X117809523Y-38452380D01*
X118000000Y-37738095D01*
X118190476Y-38452380D01*
X118428571Y-37452380D01*
X118714285Y-37452380D02*
X119333333Y-37452380D01*
X119000000Y-37833333D01*
X119142857Y-37833333D01*
X119238095Y-37880952D01*
X119285714Y-37928571D01*
X119333333Y-38023809D01*
X119333333Y-38261904D01*
X119285714Y-38357142D01*
X119238095Y-38404761D01*
X119142857Y-38452380D01*
X118857142Y-38452380D01*
X118761904Y-38404761D01*
X118714285Y-38357142D01*
X228190476Y-108404761D02*
X228333333Y-108452380D01*
X228571428Y-108452380D01*
X228666666Y-108404761D01*
X228714285Y-108357142D01*
X228761904Y-108261904D01*
X228761904Y-108166666D01*
X228714285Y-108071428D01*
X228666666Y-108023809D01*
X228571428Y-107976190D01*
X228380952Y-107928571D01*
X228285714Y-107880952D01*
X228238095Y-107833333D01*
X228190476Y-107738095D01*
X228190476Y-107642857D01*
X228238095Y-107547619D01*
X228285714Y-107500000D01*
X228380952Y-107452380D01*
X228619047Y-107452380D01*
X228761904Y-107500000D01*
X229095238Y-107452380D02*
X229333333Y-108452380D01*
X229523809Y-107738095D01*
X229714285Y-108452380D01*
X229952380Y-107452380D01*
X230761904Y-107452380D02*
X230571428Y-107452380D01*
X230476190Y-107500000D01*
X230428571Y-107547619D01*
X230333333Y-107690476D01*
X230285714Y-107880952D01*
X230285714Y-108261904D01*
X230333333Y-108357142D01*
X230380952Y-108404761D01*
X230476190Y-108452380D01*
X230666666Y-108452380D01*
X230761904Y-108404761D01*
X230809523Y-108357142D01*
X230857142Y-108261904D01*
X230857142Y-108023809D01*
X230809523Y-107928571D01*
X230761904Y-107880952D01*
X230666666Y-107833333D01*
X230476190Y-107833333D01*
X230380952Y-107880952D01*
X230333333Y-107928571D01*
X230285714Y-108023809D01*
X231761904Y-107452380D02*
X231285714Y-107452380D01*
X231238095Y-107928571D01*
X231285714Y-107880952D01*
X231380952Y-107833333D01*
X231619047Y-107833333D01*
X231714285Y-107880952D01*
X231761904Y-107928571D01*
X231809523Y-108023809D01*
X231809523Y-108261904D01*
X231761904Y-108357142D01*
X231714285Y-108404761D01*
X231619047Y-108452380D01*
X231380952Y-108452380D01*
X231285714Y-108404761D01*
X231238095Y-108357142D01*
X132666666Y-38404761D02*
X132809523Y-38452380D01*
X133047619Y-38452380D01*
X133142857Y-38404761D01*
X133190476Y-38357142D01*
X133238095Y-38261904D01*
X133238095Y-38166666D01*
X133190476Y-38071428D01*
X133142857Y-38023809D01*
X133047619Y-37976190D01*
X132857142Y-37928571D01*
X132761904Y-37880952D01*
X132714285Y-37833333D01*
X132666666Y-37738095D01*
X132666666Y-37642857D01*
X132714285Y-37547619D01*
X132761904Y-37500000D01*
X132857142Y-37452380D01*
X133095238Y-37452380D01*
X133238095Y-37500000D01*
X133571428Y-37452380D02*
X133809523Y-38452380D01*
X134000000Y-37738095D01*
X134190476Y-38452380D01*
X134428571Y-37452380D01*
X135238095Y-37785714D02*
X135238095Y-38452380D01*
X135000000Y-37404761D02*
X134761904Y-38119047D01*
X135380952Y-38119047D01*
X84190476Y-94404761D02*
X84333333Y-94452380D01*
X84571428Y-94452380D01*
X84666666Y-94404761D01*
X84714285Y-94357142D01*
X84761904Y-94261904D01*
X84761904Y-94166666D01*
X84714285Y-94071428D01*
X84666666Y-94023809D01*
X84571428Y-93976190D01*
X84380952Y-93928571D01*
X84285714Y-93880952D01*
X84238095Y-93833333D01*
X84190476Y-93738095D01*
X84190476Y-93642857D01*
X84238095Y-93547619D01*
X84285714Y-93500000D01*
X84380952Y-93452380D01*
X84619047Y-93452380D01*
X84761904Y-93500000D01*
X85095238Y-93452380D02*
X85333333Y-94452380D01*
X85523809Y-93738095D01*
X85714285Y-94452380D01*
X85952380Y-93452380D01*
X86761904Y-93785714D02*
X86761904Y-94452380D01*
X86523809Y-93404761D02*
X86285714Y-94119047D01*
X86904761Y-94119047D01*
X87761904Y-93452380D02*
X87285714Y-93452380D01*
X87238095Y-93928571D01*
X87285714Y-93880952D01*
X87380952Y-93833333D01*
X87619047Y-93833333D01*
X87714285Y-93880952D01*
X87761904Y-93928571D01*
X87809523Y-94023809D01*
X87809523Y-94261904D01*
X87761904Y-94357142D01*
X87714285Y-94404761D01*
X87619047Y-94452380D01*
X87380952Y-94452380D01*
X87285714Y-94404761D01*
X87238095Y-94357142D01*
X148190476Y-80404761D02*
X148333333Y-80452380D01*
X148571428Y-80452380D01*
X148666666Y-80404761D01*
X148714285Y-80357142D01*
X148761904Y-80261904D01*
X148761904Y-80166666D01*
X148714285Y-80071428D01*
X148666666Y-80023809D01*
X148571428Y-79976190D01*
X148380952Y-79928571D01*
X148285714Y-79880952D01*
X148238095Y-79833333D01*
X148190476Y-79738095D01*
X148190476Y-79642857D01*
X148238095Y-79547619D01*
X148285714Y-79500000D01*
X148380952Y-79452380D01*
X148619047Y-79452380D01*
X148761904Y-79500000D01*
X149095238Y-79452380D02*
X149333333Y-80452380D01*
X149523809Y-79738095D01*
X149714285Y-80452380D01*
X149952380Y-79452380D01*
X150238095Y-79452380D02*
X150857142Y-79452380D01*
X150523809Y-79833333D01*
X150666666Y-79833333D01*
X150761904Y-79880952D01*
X150809523Y-79928571D01*
X150857142Y-80023809D01*
X150857142Y-80261904D01*
X150809523Y-80357142D01*
X150761904Y-80404761D01*
X150666666Y-80452380D01*
X150380952Y-80452380D01*
X150285714Y-80404761D01*
X150238095Y-80357142D01*
X151428571Y-79880952D02*
X151333333Y-79833333D01*
X151285714Y-79785714D01*
X151238095Y-79690476D01*
X151238095Y-79642857D01*
X151285714Y-79547619D01*
X151333333Y-79500000D01*
X151428571Y-79452380D01*
X151619047Y-79452380D01*
X151714285Y-79500000D01*
X151761904Y-79547619D01*
X151809523Y-79642857D01*
X151809523Y-79690476D01*
X151761904Y-79785714D01*
X151714285Y-79833333D01*
X151619047Y-79880952D01*
X151428571Y-79880952D01*
X151333333Y-79928571D01*
X151285714Y-79976190D01*
X151238095Y-80071428D01*
X151238095Y-80261904D01*
X151285714Y-80357142D01*
X151333333Y-80404761D01*
X151428571Y-80452380D01*
X151619047Y-80452380D01*
X151714285Y-80404761D01*
X151761904Y-80357142D01*
X151809523Y-80261904D01*
X151809523Y-80071428D01*
X151761904Y-79976190D01*
X151714285Y-79928571D01*
X151619047Y-79880952D01*
X228190476Y-52404761D02*
X228333333Y-52452380D01*
X228571428Y-52452380D01*
X228666666Y-52404761D01*
X228714285Y-52357142D01*
X228761904Y-52261904D01*
X228761904Y-52166666D01*
X228714285Y-52071428D01*
X228666666Y-52023809D01*
X228571428Y-51976190D01*
X228380952Y-51928571D01*
X228285714Y-51880952D01*
X228238095Y-51833333D01*
X228190476Y-51738095D01*
X228190476Y-51642857D01*
X228238095Y-51547619D01*
X228285714Y-51500000D01*
X228380952Y-51452380D01*
X228619047Y-51452380D01*
X228761904Y-51500000D01*
X229095238Y-51452380D02*
X229333333Y-52452380D01*
X229523809Y-51738095D01*
X229714285Y-52452380D01*
X229952380Y-51452380D01*
X230285714Y-51547619D02*
X230333333Y-51500000D01*
X230428571Y-51452380D01*
X230666666Y-51452380D01*
X230761904Y-51500000D01*
X230809523Y-51547619D01*
X230857142Y-51642857D01*
X230857142Y-51738095D01*
X230809523Y-51880952D01*
X230238095Y-52452380D01*
X230857142Y-52452380D01*
X231809523Y-52452380D02*
X231238095Y-52452380D01*
X231523809Y-52452380D02*
X231523809Y-51452380D01*
X231428571Y-51595238D01*
X231333333Y-51690476D01*
X231238095Y-51738095D01*
X196190476Y-66404761D02*
X196333333Y-66452380D01*
X196571428Y-66452380D01*
X196666666Y-66404761D01*
X196714285Y-66357142D01*
X196761904Y-66261904D01*
X196761904Y-66166666D01*
X196714285Y-66071428D01*
X196666666Y-66023809D01*
X196571428Y-65976190D01*
X196380952Y-65928571D01*
X196285714Y-65880952D01*
X196238095Y-65833333D01*
X196190476Y-65738095D01*
X196190476Y-65642857D01*
X196238095Y-65547619D01*
X196285714Y-65500000D01*
X196380952Y-65452380D01*
X196619047Y-65452380D01*
X196761904Y-65500000D01*
X197095238Y-65452380D02*
X197333333Y-66452380D01*
X197523809Y-65738095D01*
X197714285Y-66452380D01*
X197952380Y-65452380D01*
X198238095Y-65452380D02*
X198857142Y-65452380D01*
X198523809Y-65833333D01*
X198666666Y-65833333D01*
X198761904Y-65880952D01*
X198809523Y-65928571D01*
X198857142Y-66023809D01*
X198857142Y-66261904D01*
X198809523Y-66357142D01*
X198761904Y-66404761D01*
X198666666Y-66452380D01*
X198380952Y-66452380D01*
X198285714Y-66404761D01*
X198238095Y-66357142D01*
X199476190Y-65452380D02*
X199571428Y-65452380D01*
X199666666Y-65500000D01*
X199714285Y-65547619D01*
X199761904Y-65642857D01*
X199809523Y-65833333D01*
X199809523Y-66071428D01*
X199761904Y-66261904D01*
X199714285Y-66357142D01*
X199666666Y-66404761D01*
X199571428Y-66452380D01*
X199476190Y-66452380D01*
X199380952Y-66404761D01*
X199333333Y-66357142D01*
X199285714Y-66261904D01*
X199238095Y-66071428D01*
X199238095Y-65833333D01*
X199285714Y-65642857D01*
X199333333Y-65547619D01*
X199380952Y-65500000D01*
X199476190Y-65452380D01*
X84190476Y-108404761D02*
X84333333Y-108452380D01*
X84571428Y-108452380D01*
X84666666Y-108404761D01*
X84714285Y-108357142D01*
X84761904Y-108261904D01*
X84761904Y-108166666D01*
X84714285Y-108071428D01*
X84666666Y-108023809D01*
X84571428Y-107976190D01*
X84380952Y-107928571D01*
X84285714Y-107880952D01*
X84238095Y-107833333D01*
X84190476Y-107738095D01*
X84190476Y-107642857D01*
X84238095Y-107547619D01*
X84285714Y-107500000D01*
X84380952Y-107452380D01*
X84619047Y-107452380D01*
X84761904Y-107500000D01*
X85095238Y-107452380D02*
X85333333Y-108452380D01*
X85523809Y-107738095D01*
X85714285Y-108452380D01*
X85952380Y-107452380D01*
X86809523Y-107452380D02*
X86333333Y-107452380D01*
X86285714Y-107928571D01*
X86333333Y-107880952D01*
X86428571Y-107833333D01*
X86666666Y-107833333D01*
X86761904Y-107880952D01*
X86809523Y-107928571D01*
X86857142Y-108023809D01*
X86857142Y-108261904D01*
X86809523Y-108357142D01*
X86761904Y-108404761D01*
X86666666Y-108452380D01*
X86428571Y-108452380D01*
X86333333Y-108404761D01*
X86285714Y-108357142D01*
X87714285Y-107452380D02*
X87523809Y-107452380D01*
X87428571Y-107500000D01*
X87380952Y-107547619D01*
X87285714Y-107690476D01*
X87238095Y-107880952D01*
X87238095Y-108261904D01*
X87285714Y-108357142D01*
X87333333Y-108404761D01*
X87428571Y-108452380D01*
X87619047Y-108452380D01*
X87714285Y-108404761D01*
X87761904Y-108357142D01*
X87809523Y-108261904D01*
X87809523Y-108023809D01*
X87761904Y-107928571D01*
X87714285Y-107880952D01*
X87619047Y-107833333D01*
X87428571Y-107833333D01*
X87333333Y-107880952D01*
X87285714Y-107928571D01*
X87238095Y-108023809D01*
X196190476Y-108404761D02*
X196333333Y-108452380D01*
X196571428Y-108452380D01*
X196666666Y-108404761D01*
X196714285Y-108357142D01*
X196761904Y-108261904D01*
X196761904Y-108166666D01*
X196714285Y-108071428D01*
X196666666Y-108023809D01*
X196571428Y-107976190D01*
X196380952Y-107928571D01*
X196285714Y-107880952D01*
X196238095Y-107833333D01*
X196190476Y-107738095D01*
X196190476Y-107642857D01*
X196238095Y-107547619D01*
X196285714Y-107500000D01*
X196380952Y-107452380D01*
X196619047Y-107452380D01*
X196761904Y-107500000D01*
X197095238Y-107452380D02*
X197333333Y-108452380D01*
X197523809Y-107738095D01*
X197714285Y-108452380D01*
X197952380Y-107452380D01*
X198761904Y-107452380D02*
X198571428Y-107452380D01*
X198476190Y-107500000D01*
X198428571Y-107547619D01*
X198333333Y-107690476D01*
X198285714Y-107880952D01*
X198285714Y-108261904D01*
X198333333Y-108357142D01*
X198380952Y-108404761D01*
X198476190Y-108452380D01*
X198666666Y-108452380D01*
X198761904Y-108404761D01*
X198809523Y-108357142D01*
X198857142Y-108261904D01*
X198857142Y-108023809D01*
X198809523Y-107928571D01*
X198761904Y-107880952D01*
X198666666Y-107833333D01*
X198476190Y-107833333D01*
X198380952Y-107880952D01*
X198333333Y-107928571D01*
X198285714Y-108023809D01*
X199190476Y-107452380D02*
X199809523Y-107452380D01*
X199476190Y-107833333D01*
X199619047Y-107833333D01*
X199714285Y-107880952D01*
X199761904Y-107928571D01*
X199809523Y-108023809D01*
X199809523Y-108261904D01*
X199761904Y-108357142D01*
X199714285Y-108404761D01*
X199619047Y-108452380D01*
X199333333Y-108452380D01*
X199238095Y-108404761D01*
X199190476Y-108357142D01*
X100190476Y-80404761D02*
X100333333Y-80452380D01*
X100571428Y-80452380D01*
X100666666Y-80404761D01*
X100714285Y-80357142D01*
X100761904Y-80261904D01*
X100761904Y-80166666D01*
X100714285Y-80071428D01*
X100666666Y-80023809D01*
X100571428Y-79976190D01*
X100380952Y-79928571D01*
X100285714Y-79880952D01*
X100238095Y-79833333D01*
X100190476Y-79738095D01*
X100190476Y-79642857D01*
X100238095Y-79547619D01*
X100285714Y-79500000D01*
X100380952Y-79452380D01*
X100619047Y-79452380D01*
X100761904Y-79500000D01*
X101095238Y-79452380D02*
X101333333Y-80452380D01*
X101523809Y-79738095D01*
X101714285Y-80452380D01*
X101952380Y-79452380D01*
X102238095Y-79452380D02*
X102857142Y-79452380D01*
X102523809Y-79833333D01*
X102666666Y-79833333D01*
X102761904Y-79880952D01*
X102809523Y-79928571D01*
X102857142Y-80023809D01*
X102857142Y-80261904D01*
X102809523Y-80357142D01*
X102761904Y-80404761D01*
X102666666Y-80452380D01*
X102380952Y-80452380D01*
X102285714Y-80404761D01*
X102238095Y-80357142D01*
X103761904Y-79452380D02*
X103285714Y-79452380D01*
X103238095Y-79928571D01*
X103285714Y-79880952D01*
X103380952Y-79833333D01*
X103619047Y-79833333D01*
X103714285Y-79880952D01*
X103761904Y-79928571D01*
X103809523Y-80023809D01*
X103809523Y-80261904D01*
X103761904Y-80357142D01*
X103714285Y-80404761D01*
X103619047Y-80452380D01*
X103380952Y-80452380D01*
X103285714Y-80404761D01*
X103238095Y-80357142D01*
X196666666Y-38404761D02*
X196809523Y-38452380D01*
X197047619Y-38452380D01*
X197142857Y-38404761D01*
X197190476Y-38357142D01*
X197238095Y-38261904D01*
X197238095Y-38166666D01*
X197190476Y-38071428D01*
X197142857Y-38023809D01*
X197047619Y-37976190D01*
X196857142Y-37928571D01*
X196761904Y-37880952D01*
X196714285Y-37833333D01*
X196666666Y-37738095D01*
X196666666Y-37642857D01*
X196714285Y-37547619D01*
X196761904Y-37500000D01*
X196857142Y-37452380D01*
X197095238Y-37452380D01*
X197238095Y-37500000D01*
X197571428Y-37452380D02*
X197809523Y-38452380D01*
X198000000Y-37738095D01*
X198190476Y-38452380D01*
X198428571Y-37452380D01*
X198952380Y-37880952D02*
X198857142Y-37833333D01*
X198809523Y-37785714D01*
X198761904Y-37690476D01*
X198761904Y-37642857D01*
X198809523Y-37547619D01*
X198857142Y-37500000D01*
X198952380Y-37452380D01*
X199142857Y-37452380D01*
X199238095Y-37500000D01*
X199285714Y-37547619D01*
X199333333Y-37642857D01*
X199333333Y-37690476D01*
X199285714Y-37785714D01*
X199238095Y-37833333D01*
X199142857Y-37880952D01*
X198952380Y-37880952D01*
X198857142Y-37928571D01*
X198809523Y-37976190D01*
X198761904Y-38071428D01*
X198761904Y-38261904D01*
X198809523Y-38357142D01*
X198857142Y-38404761D01*
X198952380Y-38452380D01*
X199142857Y-38452380D01*
X199238095Y-38404761D01*
X199285714Y-38357142D01*
X199333333Y-38261904D01*
X199333333Y-38071428D01*
X199285714Y-37976190D01*
X199238095Y-37928571D01*
X199142857Y-37880952D01*
X84190476Y-80404761D02*
X84333333Y-80452380D01*
X84571428Y-80452380D01*
X84666666Y-80404761D01*
X84714285Y-80357142D01*
X84761904Y-80261904D01*
X84761904Y-80166666D01*
X84714285Y-80071428D01*
X84666666Y-80023809D01*
X84571428Y-79976190D01*
X84380952Y-79928571D01*
X84285714Y-79880952D01*
X84238095Y-79833333D01*
X84190476Y-79738095D01*
X84190476Y-79642857D01*
X84238095Y-79547619D01*
X84285714Y-79500000D01*
X84380952Y-79452380D01*
X84619047Y-79452380D01*
X84761904Y-79500000D01*
X85095238Y-79452380D02*
X85333333Y-80452380D01*
X85523809Y-79738095D01*
X85714285Y-80452380D01*
X85952380Y-79452380D01*
X86238095Y-79452380D02*
X86857142Y-79452380D01*
X86523809Y-79833333D01*
X86666666Y-79833333D01*
X86761904Y-79880952D01*
X86809523Y-79928571D01*
X86857142Y-80023809D01*
X86857142Y-80261904D01*
X86809523Y-80357142D01*
X86761904Y-80404761D01*
X86666666Y-80452380D01*
X86380952Y-80452380D01*
X86285714Y-80404761D01*
X86238095Y-80357142D01*
X87714285Y-79785714D02*
X87714285Y-80452380D01*
X87476190Y-79404761D02*
X87238095Y-80119047D01*
X87857142Y-80119047D01*
X116190476Y-66404761D02*
X116333333Y-66452380D01*
X116571428Y-66452380D01*
X116666666Y-66404761D01*
X116714285Y-66357142D01*
X116761904Y-66261904D01*
X116761904Y-66166666D01*
X116714285Y-66071428D01*
X116666666Y-66023809D01*
X116571428Y-65976190D01*
X116380952Y-65928571D01*
X116285714Y-65880952D01*
X116238095Y-65833333D01*
X116190476Y-65738095D01*
X116190476Y-65642857D01*
X116238095Y-65547619D01*
X116285714Y-65500000D01*
X116380952Y-65452380D01*
X116619047Y-65452380D01*
X116761904Y-65500000D01*
X117095238Y-65452380D02*
X117333333Y-66452380D01*
X117523809Y-65738095D01*
X117714285Y-66452380D01*
X117952380Y-65452380D01*
X118285714Y-65547619D02*
X118333333Y-65500000D01*
X118428571Y-65452380D01*
X118666666Y-65452380D01*
X118761904Y-65500000D01*
X118809523Y-65547619D01*
X118857142Y-65642857D01*
X118857142Y-65738095D01*
X118809523Y-65880952D01*
X118238095Y-66452380D01*
X118857142Y-66452380D01*
X119761904Y-65452380D02*
X119285714Y-65452380D01*
X119238095Y-65928571D01*
X119285714Y-65880952D01*
X119380952Y-65833333D01*
X119619047Y-65833333D01*
X119714285Y-65880952D01*
X119761904Y-65928571D01*
X119809523Y-66023809D01*
X119809523Y-66261904D01*
X119761904Y-66357142D01*
X119714285Y-66404761D01*
X119619047Y-66452380D01*
X119380952Y-66452380D01*
X119285714Y-66404761D01*
X119238095Y-66357142D01*
X212190476Y-94404761D02*
X212333333Y-94452380D01*
X212571428Y-94452380D01*
X212666666Y-94404761D01*
X212714285Y-94357142D01*
X212761904Y-94261904D01*
X212761904Y-94166666D01*
X212714285Y-94071428D01*
X212666666Y-94023809D01*
X212571428Y-93976190D01*
X212380952Y-93928571D01*
X212285714Y-93880952D01*
X212238095Y-93833333D01*
X212190476Y-93738095D01*
X212190476Y-93642857D01*
X212238095Y-93547619D01*
X212285714Y-93500000D01*
X212380952Y-93452380D01*
X212619047Y-93452380D01*
X212761904Y-93500000D01*
X213095238Y-93452380D02*
X213333333Y-94452380D01*
X213523809Y-93738095D01*
X213714285Y-94452380D01*
X213952380Y-93452380D01*
X214809523Y-93452380D02*
X214333333Y-93452380D01*
X214285714Y-93928571D01*
X214333333Y-93880952D01*
X214428571Y-93833333D01*
X214666666Y-93833333D01*
X214761904Y-93880952D01*
X214809523Y-93928571D01*
X214857142Y-94023809D01*
X214857142Y-94261904D01*
X214809523Y-94357142D01*
X214761904Y-94404761D01*
X214666666Y-94452380D01*
X214428571Y-94452380D01*
X214333333Y-94404761D01*
X214285714Y-94357142D01*
X215190476Y-93452380D02*
X215809523Y-93452380D01*
X215476190Y-93833333D01*
X215619047Y-93833333D01*
X215714285Y-93880952D01*
X215761904Y-93928571D01*
X215809523Y-94023809D01*
X215809523Y-94261904D01*
X215761904Y-94357142D01*
X215714285Y-94404761D01*
X215619047Y-94452380D01*
X215333333Y-94452380D01*
X215238095Y-94404761D01*
X215190476Y-94357142D01*
X180666666Y-38404761D02*
X180809523Y-38452380D01*
X181047619Y-38452380D01*
X181142857Y-38404761D01*
X181190476Y-38357142D01*
X181238095Y-38261904D01*
X181238095Y-38166666D01*
X181190476Y-38071428D01*
X181142857Y-38023809D01*
X181047619Y-37976190D01*
X180857142Y-37928571D01*
X180761904Y-37880952D01*
X180714285Y-37833333D01*
X180666666Y-37738095D01*
X180666666Y-37642857D01*
X180714285Y-37547619D01*
X180761904Y-37500000D01*
X180857142Y-37452380D01*
X181095238Y-37452380D01*
X181238095Y-37500000D01*
X181571428Y-37452380D02*
X181809523Y-38452380D01*
X182000000Y-37738095D01*
X182190476Y-38452380D01*
X182428571Y-37452380D01*
X182714285Y-37452380D02*
X183380952Y-37452380D01*
X182952380Y-38452380D01*
X180190476Y-66404761D02*
X180333333Y-66452380D01*
X180571428Y-66452380D01*
X180666666Y-66404761D01*
X180714285Y-66357142D01*
X180761904Y-66261904D01*
X180761904Y-66166666D01*
X180714285Y-66071428D01*
X180666666Y-66023809D01*
X180571428Y-65976190D01*
X180380952Y-65928571D01*
X180285714Y-65880952D01*
X180238095Y-65833333D01*
X180190476Y-65738095D01*
X180190476Y-65642857D01*
X180238095Y-65547619D01*
X180285714Y-65500000D01*
X180380952Y-65452380D01*
X180619047Y-65452380D01*
X180761904Y-65500000D01*
X181095238Y-65452380D02*
X181333333Y-66452380D01*
X181523809Y-65738095D01*
X181714285Y-66452380D01*
X181952380Y-65452380D01*
X182285714Y-65547619D02*
X182333333Y-65500000D01*
X182428571Y-65452380D01*
X182666666Y-65452380D01*
X182761904Y-65500000D01*
X182809523Y-65547619D01*
X182857142Y-65642857D01*
X182857142Y-65738095D01*
X182809523Y-65880952D01*
X182238095Y-66452380D01*
X182857142Y-66452380D01*
X183333333Y-66452380D02*
X183523809Y-66452380D01*
X183619047Y-66404761D01*
X183666666Y-66357142D01*
X183761904Y-66214285D01*
X183809523Y-66023809D01*
X183809523Y-65642857D01*
X183761904Y-65547619D01*
X183714285Y-65500000D01*
X183619047Y-65452380D01*
X183428571Y-65452380D01*
X183333333Y-65500000D01*
X183285714Y-65547619D01*
X183238095Y-65642857D01*
X183238095Y-65880952D01*
X183285714Y-65976190D01*
X183333333Y-66023809D01*
X183428571Y-66071428D01*
X183619047Y-66071428D01*
X183714285Y-66023809D01*
X183761904Y-65976190D01*
X183809523Y-65880952D01*
X212190476Y-108404761D02*
X212333333Y-108452380D01*
X212571428Y-108452380D01*
X212666666Y-108404761D01*
X212714285Y-108357142D01*
X212761904Y-108261904D01*
X212761904Y-108166666D01*
X212714285Y-108071428D01*
X212666666Y-108023809D01*
X212571428Y-107976190D01*
X212380952Y-107928571D01*
X212285714Y-107880952D01*
X212238095Y-107833333D01*
X212190476Y-107738095D01*
X212190476Y-107642857D01*
X212238095Y-107547619D01*
X212285714Y-107500000D01*
X212380952Y-107452380D01*
X212619047Y-107452380D01*
X212761904Y-107500000D01*
X213095238Y-107452380D02*
X213333333Y-108452380D01*
X213523809Y-107738095D01*
X213714285Y-108452380D01*
X213952380Y-107452380D01*
X214761904Y-107452380D02*
X214571428Y-107452380D01*
X214476190Y-107500000D01*
X214428571Y-107547619D01*
X214333333Y-107690476D01*
X214285714Y-107880952D01*
X214285714Y-108261904D01*
X214333333Y-108357142D01*
X214380952Y-108404761D01*
X214476190Y-108452380D01*
X214666666Y-108452380D01*
X214761904Y-108404761D01*
X214809523Y-108357142D01*
X214857142Y-108261904D01*
X214857142Y-108023809D01*
X214809523Y-107928571D01*
X214761904Y-107880952D01*
X214666666Y-107833333D01*
X214476190Y-107833333D01*
X214380952Y-107880952D01*
X214333333Y-107928571D01*
X214285714Y-108023809D01*
X215714285Y-107785714D02*
X215714285Y-108452380D01*
X215476190Y-107404761D02*
X215238095Y-108119047D01*
X215857142Y-108119047D01*
X116190476Y-108404761D02*
X116333333Y-108452380D01*
X116571428Y-108452380D01*
X116666666Y-108404761D01*
X116714285Y-108357142D01*
X116761904Y-108261904D01*
X116761904Y-108166666D01*
X116714285Y-108071428D01*
X116666666Y-108023809D01*
X116571428Y-107976190D01*
X116380952Y-107928571D01*
X116285714Y-107880952D01*
X116238095Y-107833333D01*
X116190476Y-107738095D01*
X116190476Y-107642857D01*
X116238095Y-107547619D01*
X116285714Y-107500000D01*
X116380952Y-107452380D01*
X116619047Y-107452380D01*
X116761904Y-107500000D01*
X117095238Y-107452380D02*
X117333333Y-108452380D01*
X117523809Y-107738095D01*
X117714285Y-108452380D01*
X117952380Y-107452380D01*
X118809523Y-107452380D02*
X118333333Y-107452380D01*
X118285714Y-107928571D01*
X118333333Y-107880952D01*
X118428571Y-107833333D01*
X118666666Y-107833333D01*
X118761904Y-107880952D01*
X118809523Y-107928571D01*
X118857142Y-108023809D01*
X118857142Y-108261904D01*
X118809523Y-108357142D01*
X118761904Y-108404761D01*
X118666666Y-108452380D01*
X118428571Y-108452380D01*
X118333333Y-108404761D01*
X118285714Y-108357142D01*
X119428571Y-107880952D02*
X119333333Y-107833333D01*
X119285714Y-107785714D01*
X119238095Y-107690476D01*
X119238095Y-107642857D01*
X119285714Y-107547619D01*
X119333333Y-107500000D01*
X119428571Y-107452380D01*
X119619047Y-107452380D01*
X119714285Y-107500000D01*
X119761904Y-107547619D01*
X119809523Y-107642857D01*
X119809523Y-107690476D01*
X119761904Y-107785714D01*
X119714285Y-107833333D01*
X119619047Y-107880952D01*
X119428571Y-107880952D01*
X119333333Y-107928571D01*
X119285714Y-107976190D01*
X119238095Y-108071428D01*
X119238095Y-108261904D01*
X119285714Y-108357142D01*
X119333333Y-108404761D01*
X119428571Y-108452380D01*
X119619047Y-108452380D01*
X119714285Y-108404761D01*
X119761904Y-108357142D01*
X119809523Y-108261904D01*
X119809523Y-108071428D01*
X119761904Y-107976190D01*
X119714285Y-107928571D01*
X119619047Y-107880952D01*
X196190476Y-52404761D02*
X196333333Y-52452380D01*
X196571428Y-52452380D01*
X196666666Y-52404761D01*
X196714285Y-52357142D01*
X196761904Y-52261904D01*
X196761904Y-52166666D01*
X196714285Y-52071428D01*
X196666666Y-52023809D01*
X196571428Y-51976190D01*
X196380952Y-51928571D01*
X196285714Y-51880952D01*
X196238095Y-51833333D01*
X196190476Y-51738095D01*
X196190476Y-51642857D01*
X196238095Y-51547619D01*
X196285714Y-51500000D01*
X196380952Y-51452380D01*
X196619047Y-51452380D01*
X196761904Y-51500000D01*
X197095238Y-51452380D02*
X197333333Y-52452380D01*
X197523809Y-51738095D01*
X197714285Y-52452380D01*
X197952380Y-51452380D01*
X198857142Y-52452380D02*
X198285714Y-52452380D01*
X198571428Y-52452380D02*
X198571428Y-51452380D01*
X198476190Y-51595238D01*
X198380952Y-51690476D01*
X198285714Y-51738095D01*
X199333333Y-52452380D02*
X199523809Y-52452380D01*
X199619047Y-52404761D01*
X199666666Y-52357142D01*
X199761904Y-52214285D01*
X199809523Y-52023809D01*
X199809523Y-51642857D01*
X199761904Y-51547619D01*
X199714285Y-51500000D01*
X199619047Y-51452380D01*
X199428571Y-51452380D01*
X199333333Y-51500000D01*
X199285714Y-51547619D01*
X199238095Y-51642857D01*
X199238095Y-51880952D01*
X199285714Y-51976190D01*
X199333333Y-52023809D01*
X199428571Y-52071428D01*
X199619047Y-52071428D01*
X199714285Y-52023809D01*
X199761904Y-51976190D01*
X199809523Y-51880952D01*
X148190476Y-52404761D02*
X148333333Y-52452380D01*
X148571428Y-52452380D01*
X148666666Y-52404761D01*
X148714285Y-52357142D01*
X148761904Y-52261904D01*
X148761904Y-52166666D01*
X148714285Y-52071428D01*
X148666666Y-52023809D01*
X148571428Y-51976190D01*
X148380952Y-51928571D01*
X148285714Y-51880952D01*
X148238095Y-51833333D01*
X148190476Y-51738095D01*
X148190476Y-51642857D01*
X148238095Y-51547619D01*
X148285714Y-51500000D01*
X148380952Y-51452380D01*
X148619047Y-51452380D01*
X148761904Y-51500000D01*
X149095238Y-51452380D02*
X149333333Y-52452380D01*
X149523809Y-51738095D01*
X149714285Y-52452380D01*
X149952380Y-51452380D01*
X150857142Y-52452380D02*
X150285714Y-52452380D01*
X150571428Y-52452380D02*
X150571428Y-51452380D01*
X150476190Y-51595238D01*
X150380952Y-51690476D01*
X150285714Y-51738095D01*
X151714285Y-51452380D02*
X151523809Y-51452380D01*
X151428571Y-51500000D01*
X151380952Y-51547619D01*
X151285714Y-51690476D01*
X151238095Y-51880952D01*
X151238095Y-52261904D01*
X151285714Y-52357142D01*
X151333333Y-52404761D01*
X151428571Y-52452380D01*
X151619047Y-52452380D01*
X151714285Y-52404761D01*
X151761904Y-52357142D01*
X151809523Y-52261904D01*
X151809523Y-52023809D01*
X151761904Y-51928571D01*
X151714285Y-51880952D01*
X151619047Y-51833333D01*
X151428571Y-51833333D01*
X151333333Y-51880952D01*
X151285714Y-51928571D01*
X151238095Y-52023809D01*
X212190476Y-66404761D02*
X212333333Y-66452380D01*
X212571428Y-66452380D01*
X212666666Y-66404761D01*
X212714285Y-66357142D01*
X212761904Y-66261904D01*
X212761904Y-66166666D01*
X212714285Y-66071428D01*
X212666666Y-66023809D01*
X212571428Y-65976190D01*
X212380952Y-65928571D01*
X212285714Y-65880952D01*
X212238095Y-65833333D01*
X212190476Y-65738095D01*
X212190476Y-65642857D01*
X212238095Y-65547619D01*
X212285714Y-65500000D01*
X212380952Y-65452380D01*
X212619047Y-65452380D01*
X212761904Y-65500000D01*
X213095238Y-65452380D02*
X213333333Y-66452380D01*
X213523809Y-65738095D01*
X213714285Y-66452380D01*
X213952380Y-65452380D01*
X214238095Y-65452380D02*
X214857142Y-65452380D01*
X214523809Y-65833333D01*
X214666666Y-65833333D01*
X214761904Y-65880952D01*
X214809523Y-65928571D01*
X214857142Y-66023809D01*
X214857142Y-66261904D01*
X214809523Y-66357142D01*
X214761904Y-66404761D01*
X214666666Y-66452380D01*
X214380952Y-66452380D01*
X214285714Y-66404761D01*
X214238095Y-66357142D01*
X215809523Y-66452380D02*
X215238095Y-66452380D01*
X215523809Y-66452380D02*
X215523809Y-65452380D01*
X215428571Y-65595238D01*
X215333333Y-65690476D01*
X215238095Y-65738095D01*
X84666666Y-38404761D02*
X84809523Y-38452380D01*
X85047619Y-38452380D01*
X85142857Y-38404761D01*
X85190476Y-38357142D01*
X85238095Y-38261904D01*
X85238095Y-38166666D01*
X85190476Y-38071428D01*
X85142857Y-38023809D01*
X85047619Y-37976190D01*
X84857142Y-37928571D01*
X84761904Y-37880952D01*
X84714285Y-37833333D01*
X84666666Y-37738095D01*
X84666666Y-37642857D01*
X84714285Y-37547619D01*
X84761904Y-37500000D01*
X84857142Y-37452380D01*
X85095238Y-37452380D01*
X85238095Y-37500000D01*
X85571428Y-37452380D02*
X85809523Y-38452380D01*
X86000000Y-37738095D01*
X86190476Y-38452380D01*
X86428571Y-37452380D01*
X87333333Y-38452380D02*
X86761904Y-38452380D01*
X87047619Y-38452380D02*
X87047619Y-37452380D01*
X86952380Y-37595238D01*
X86857142Y-37690476D01*
X86761904Y-37738095D01*
X132190476Y-108404761D02*
X132333333Y-108452380D01*
X132571428Y-108452380D01*
X132666666Y-108404761D01*
X132714285Y-108357142D01*
X132761904Y-108261904D01*
X132761904Y-108166666D01*
X132714285Y-108071428D01*
X132666666Y-108023809D01*
X132571428Y-107976190D01*
X132380952Y-107928571D01*
X132285714Y-107880952D01*
X132238095Y-107833333D01*
X132190476Y-107738095D01*
X132190476Y-107642857D01*
X132238095Y-107547619D01*
X132285714Y-107500000D01*
X132380952Y-107452380D01*
X132619047Y-107452380D01*
X132761904Y-107500000D01*
X133095238Y-107452380D02*
X133333333Y-108452380D01*
X133523809Y-107738095D01*
X133714285Y-108452380D01*
X133952380Y-107452380D01*
X134809523Y-107452380D02*
X134333333Y-107452380D01*
X134285714Y-107928571D01*
X134333333Y-107880952D01*
X134428571Y-107833333D01*
X134666666Y-107833333D01*
X134761904Y-107880952D01*
X134809523Y-107928571D01*
X134857142Y-108023809D01*
X134857142Y-108261904D01*
X134809523Y-108357142D01*
X134761904Y-108404761D01*
X134666666Y-108452380D01*
X134428571Y-108452380D01*
X134333333Y-108404761D01*
X134285714Y-108357142D01*
X135333333Y-108452380D02*
X135523809Y-108452380D01*
X135619047Y-108404761D01*
X135666666Y-108357142D01*
X135761904Y-108214285D01*
X135809523Y-108023809D01*
X135809523Y-107642857D01*
X135761904Y-107547619D01*
X135714285Y-107500000D01*
X135619047Y-107452380D01*
X135428571Y-107452380D01*
X135333333Y-107500000D01*
X135285714Y-107547619D01*
X135238095Y-107642857D01*
X135238095Y-107880952D01*
X135285714Y-107976190D01*
X135333333Y-108023809D01*
X135428571Y-108071428D01*
X135619047Y-108071428D01*
X135714285Y-108023809D01*
X135761904Y-107976190D01*
X135809523Y-107880952D01*
X116190476Y-80404761D02*
X116333333Y-80452380D01*
X116571428Y-80452380D01*
X116666666Y-80404761D01*
X116714285Y-80357142D01*
X116761904Y-80261904D01*
X116761904Y-80166666D01*
X116714285Y-80071428D01*
X116666666Y-80023809D01*
X116571428Y-79976190D01*
X116380952Y-79928571D01*
X116285714Y-79880952D01*
X116238095Y-79833333D01*
X116190476Y-79738095D01*
X116190476Y-79642857D01*
X116238095Y-79547619D01*
X116285714Y-79500000D01*
X116380952Y-79452380D01*
X116619047Y-79452380D01*
X116761904Y-79500000D01*
X117095238Y-79452380D02*
X117333333Y-80452380D01*
X117523809Y-79738095D01*
X117714285Y-80452380D01*
X117952380Y-79452380D01*
X118238095Y-79452380D02*
X118857142Y-79452380D01*
X118523809Y-79833333D01*
X118666666Y-79833333D01*
X118761904Y-79880952D01*
X118809523Y-79928571D01*
X118857142Y-80023809D01*
X118857142Y-80261904D01*
X118809523Y-80357142D01*
X118761904Y-80404761D01*
X118666666Y-80452380D01*
X118380952Y-80452380D01*
X118285714Y-80404761D01*
X118238095Y-80357142D01*
X119714285Y-79452380D02*
X119523809Y-79452380D01*
X119428571Y-79500000D01*
X119380952Y-79547619D01*
X119285714Y-79690476D01*
X119238095Y-79880952D01*
X119238095Y-80261904D01*
X119285714Y-80357142D01*
X119333333Y-80404761D01*
X119428571Y-80452380D01*
X119619047Y-80452380D01*
X119714285Y-80404761D01*
X119761904Y-80357142D01*
X119809523Y-80261904D01*
X119809523Y-80023809D01*
X119761904Y-79928571D01*
X119714285Y-79880952D01*
X119619047Y-79833333D01*
X119428571Y-79833333D01*
X119333333Y-79880952D01*
X119285714Y-79928571D01*
X119238095Y-80023809D01*
X228190476Y-66404761D02*
X228333333Y-66452380D01*
X228571428Y-66452380D01*
X228666666Y-66404761D01*
X228714285Y-66357142D01*
X228761904Y-66261904D01*
X228761904Y-66166666D01*
X228714285Y-66071428D01*
X228666666Y-66023809D01*
X228571428Y-65976190D01*
X228380952Y-65928571D01*
X228285714Y-65880952D01*
X228238095Y-65833333D01*
X228190476Y-65738095D01*
X228190476Y-65642857D01*
X228238095Y-65547619D01*
X228285714Y-65500000D01*
X228380952Y-65452380D01*
X228619047Y-65452380D01*
X228761904Y-65500000D01*
X229095238Y-65452380D02*
X229333333Y-66452380D01*
X229523809Y-65738095D01*
X229714285Y-66452380D01*
X229952380Y-65452380D01*
X230238095Y-65452380D02*
X230857142Y-65452380D01*
X230523809Y-65833333D01*
X230666666Y-65833333D01*
X230761904Y-65880952D01*
X230809523Y-65928571D01*
X230857142Y-66023809D01*
X230857142Y-66261904D01*
X230809523Y-66357142D01*
X230761904Y-66404761D01*
X230666666Y-66452380D01*
X230380952Y-66452380D01*
X230285714Y-66404761D01*
X230238095Y-66357142D01*
X231238095Y-65547619D02*
X231285714Y-65500000D01*
X231380952Y-65452380D01*
X231619047Y-65452380D01*
X231714285Y-65500000D01*
X231761904Y-65547619D01*
X231809523Y-65642857D01*
X231809523Y-65738095D01*
X231761904Y-65880952D01*
X231190476Y-66452380D01*
X231809523Y-66452380D01*
X164190476Y-52404761D02*
X164333333Y-52452380D01*
X164571428Y-52452380D01*
X164666666Y-52404761D01*
X164714285Y-52357142D01*
X164761904Y-52261904D01*
X164761904Y-52166666D01*
X164714285Y-52071428D01*
X164666666Y-52023809D01*
X164571428Y-51976190D01*
X164380952Y-51928571D01*
X164285714Y-51880952D01*
X164238095Y-51833333D01*
X164190476Y-51738095D01*
X164190476Y-51642857D01*
X164238095Y-51547619D01*
X164285714Y-51500000D01*
X164380952Y-51452380D01*
X164619047Y-51452380D01*
X164761904Y-51500000D01*
X165095238Y-51452380D02*
X165333333Y-52452380D01*
X165523809Y-51738095D01*
X165714285Y-52452380D01*
X165952380Y-51452380D01*
X166857142Y-52452380D02*
X166285714Y-52452380D01*
X166571428Y-52452380D02*
X166571428Y-51452380D01*
X166476190Y-51595238D01*
X166380952Y-51690476D01*
X166285714Y-51738095D01*
X167190476Y-51452380D02*
X167857142Y-51452380D01*
X167428571Y-52452380D01*
X84190476Y-66404761D02*
X84333333Y-66452380D01*
X84571428Y-66452380D01*
X84666666Y-66404761D01*
X84714285Y-66357142D01*
X84761904Y-66261904D01*
X84761904Y-66166666D01*
X84714285Y-66071428D01*
X84666666Y-66023809D01*
X84571428Y-65976190D01*
X84380952Y-65928571D01*
X84285714Y-65880952D01*
X84238095Y-65833333D01*
X84190476Y-65738095D01*
X84190476Y-65642857D01*
X84238095Y-65547619D01*
X84285714Y-65500000D01*
X84380952Y-65452380D01*
X84619047Y-65452380D01*
X84761904Y-65500000D01*
X85095238Y-65452380D02*
X85333333Y-66452380D01*
X85523809Y-65738095D01*
X85714285Y-66452380D01*
X85952380Y-65452380D01*
X86285714Y-65547619D02*
X86333333Y-65500000D01*
X86428571Y-65452380D01*
X86666666Y-65452380D01*
X86761904Y-65500000D01*
X86809523Y-65547619D01*
X86857142Y-65642857D01*
X86857142Y-65738095D01*
X86809523Y-65880952D01*
X86238095Y-66452380D01*
X86857142Y-66452380D01*
X87190476Y-65452380D02*
X87809523Y-65452380D01*
X87476190Y-65833333D01*
X87619047Y-65833333D01*
X87714285Y-65880952D01*
X87761904Y-65928571D01*
X87809523Y-66023809D01*
X87809523Y-66261904D01*
X87761904Y-66357142D01*
X87714285Y-66404761D01*
X87619047Y-66452380D01*
X87333333Y-66452380D01*
X87238095Y-66404761D01*
X87190476Y-66357142D01*
X148666666Y-38404761D02*
X148809523Y-38452380D01*
X149047619Y-38452380D01*
X149142857Y-38404761D01*
X149190476Y-38357142D01*
X149238095Y-38261904D01*
X149238095Y-38166666D01*
X149190476Y-38071428D01*
X149142857Y-38023809D01*
X149047619Y-37976190D01*
X148857142Y-37928571D01*
X148761904Y-37880952D01*
X148714285Y-37833333D01*
X148666666Y-37738095D01*
X148666666Y-37642857D01*
X148714285Y-37547619D01*
X148761904Y-37500000D01*
X148857142Y-37452380D01*
X149095238Y-37452380D01*
X149238095Y-37500000D01*
X149571428Y-37452380D02*
X149809523Y-38452380D01*
X150000000Y-37738095D01*
X150190476Y-38452380D01*
X150428571Y-37452380D01*
X151285714Y-37452380D02*
X150809523Y-37452380D01*
X150761904Y-37928571D01*
X150809523Y-37880952D01*
X150904761Y-37833333D01*
X151142857Y-37833333D01*
X151238095Y-37880952D01*
X151285714Y-37928571D01*
X151333333Y-38023809D01*
X151333333Y-38261904D01*
X151285714Y-38357142D01*
X151238095Y-38404761D01*
X151142857Y-38452380D01*
X150904761Y-38452380D01*
X150809523Y-38404761D01*
X150761904Y-38357142D01*
X180190476Y-80404761D02*
X180333333Y-80452380D01*
X180571428Y-80452380D01*
X180666666Y-80404761D01*
X180714285Y-80357142D01*
X180761904Y-80261904D01*
X180761904Y-80166666D01*
X180714285Y-80071428D01*
X180666666Y-80023809D01*
X180571428Y-79976190D01*
X180380952Y-79928571D01*
X180285714Y-79880952D01*
X180238095Y-79833333D01*
X180190476Y-79738095D01*
X180190476Y-79642857D01*
X180238095Y-79547619D01*
X180285714Y-79500000D01*
X180380952Y-79452380D01*
X180619047Y-79452380D01*
X180761904Y-79500000D01*
X181095238Y-79452380D02*
X181333333Y-80452380D01*
X181523809Y-79738095D01*
X181714285Y-80452380D01*
X181952380Y-79452380D01*
X182761904Y-79785714D02*
X182761904Y-80452380D01*
X182523809Y-79404761D02*
X182285714Y-80119047D01*
X182904761Y-80119047D01*
X183476190Y-79452380D02*
X183571428Y-79452380D01*
X183666666Y-79500000D01*
X183714285Y-79547619D01*
X183761904Y-79642857D01*
X183809523Y-79833333D01*
X183809523Y-80071428D01*
X183761904Y-80261904D01*
X183714285Y-80357142D01*
X183666666Y-80404761D01*
X183571428Y-80452380D01*
X183476190Y-80452380D01*
X183380952Y-80404761D01*
X183333333Y-80357142D01*
X183285714Y-80261904D01*
X183238095Y-80071428D01*
X183238095Y-79833333D01*
X183285714Y-79642857D01*
X183333333Y-79547619D01*
X183380952Y-79500000D01*
X183476190Y-79452380D01*
X132190476Y-66404761D02*
X132333333Y-66452380D01*
X132571428Y-66452380D01*
X132666666Y-66404761D01*
X132714285Y-66357142D01*
X132761904Y-66261904D01*
X132761904Y-66166666D01*
X132714285Y-66071428D01*
X132666666Y-66023809D01*
X132571428Y-65976190D01*
X132380952Y-65928571D01*
X132285714Y-65880952D01*
X132238095Y-65833333D01*
X132190476Y-65738095D01*
X132190476Y-65642857D01*
X132238095Y-65547619D01*
X132285714Y-65500000D01*
X132380952Y-65452380D01*
X132619047Y-65452380D01*
X132761904Y-65500000D01*
X133095238Y-65452380D02*
X133333333Y-66452380D01*
X133523809Y-65738095D01*
X133714285Y-66452380D01*
X133952380Y-65452380D01*
X134285714Y-65547619D02*
X134333333Y-65500000D01*
X134428571Y-65452380D01*
X134666666Y-65452380D01*
X134761904Y-65500000D01*
X134809523Y-65547619D01*
X134857142Y-65642857D01*
X134857142Y-65738095D01*
X134809523Y-65880952D01*
X134238095Y-66452380D01*
X134857142Y-66452380D01*
X135714285Y-65452380D02*
X135523809Y-65452380D01*
X135428571Y-65500000D01*
X135380952Y-65547619D01*
X135285714Y-65690476D01*
X135238095Y-65880952D01*
X135238095Y-66261904D01*
X135285714Y-66357142D01*
X135333333Y-66404761D01*
X135428571Y-66452380D01*
X135619047Y-66452380D01*
X135714285Y-66404761D01*
X135761904Y-66357142D01*
X135809523Y-66261904D01*
X135809523Y-66023809D01*
X135761904Y-65928571D01*
X135714285Y-65880952D01*
X135619047Y-65833333D01*
X135428571Y-65833333D01*
X135333333Y-65880952D01*
X135285714Y-65928571D01*
X135238095Y-66023809D01*
X164190476Y-94404761D02*
X164333333Y-94452380D01*
X164571428Y-94452380D01*
X164666666Y-94404761D01*
X164714285Y-94357142D01*
X164761904Y-94261904D01*
X164761904Y-94166666D01*
X164714285Y-94071428D01*
X164666666Y-94023809D01*
X164571428Y-93976190D01*
X164380952Y-93928571D01*
X164285714Y-93880952D01*
X164238095Y-93833333D01*
X164190476Y-93738095D01*
X164190476Y-93642857D01*
X164238095Y-93547619D01*
X164285714Y-93500000D01*
X164380952Y-93452380D01*
X164619047Y-93452380D01*
X164761904Y-93500000D01*
X165095238Y-93452380D02*
X165333333Y-94452380D01*
X165523809Y-93738095D01*
X165714285Y-94452380D01*
X165952380Y-93452380D01*
X166809523Y-93452380D02*
X166333333Y-93452380D01*
X166285714Y-93928571D01*
X166333333Y-93880952D01*
X166428571Y-93833333D01*
X166666666Y-93833333D01*
X166761904Y-93880952D01*
X166809523Y-93928571D01*
X166857142Y-94023809D01*
X166857142Y-94261904D01*
X166809523Y-94357142D01*
X166761904Y-94404761D01*
X166666666Y-94452380D01*
X166428571Y-94452380D01*
X166333333Y-94404761D01*
X166285714Y-94357142D01*
X167476190Y-93452380D02*
X167571428Y-93452380D01*
X167666666Y-93500000D01*
X167714285Y-93547619D01*
X167761904Y-93642857D01*
X167809523Y-93833333D01*
X167809523Y-94071428D01*
X167761904Y-94261904D01*
X167714285Y-94357142D01*
X167666666Y-94404761D01*
X167571428Y-94452380D01*
X167476190Y-94452380D01*
X167380952Y-94404761D01*
X167333333Y-94357142D01*
X167285714Y-94261904D01*
X167238095Y-94071428D01*
X167238095Y-93833333D01*
X167285714Y-93642857D01*
X167333333Y-93547619D01*
X167380952Y-93500000D01*
X167476190Y-93452380D01*
X132190476Y-94404761D02*
X132333333Y-94452380D01*
X132571428Y-94452380D01*
X132666666Y-94404761D01*
X132714285Y-94357142D01*
X132761904Y-94261904D01*
X132761904Y-94166666D01*
X132714285Y-94071428D01*
X132666666Y-94023809D01*
X132571428Y-93976190D01*
X132380952Y-93928571D01*
X132285714Y-93880952D01*
X132238095Y-93833333D01*
X132190476Y-93738095D01*
X132190476Y-93642857D01*
X132238095Y-93547619D01*
X132285714Y-93500000D01*
X132380952Y-93452380D01*
X132619047Y-93452380D01*
X132761904Y-93500000D01*
X133095238Y-93452380D02*
X133333333Y-94452380D01*
X133523809Y-93738095D01*
X133714285Y-94452380D01*
X133952380Y-93452380D01*
X134761904Y-93785714D02*
X134761904Y-94452380D01*
X134523809Y-93404761D02*
X134285714Y-94119047D01*
X134904761Y-94119047D01*
X135428571Y-93880952D02*
X135333333Y-93833333D01*
X135285714Y-93785714D01*
X135238095Y-93690476D01*
X135238095Y-93642857D01*
X135285714Y-93547619D01*
X135333333Y-93500000D01*
X135428571Y-93452380D01*
X135619047Y-93452380D01*
X135714285Y-93500000D01*
X135761904Y-93547619D01*
X135809523Y-93642857D01*
X135809523Y-93690476D01*
X135761904Y-93785714D01*
X135714285Y-93833333D01*
X135619047Y-93880952D01*
X135428571Y-93880952D01*
X135333333Y-93928571D01*
X135285714Y-93976190D01*
X135238095Y-94071428D01*
X135238095Y-94261904D01*
X135285714Y-94357142D01*
X135333333Y-94404761D01*
X135428571Y-94452380D01*
X135619047Y-94452380D01*
X135714285Y-94404761D01*
X135761904Y-94357142D01*
X135809523Y-94261904D01*
X135809523Y-94071428D01*
X135761904Y-93976190D01*
X135714285Y-93928571D01*
X135619047Y-93880952D01*
X100190476Y-108404761D02*
X100333333Y-108452380D01*
X100571428Y-108452380D01*
X100666666Y-108404761D01*
X100714285Y-108357142D01*
X100761904Y-108261904D01*
X100761904Y-108166666D01*
X100714285Y-108071428D01*
X100666666Y-108023809D01*
X100571428Y-107976190D01*
X100380952Y-107928571D01*
X100285714Y-107880952D01*
X100238095Y-107833333D01*
X100190476Y-107738095D01*
X100190476Y-107642857D01*
X100238095Y-107547619D01*
X100285714Y-107500000D01*
X100380952Y-107452380D01*
X100619047Y-107452380D01*
X100761904Y-107500000D01*
X101095238Y-107452380D02*
X101333333Y-108452380D01*
X101523809Y-107738095D01*
X101714285Y-108452380D01*
X101952380Y-107452380D01*
X102809523Y-107452380D02*
X102333333Y-107452380D01*
X102285714Y-107928571D01*
X102333333Y-107880952D01*
X102428571Y-107833333D01*
X102666666Y-107833333D01*
X102761904Y-107880952D01*
X102809523Y-107928571D01*
X102857142Y-108023809D01*
X102857142Y-108261904D01*
X102809523Y-108357142D01*
X102761904Y-108404761D01*
X102666666Y-108452380D01*
X102428571Y-108452380D01*
X102333333Y-108404761D01*
X102285714Y-108357142D01*
X103190476Y-107452380D02*
X103857142Y-107452380D01*
X103428571Y-108452380D01*
X148190476Y-108404761D02*
X148333333Y-108452380D01*
X148571428Y-108452380D01*
X148666666Y-108404761D01*
X148714285Y-108357142D01*
X148761904Y-108261904D01*
X148761904Y-108166666D01*
X148714285Y-108071428D01*
X148666666Y-108023809D01*
X148571428Y-107976190D01*
X148380952Y-107928571D01*
X148285714Y-107880952D01*
X148238095Y-107833333D01*
X148190476Y-107738095D01*
X148190476Y-107642857D01*
X148238095Y-107547619D01*
X148285714Y-107500000D01*
X148380952Y-107452380D01*
X148619047Y-107452380D01*
X148761904Y-107500000D01*
X149095238Y-107452380D02*
X149333333Y-108452380D01*
X149523809Y-107738095D01*
X149714285Y-108452380D01*
X149952380Y-107452380D01*
X150761904Y-107452380D02*
X150571428Y-107452380D01*
X150476190Y-107500000D01*
X150428571Y-107547619D01*
X150333333Y-107690476D01*
X150285714Y-107880952D01*
X150285714Y-108261904D01*
X150333333Y-108357142D01*
X150380952Y-108404761D01*
X150476190Y-108452380D01*
X150666666Y-108452380D01*
X150761904Y-108404761D01*
X150809523Y-108357142D01*
X150857142Y-108261904D01*
X150857142Y-108023809D01*
X150809523Y-107928571D01*
X150761904Y-107880952D01*
X150666666Y-107833333D01*
X150476190Y-107833333D01*
X150380952Y-107880952D01*
X150333333Y-107928571D01*
X150285714Y-108023809D01*
X151476190Y-107452380D02*
X151571428Y-107452380D01*
X151666666Y-107500000D01*
X151714285Y-107547619D01*
X151761904Y-107642857D01*
X151809523Y-107833333D01*
X151809523Y-108071428D01*
X151761904Y-108261904D01*
X151714285Y-108357142D01*
X151666666Y-108404761D01*
X151571428Y-108452380D01*
X151476190Y-108452380D01*
X151380952Y-108404761D01*
X151333333Y-108357142D01*
X151285714Y-108261904D01*
X151238095Y-108071428D01*
X151238095Y-107833333D01*
X151285714Y-107642857D01*
X151333333Y-107547619D01*
X151380952Y-107500000D01*
X151476190Y-107452380D01*
X100190476Y-52404761D02*
X100333333Y-52452380D01*
X100571428Y-52452380D01*
X100666666Y-52404761D01*
X100714285Y-52357142D01*
X100761904Y-52261904D01*
X100761904Y-52166666D01*
X100714285Y-52071428D01*
X100666666Y-52023809D01*
X100571428Y-51976190D01*
X100380952Y-51928571D01*
X100285714Y-51880952D01*
X100238095Y-51833333D01*
X100190476Y-51738095D01*
X100190476Y-51642857D01*
X100238095Y-51547619D01*
X100285714Y-51500000D01*
X100380952Y-51452380D01*
X100619047Y-51452380D01*
X100761904Y-51500000D01*
X101095238Y-51452380D02*
X101333333Y-52452380D01*
X101523809Y-51738095D01*
X101714285Y-52452380D01*
X101952380Y-51452380D01*
X102857142Y-52452380D02*
X102285714Y-52452380D01*
X102571428Y-52452380D02*
X102571428Y-51452380D01*
X102476190Y-51595238D01*
X102380952Y-51690476D01*
X102285714Y-51738095D01*
X103190476Y-51452380D02*
X103809523Y-51452380D01*
X103476190Y-51833333D01*
X103619047Y-51833333D01*
X103714285Y-51880952D01*
X103761904Y-51928571D01*
X103809523Y-52023809D01*
X103809523Y-52261904D01*
X103761904Y-52357142D01*
X103714285Y-52404761D01*
X103619047Y-52452380D01*
X103333333Y-52452380D01*
X103238095Y-52404761D01*
X103190476Y-52357142D01*
X116190476Y-52404761D02*
X116333333Y-52452380D01*
X116571428Y-52452380D01*
X116666666Y-52404761D01*
X116714285Y-52357142D01*
X116761904Y-52261904D01*
X116761904Y-52166666D01*
X116714285Y-52071428D01*
X116666666Y-52023809D01*
X116571428Y-51976190D01*
X116380952Y-51928571D01*
X116285714Y-51880952D01*
X116238095Y-51833333D01*
X116190476Y-51738095D01*
X116190476Y-51642857D01*
X116238095Y-51547619D01*
X116285714Y-51500000D01*
X116380952Y-51452380D01*
X116619047Y-51452380D01*
X116761904Y-51500000D01*
X117095238Y-51452380D02*
X117333333Y-52452380D01*
X117523809Y-51738095D01*
X117714285Y-52452380D01*
X117952380Y-51452380D01*
X118857142Y-52452380D02*
X118285714Y-52452380D01*
X118571428Y-52452380D02*
X118571428Y-51452380D01*
X118476190Y-51595238D01*
X118380952Y-51690476D01*
X118285714Y-51738095D01*
X119714285Y-51785714D02*
X119714285Y-52452380D01*
X119476190Y-51404761D02*
X119238095Y-52119047D01*
X119857142Y-52119047D01*
X212666666Y-38404761D02*
X212809523Y-38452380D01*
X213047619Y-38452380D01*
X213142857Y-38404761D01*
X213190476Y-38357142D01*
X213238095Y-38261904D01*
X213238095Y-38166666D01*
X213190476Y-38071428D01*
X213142857Y-38023809D01*
X213047619Y-37976190D01*
X212857142Y-37928571D01*
X212761904Y-37880952D01*
X212714285Y-37833333D01*
X212666666Y-37738095D01*
X212666666Y-37642857D01*
X212714285Y-37547619D01*
X212761904Y-37500000D01*
X212857142Y-37452380D01*
X213095238Y-37452380D01*
X213238095Y-37500000D01*
X213571428Y-37452380D02*
X213809523Y-38452380D01*
X214000000Y-37738095D01*
X214190476Y-38452380D01*
X214428571Y-37452380D01*
X214857142Y-38452380D02*
X215047619Y-38452380D01*
X215142857Y-38404761D01*
X215190476Y-38357142D01*
X215285714Y-38214285D01*
X215333333Y-38023809D01*
X215333333Y-37642857D01*
X215285714Y-37547619D01*
X215238095Y-37500000D01*
X215142857Y-37452380D01*
X214952380Y-37452380D01*
X214857142Y-37500000D01*
X214809523Y-37547619D01*
X214761904Y-37642857D01*
X214761904Y-37880952D01*
X214809523Y-37976190D01*
X214857142Y-38023809D01*
X214952380Y-38071428D01*
X215142857Y-38071428D01*
X215238095Y-38023809D01*
X215285714Y-37976190D01*
X215333333Y-37880952D01*
X164190476Y-66404761D02*
X164333333Y-66452380D01*
X164571428Y-66452380D01*
X164666666Y-66404761D01*
X164714285Y-66357142D01*
X164761904Y-66261904D01*
X164761904Y-66166666D01*
X164714285Y-66071428D01*
X164666666Y-66023809D01*
X164571428Y-65976190D01*
X164380952Y-65928571D01*
X164285714Y-65880952D01*
X164238095Y-65833333D01*
X164190476Y-65738095D01*
X164190476Y-65642857D01*
X164238095Y-65547619D01*
X164285714Y-65500000D01*
X164380952Y-65452380D01*
X164619047Y-65452380D01*
X164761904Y-65500000D01*
X165095238Y-65452380D02*
X165333333Y-66452380D01*
X165523809Y-65738095D01*
X165714285Y-66452380D01*
X165952380Y-65452380D01*
X166285714Y-65547619D02*
X166333333Y-65500000D01*
X166428571Y-65452380D01*
X166666666Y-65452380D01*
X166761904Y-65500000D01*
X166809523Y-65547619D01*
X166857142Y-65642857D01*
X166857142Y-65738095D01*
X166809523Y-65880952D01*
X166238095Y-66452380D01*
X166857142Y-66452380D01*
X167428571Y-65880952D02*
X167333333Y-65833333D01*
X167285714Y-65785714D01*
X167238095Y-65690476D01*
X167238095Y-65642857D01*
X167285714Y-65547619D01*
X167333333Y-65500000D01*
X167428571Y-65452380D01*
X167619047Y-65452380D01*
X167714285Y-65500000D01*
X167761904Y-65547619D01*
X167809523Y-65642857D01*
X167809523Y-65690476D01*
X167761904Y-65785714D01*
X167714285Y-65833333D01*
X167619047Y-65880952D01*
X167428571Y-65880952D01*
X167333333Y-65928571D01*
X167285714Y-65976190D01*
X167238095Y-66071428D01*
X167238095Y-66261904D01*
X167285714Y-66357142D01*
X167333333Y-66404761D01*
X167428571Y-66452380D01*
X167619047Y-66452380D01*
X167714285Y-66404761D01*
X167761904Y-66357142D01*
X167809523Y-66261904D01*
X167809523Y-66071428D01*
X167761904Y-65976190D01*
X167714285Y-65928571D01*
X167619047Y-65880952D01*
X196190476Y-80404761D02*
X196333333Y-80452380D01*
X196571428Y-80452380D01*
X196666666Y-80404761D01*
X196714285Y-80357142D01*
X196761904Y-80261904D01*
X196761904Y-80166666D01*
X196714285Y-80071428D01*
X196666666Y-80023809D01*
X196571428Y-79976190D01*
X196380952Y-79928571D01*
X196285714Y-79880952D01*
X196238095Y-79833333D01*
X196190476Y-79738095D01*
X196190476Y-79642857D01*
X196238095Y-79547619D01*
X196285714Y-79500000D01*
X196380952Y-79452380D01*
X196619047Y-79452380D01*
X196761904Y-79500000D01*
X197095238Y-79452380D02*
X197333333Y-80452380D01*
X197523809Y-79738095D01*
X197714285Y-80452380D01*
X197952380Y-79452380D01*
X198761904Y-79785714D02*
X198761904Y-80452380D01*
X198523809Y-79404761D02*
X198285714Y-80119047D01*
X198904761Y-80119047D01*
X199809523Y-80452380D02*
X199238095Y-80452380D01*
X199523809Y-80452380D02*
X199523809Y-79452380D01*
X199428571Y-79595238D01*
X199333333Y-79690476D01*
X199238095Y-79738095D01*
X132190476Y-80404761D02*
X132333333Y-80452380D01*
X132571428Y-80452380D01*
X132666666Y-80404761D01*
X132714285Y-80357142D01*
X132761904Y-80261904D01*
X132761904Y-80166666D01*
X132714285Y-80071428D01*
X132666666Y-80023809D01*
X132571428Y-79976190D01*
X132380952Y-79928571D01*
X132285714Y-79880952D01*
X132238095Y-79833333D01*
X132190476Y-79738095D01*
X132190476Y-79642857D01*
X132238095Y-79547619D01*
X132285714Y-79500000D01*
X132380952Y-79452380D01*
X132619047Y-79452380D01*
X132761904Y-79500000D01*
X133095238Y-79452380D02*
X133333333Y-80452380D01*
X133523809Y-79738095D01*
X133714285Y-80452380D01*
X133952380Y-79452380D01*
X134238095Y-79452380D02*
X134857142Y-79452380D01*
X134523809Y-79833333D01*
X134666666Y-79833333D01*
X134761904Y-79880952D01*
X134809523Y-79928571D01*
X134857142Y-80023809D01*
X134857142Y-80261904D01*
X134809523Y-80357142D01*
X134761904Y-80404761D01*
X134666666Y-80452380D01*
X134380952Y-80452380D01*
X134285714Y-80404761D01*
X134238095Y-80357142D01*
X135190476Y-79452380D02*
X135857142Y-79452380D01*
X135428571Y-80452380D01*
X180190476Y-108404761D02*
X180333333Y-108452380D01*
X180571428Y-108452380D01*
X180666666Y-108404761D01*
X180714285Y-108357142D01*
X180761904Y-108261904D01*
X180761904Y-108166666D01*
X180714285Y-108071428D01*
X180666666Y-108023809D01*
X180571428Y-107976190D01*
X180380952Y-107928571D01*
X180285714Y-107880952D01*
X180238095Y-107833333D01*
X180190476Y-107738095D01*
X180190476Y-107642857D01*
X180238095Y-107547619D01*
X180285714Y-107500000D01*
X180380952Y-107452380D01*
X180619047Y-107452380D01*
X180761904Y-107500000D01*
X181095238Y-107452380D02*
X181333333Y-108452380D01*
X181523809Y-107738095D01*
X181714285Y-108452380D01*
X181952380Y-107452380D01*
X182761904Y-107452380D02*
X182571428Y-107452380D01*
X182476190Y-107500000D01*
X182428571Y-107547619D01*
X182333333Y-107690476D01*
X182285714Y-107880952D01*
X182285714Y-108261904D01*
X182333333Y-108357142D01*
X182380952Y-108404761D01*
X182476190Y-108452380D01*
X182666666Y-108452380D01*
X182761904Y-108404761D01*
X182809523Y-108357142D01*
X182857142Y-108261904D01*
X182857142Y-108023809D01*
X182809523Y-107928571D01*
X182761904Y-107880952D01*
X182666666Y-107833333D01*
X182476190Y-107833333D01*
X182380952Y-107880952D01*
X182333333Y-107928571D01*
X182285714Y-108023809D01*
X183238095Y-107547619D02*
X183285714Y-107500000D01*
X183380952Y-107452380D01*
X183619047Y-107452380D01*
X183714285Y-107500000D01*
X183761904Y-107547619D01*
X183809523Y-107642857D01*
X183809523Y-107738095D01*
X183761904Y-107880952D01*
X183190476Y-108452380D01*
X183809523Y-108452380D01*
X212190476Y-52404761D02*
X212333333Y-52452380D01*
X212571428Y-52452380D01*
X212666666Y-52404761D01*
X212714285Y-52357142D01*
X212761904Y-52261904D01*
X212761904Y-52166666D01*
X212714285Y-52071428D01*
X212666666Y-52023809D01*
X212571428Y-51976190D01*
X212380952Y-51928571D01*
X212285714Y-51880952D01*
X212238095Y-51833333D01*
X212190476Y-51738095D01*
X212190476Y-51642857D01*
X212238095Y-51547619D01*
X212285714Y-51500000D01*
X212380952Y-51452380D01*
X212619047Y-51452380D01*
X212761904Y-51500000D01*
X213095238Y-51452380D02*
X213333333Y-52452380D01*
X213523809Y-51738095D01*
X213714285Y-52452380D01*
X213952380Y-51452380D01*
X214285714Y-51547619D02*
X214333333Y-51500000D01*
X214428571Y-51452380D01*
X214666666Y-51452380D01*
X214761904Y-51500000D01*
X214809523Y-51547619D01*
X214857142Y-51642857D01*
X214857142Y-51738095D01*
X214809523Y-51880952D01*
X214238095Y-52452380D01*
X214857142Y-52452380D01*
X215476190Y-51452380D02*
X215571428Y-51452380D01*
X215666666Y-51500000D01*
X215714285Y-51547619D01*
X215761904Y-51642857D01*
X215809523Y-51833333D01*
X215809523Y-52071428D01*
X215761904Y-52261904D01*
X215714285Y-52357142D01*
X215666666Y-52404761D01*
X215571428Y-52452380D01*
X215476190Y-52452380D01*
X215380952Y-52404761D01*
X215333333Y-52357142D01*
X215285714Y-52261904D01*
X215238095Y-52071428D01*
X215238095Y-51833333D01*
X215285714Y-51642857D01*
X215333333Y-51547619D01*
X215380952Y-51500000D01*
X215476190Y-51452380D01*
X228190476Y-94404761D02*
X228333333Y-94452380D01*
X228571428Y-94452380D01*
X228666666Y-94404761D01*
X228714285Y-94357142D01*
X228761904Y-94261904D01*
X228761904Y-94166666D01*
X228714285Y-94071428D01*
X228666666Y-94023809D01*
X228571428Y-93976190D01*
X228380952Y-93928571D01*
X228285714Y-93880952D01*
X228238095Y-93833333D01*
X228190476Y-93738095D01*
X228190476Y-93642857D01*
X228238095Y-93547619D01*
X228285714Y-93500000D01*
X228380952Y-93452380D01*
X228619047Y-93452380D01*
X228761904Y-93500000D01*
X229095238Y-93452380D02*
X229333333Y-94452380D01*
X229523809Y-93738095D01*
X229714285Y-94452380D01*
X229952380Y-93452380D01*
X230809523Y-93452380D02*
X230333333Y-93452380D01*
X230285714Y-93928571D01*
X230333333Y-93880952D01*
X230428571Y-93833333D01*
X230666666Y-93833333D01*
X230761904Y-93880952D01*
X230809523Y-93928571D01*
X230857142Y-94023809D01*
X230857142Y-94261904D01*
X230809523Y-94357142D01*
X230761904Y-94404761D01*
X230666666Y-94452380D01*
X230428571Y-94452380D01*
X230333333Y-94404761D01*
X230285714Y-94357142D01*
X231714285Y-93785714D02*
X231714285Y-94452380D01*
X231476190Y-93404761D02*
X231238095Y-94119047D01*
X231857142Y-94119047D01*
X228190476Y-80404761D02*
X228333333Y-80452380D01*
X228571428Y-80452380D01*
X228666666Y-80404761D01*
X228714285Y-80357142D01*
X228761904Y-80261904D01*
X228761904Y-80166666D01*
X228714285Y-80071428D01*
X228666666Y-80023809D01*
X228571428Y-79976190D01*
X228380952Y-79928571D01*
X228285714Y-79880952D01*
X228238095Y-79833333D01*
X228190476Y-79738095D01*
X228190476Y-79642857D01*
X228238095Y-79547619D01*
X228285714Y-79500000D01*
X228380952Y-79452380D01*
X228619047Y-79452380D01*
X228761904Y-79500000D01*
X229095238Y-79452380D02*
X229333333Y-80452380D01*
X229523809Y-79738095D01*
X229714285Y-80452380D01*
X229952380Y-79452380D01*
X230761904Y-79785714D02*
X230761904Y-80452380D01*
X230523809Y-79404761D02*
X230285714Y-80119047D01*
X230904761Y-80119047D01*
X231190476Y-79452380D02*
X231809523Y-79452380D01*
X231476190Y-79833333D01*
X231619047Y-79833333D01*
X231714285Y-79880952D01*
X231761904Y-79928571D01*
X231809523Y-80023809D01*
X231809523Y-80261904D01*
X231761904Y-80357142D01*
X231714285Y-80404761D01*
X231619047Y-80452380D01*
X231333333Y-80452380D01*
X231238095Y-80404761D01*
X231190476Y-80357142D01*
D11*
X156150000Y-71500000D02*
X156150000Y-74500000D01*
X156150000Y-66850000D02*
X156150000Y-69500000D01*
X143850000Y-79150000D02*
X143850000Y-76500000D01*
X143850000Y-66850000D02*
X156150000Y-66850000D01*
X156150000Y-79150000D02*
X143850000Y-79150000D01*
X156150000Y-76500000D02*
X156150000Y-79150000D01*
X143850000Y-69500000D02*
X143850000Y-66850000D01*
X143850000Y-74500000D02*
X143850000Y-71500000D01*
X154579050Y-73000000D02*
G75*
G03*
X154579050Y-73000000I-4579050J0D01*
G01*
X188150000Y-65150000D02*
X175850000Y-65150000D01*
X188150000Y-57500000D02*
X188150000Y-60500000D01*
X188150000Y-62500000D02*
X188150000Y-65150000D01*
X175850000Y-55500000D02*
X175850000Y-52850000D01*
X188150000Y-52850000D02*
X188150000Y-55500000D01*
X175850000Y-60500000D02*
X175850000Y-57500000D01*
X175850000Y-65150000D02*
X175850000Y-62500000D01*
X175850000Y-52850000D02*
X188150000Y-52850000D01*
X186579050Y-59000000D02*
G75*
G03*
X186579050Y-59000000I-4579050J0D01*
G01*
X220150000Y-80850000D02*
X220150000Y-83500000D01*
X207850000Y-88500000D02*
X207850000Y-85500000D01*
X207850000Y-83500000D02*
X207850000Y-80850000D01*
X220150000Y-85500000D02*
X220150000Y-88500000D01*
X220150000Y-93150000D02*
X207850000Y-93150000D01*
X220150000Y-90500000D02*
X220150000Y-93150000D01*
X207850000Y-80850000D02*
X220150000Y-80850000D01*
X207850000Y-93150000D02*
X207850000Y-90500000D01*
X218579050Y-87000000D02*
G75*
G03*
X218579050Y-87000000I-4579050J0D01*
G01*
X108150000Y-38850000D02*
X108150000Y-41500000D01*
X108150000Y-43500000D02*
X108150000Y-46500000D01*
X108150000Y-48500000D02*
X108150000Y-51150000D01*
X108150000Y-51150000D02*
X95850000Y-51150000D01*
X95850000Y-46500000D02*
X95850000Y-43500000D01*
X95850000Y-51150000D02*
X95850000Y-48500000D01*
X95850000Y-38850000D02*
X108150000Y-38850000D01*
X95850000Y-41500000D02*
X95850000Y-38850000D01*
X106579050Y-45000000D02*
G75*
G03*
X106579050Y-45000000I-4579050J0D01*
G01*
X204150000Y-107150000D02*
X191850000Y-107150000D01*
X191850000Y-94850000D02*
X204150000Y-94850000D01*
X204150000Y-94850000D02*
X204150000Y-97500000D01*
X204150000Y-104500000D02*
X204150000Y-107150000D01*
X191850000Y-97500000D02*
X191850000Y-94850000D01*
X191850000Y-102500000D02*
X191850000Y-99500000D01*
X204150000Y-99500000D02*
X204150000Y-102500000D01*
X191850000Y-107150000D02*
X191850000Y-104500000D01*
X202579050Y-101000000D02*
G75*
G03*
X202579050Y-101000000I-4579050J0D01*
G01*
X111850000Y-94850000D02*
X124150000Y-94850000D01*
X124150000Y-107150000D02*
X111850000Y-107150000D01*
X124150000Y-104500000D02*
X124150000Y-107150000D01*
X111850000Y-102500000D02*
X111850000Y-99500000D01*
X111850000Y-97500000D02*
X111850000Y-94850000D01*
X124150000Y-94850000D02*
X124150000Y-97500000D01*
X124150000Y-99500000D02*
X124150000Y-102500000D01*
X111850000Y-107150000D02*
X111850000Y-104500000D01*
X122579050Y-101000000D02*
G75*
G03*
X122579050Y-101000000I-4579050J0D01*
G01*
X172150000Y-90500000D02*
X172150000Y-93150000D01*
X172150000Y-80850000D02*
X172150000Y-83500000D01*
X159850000Y-80850000D02*
X172150000Y-80850000D01*
X159850000Y-88500000D02*
X159850000Y-85500000D01*
X172150000Y-85500000D02*
X172150000Y-88500000D01*
X172150000Y-93150000D02*
X159850000Y-93150000D01*
X159850000Y-83500000D02*
X159850000Y-80850000D01*
X159850000Y-93150000D02*
X159850000Y-90500000D01*
X170579050Y-87000000D02*
G75*
G03*
X170579050Y-87000000I-4579050J0D01*
G01*
X108150000Y-71500000D02*
X108150000Y-74500000D01*
X95850000Y-79150000D02*
X95850000Y-76500000D01*
X95850000Y-69500000D02*
X95850000Y-66850000D01*
X108150000Y-79150000D02*
X95850000Y-79150000D01*
X108150000Y-66850000D02*
X108150000Y-69500000D01*
X95850000Y-74500000D02*
X95850000Y-71500000D01*
X95850000Y-66850000D02*
X108150000Y-66850000D01*
X108150000Y-76500000D02*
X108150000Y-79150000D01*
X106579050Y-73000000D02*
G75*
G03*
X106579050Y-73000000I-4579050J0D01*
G01*
X108150000Y-99500000D02*
X108150000Y-102500000D01*
X95850000Y-94850000D02*
X108150000Y-94850000D01*
X95850000Y-97500000D02*
X95850000Y-94850000D01*
X108150000Y-107150000D02*
X95850000Y-107150000D01*
X108150000Y-94850000D02*
X108150000Y-97500000D01*
X95850000Y-107150000D02*
X95850000Y-104500000D01*
X108150000Y-104500000D02*
X108150000Y-107150000D01*
X95850000Y-102500000D02*
X95850000Y-99500000D01*
X106579050Y-101000000D02*
G75*
G03*
X106579050Y-101000000I-4579050J0D01*
G01*
X140150000Y-57500000D02*
X140150000Y-60500000D01*
X127850000Y-52850000D02*
X140150000Y-52850000D01*
X127850000Y-65150000D02*
X127850000Y-62500000D01*
X140150000Y-52850000D02*
X140150000Y-55500000D01*
X127850000Y-60500000D02*
X127850000Y-57500000D01*
X127850000Y-55500000D02*
X127850000Y-52850000D01*
X140150000Y-62500000D02*
X140150000Y-65150000D01*
X140150000Y-65150000D02*
X127850000Y-65150000D01*
X138579050Y-59000000D02*
G75*
G03*
X138579050Y-59000000I-4579050J0D01*
G01*
X188150000Y-94850000D02*
X188150000Y-97500000D01*
X175850000Y-107150000D02*
X175850000Y-104500000D01*
X188150000Y-107150000D02*
X175850000Y-107150000D01*
X175850000Y-94850000D02*
X188150000Y-94850000D01*
X188150000Y-104500000D02*
X188150000Y-107150000D01*
X188150000Y-99500000D02*
X188150000Y-102500000D01*
X175850000Y-102500000D02*
X175850000Y-99500000D01*
X175850000Y-97500000D02*
X175850000Y-94850000D01*
X186579050Y-101000000D02*
G75*
G03*
X186579050Y-101000000I-4579050J0D01*
G01*
X143850000Y-94850000D02*
X156150000Y-94850000D01*
X156150000Y-99500000D02*
X156150000Y-102500000D01*
X156150000Y-104500000D02*
X156150000Y-107150000D01*
X143850000Y-97500000D02*
X143850000Y-94850000D01*
X156150000Y-94850000D02*
X156150000Y-97500000D01*
X156150000Y-107150000D02*
X143850000Y-107150000D01*
X143850000Y-102500000D02*
X143850000Y-99500000D01*
X143850000Y-107150000D02*
X143850000Y-104500000D01*
X154579050Y-101000000D02*
G75*
G03*
X154579050Y-101000000I-4579050J0D01*
G01*
X172150000Y-113500000D02*
X172150000Y-116500000D01*
X172150000Y-118500000D02*
X172150000Y-121150000D01*
X159850000Y-111500000D02*
X159850000Y-108850000D01*
X159850000Y-121150000D02*
X159850000Y-118500000D01*
X172150000Y-121150000D02*
X159850000Y-121150000D01*
X159850000Y-108850000D02*
X172150000Y-108850000D01*
X172150000Y-108850000D02*
X172150000Y-111500000D01*
X159850000Y-116500000D02*
X159850000Y-113500000D01*
X170579050Y-115000000D02*
G75*
G03*
X170579050Y-115000000I-4579050J0D01*
G01*
X159850000Y-46500000D02*
X159850000Y-43500000D01*
X172150000Y-38850000D02*
X172150000Y-41500000D01*
X172150000Y-48500000D02*
X172150000Y-51150000D01*
X172150000Y-51150000D02*
X159850000Y-51150000D01*
X159850000Y-51150000D02*
X159850000Y-48500000D01*
X159850000Y-41500000D02*
X159850000Y-38850000D01*
X159850000Y-38850000D02*
X172150000Y-38850000D01*
X172150000Y-43500000D02*
X172150000Y-46500000D01*
X170579050Y-45000000D02*
G75*
G03*
X170579050Y-45000000I-4579050J0D01*
G01*
X92150000Y-62500000D02*
X92150000Y-65150000D01*
X92150000Y-57500000D02*
X92150000Y-60500000D01*
X79850000Y-60500000D02*
X79850000Y-57500000D01*
X92150000Y-65150000D02*
X79850000Y-65150000D01*
X92150000Y-52850000D02*
X92150000Y-55500000D01*
X79850000Y-55500000D02*
X79850000Y-52850000D01*
X79850000Y-52850000D02*
X92150000Y-52850000D01*
X79850000Y-65150000D02*
X79850000Y-62500000D01*
X90579050Y-59000000D02*
G75*
G03*
X90579050Y-59000000I-4579050J0D01*
G01*
X223850000Y-46500000D02*
X223850000Y-43500000D01*
X223850000Y-51150000D02*
X223850000Y-48500000D01*
X236150000Y-48500000D02*
X236150000Y-51150000D01*
X236150000Y-38850000D02*
X236150000Y-41500000D01*
X236150000Y-43500000D02*
X236150000Y-46500000D01*
X223850000Y-38850000D02*
X236150000Y-38850000D01*
X236150000Y-51150000D02*
X223850000Y-51150000D01*
X223850000Y-41500000D02*
X223850000Y-38850000D01*
X234579050Y-45000000D02*
G75*
G03*
X234579050Y-45000000I-4579050J0D01*
G01*
X111850000Y-46500000D02*
X111850000Y-43500000D01*
X124150000Y-38850000D02*
X124150000Y-41500000D01*
X124150000Y-51150000D02*
X111850000Y-51150000D01*
X111850000Y-41500000D02*
X111850000Y-38850000D01*
X124150000Y-43500000D02*
X124150000Y-46500000D01*
X111850000Y-38850000D02*
X124150000Y-38850000D01*
X124150000Y-48500000D02*
X124150000Y-51150000D01*
X111850000Y-51150000D02*
X111850000Y-48500000D01*
X122579050Y-45000000D02*
G75*
G03*
X122579050Y-45000000I-4579050J0D01*
G01*
X236150000Y-118500000D02*
X236150000Y-121150000D01*
X223850000Y-116500000D02*
X223850000Y-113500000D01*
X223850000Y-121150000D02*
X223850000Y-118500000D01*
X223850000Y-111500000D02*
X223850000Y-108850000D01*
X236150000Y-108850000D02*
X236150000Y-111500000D01*
X236150000Y-121150000D02*
X223850000Y-121150000D01*
X223850000Y-108850000D02*
X236150000Y-108850000D01*
X236150000Y-113500000D02*
X236150000Y-116500000D01*
X234579050Y-115000000D02*
G75*
G03*
X234579050Y-115000000I-4579050J0D01*
G01*
X127850000Y-46500000D02*
X127850000Y-43500000D01*
X140150000Y-43500000D02*
X140150000Y-46500000D01*
X127850000Y-41500000D02*
X127850000Y-38850000D01*
X140150000Y-38850000D02*
X140150000Y-41500000D01*
X127850000Y-51150000D02*
X127850000Y-48500000D01*
X140150000Y-51150000D02*
X127850000Y-51150000D01*
X140150000Y-48500000D02*
X140150000Y-51150000D01*
X127850000Y-38850000D02*
X140150000Y-38850000D01*
X138579050Y-45000000D02*
G75*
G03*
X138579050Y-45000000I-4579050J0D01*
G01*
X92150000Y-107150000D02*
X79850000Y-107150000D01*
X92150000Y-104500000D02*
X92150000Y-107150000D01*
X92150000Y-99500000D02*
X92150000Y-102500000D01*
X79850000Y-94850000D02*
X92150000Y-94850000D01*
X92150000Y-94850000D02*
X92150000Y-97500000D01*
X79850000Y-107150000D02*
X79850000Y-104500000D01*
X79850000Y-102500000D02*
X79850000Y-99500000D01*
X79850000Y-97500000D02*
X79850000Y-94850000D01*
X90579050Y-101000000D02*
G75*
G03*
X90579050Y-101000000I-4579050J0D01*
G01*
X143850000Y-93150000D02*
X143850000Y-90500000D01*
X143850000Y-83500000D02*
X143850000Y-80850000D01*
X156150000Y-85500000D02*
X156150000Y-88500000D01*
X143850000Y-80850000D02*
X156150000Y-80850000D01*
X156150000Y-93150000D02*
X143850000Y-93150000D01*
X143850000Y-88500000D02*
X143850000Y-85500000D01*
X156150000Y-90500000D02*
X156150000Y-93150000D01*
X156150000Y-80850000D02*
X156150000Y-83500000D01*
X154579050Y-87000000D02*
G75*
G03*
X154579050Y-87000000I-4579050J0D01*
G01*
X223850000Y-65150000D02*
X223850000Y-62500000D01*
X223850000Y-52850000D02*
X236150000Y-52850000D01*
X236150000Y-62500000D02*
X236150000Y-65150000D01*
X236150000Y-65150000D02*
X223850000Y-65150000D01*
X223850000Y-60500000D02*
X223850000Y-57500000D01*
X223850000Y-55500000D02*
X223850000Y-52850000D01*
X236150000Y-52850000D02*
X236150000Y-55500000D01*
X236150000Y-57500000D02*
X236150000Y-60500000D01*
X234579050Y-59000000D02*
G75*
G03*
X234579050Y-59000000I-4579050J0D01*
G01*
X204150000Y-71500000D02*
X204150000Y-74500000D01*
X191850000Y-79150000D02*
X191850000Y-76500000D01*
X191850000Y-69500000D02*
X191850000Y-66850000D01*
X191850000Y-66850000D02*
X204150000Y-66850000D01*
X204150000Y-66850000D02*
X204150000Y-69500000D01*
X204150000Y-76500000D02*
X204150000Y-79150000D01*
X191850000Y-74500000D02*
X191850000Y-71500000D01*
X204150000Y-79150000D02*
X191850000Y-79150000D01*
X202579050Y-73000000D02*
G75*
G03*
X202579050Y-73000000I-4579050J0D01*
G01*
X92150000Y-121150000D02*
X79850000Y-121150000D01*
X79850000Y-111500000D02*
X79850000Y-108850000D01*
X92150000Y-113500000D02*
X92150000Y-116500000D01*
X79850000Y-116500000D02*
X79850000Y-113500000D01*
X79850000Y-108850000D02*
X92150000Y-108850000D01*
X92150000Y-108850000D02*
X92150000Y-111500000D01*
X92150000Y-118500000D02*
X92150000Y-121150000D01*
X79850000Y-121150000D02*
X79850000Y-118500000D01*
X90579050Y-115000000D02*
G75*
G03*
X90579050Y-115000000I-4579050J0D01*
G01*
X204150000Y-108850000D02*
X204150000Y-111500000D01*
X204150000Y-118500000D02*
X204150000Y-121150000D01*
X204150000Y-113500000D02*
X204150000Y-116500000D01*
X191850000Y-116500000D02*
X191850000Y-113500000D01*
X191850000Y-111500000D02*
X191850000Y-108850000D01*
X191850000Y-108850000D02*
X204150000Y-108850000D01*
X191850000Y-121150000D02*
X191850000Y-118500000D01*
X204150000Y-121150000D02*
X191850000Y-121150000D01*
X202579050Y-115000000D02*
G75*
G03*
X202579050Y-115000000I-4579050J0D01*
G01*
X95850000Y-80850000D02*
X108150000Y-80850000D01*
X95850000Y-93150000D02*
X95850000Y-90500000D01*
X108150000Y-85500000D02*
X108150000Y-88500000D01*
X95850000Y-83500000D02*
X95850000Y-80850000D01*
X108150000Y-90500000D02*
X108150000Y-93150000D01*
X108150000Y-93150000D02*
X95850000Y-93150000D01*
X108150000Y-80850000D02*
X108150000Y-83500000D01*
X95850000Y-88500000D02*
X95850000Y-85500000D01*
X106579050Y-87000000D02*
G75*
G03*
X106579050Y-87000000I-4579050J0D01*
G01*
X204150000Y-51150000D02*
X191850000Y-51150000D01*
X191850000Y-46500000D02*
X191850000Y-43500000D01*
X191850000Y-38850000D02*
X204150000Y-38850000D01*
X191850000Y-41500000D02*
X191850000Y-38850000D01*
X191850000Y-51150000D02*
X191850000Y-48500000D01*
X204150000Y-38850000D02*
X204150000Y-41500000D01*
X204150000Y-48500000D02*
X204150000Y-51150000D01*
X204150000Y-43500000D02*
X204150000Y-46500000D01*
X202579050Y-45000000D02*
G75*
G03*
X202579050Y-45000000I-4579050J0D01*
G01*
X79850000Y-80850000D02*
X92150000Y-80850000D01*
X92150000Y-85500000D02*
X92150000Y-88500000D01*
X92150000Y-80850000D02*
X92150000Y-83500000D01*
X92150000Y-93150000D02*
X79850000Y-93150000D01*
X92150000Y-90500000D02*
X92150000Y-93150000D01*
X79850000Y-88500000D02*
X79850000Y-85500000D01*
X79850000Y-93150000D02*
X79850000Y-90500000D01*
X79850000Y-83500000D02*
X79850000Y-80850000D01*
X90579050Y-87000000D02*
G75*
G03*
X90579050Y-87000000I-4579050J0D01*
G01*
X111850000Y-74500000D02*
X111850000Y-71500000D01*
X124150000Y-76500000D02*
X124150000Y-79150000D01*
X111850000Y-66850000D02*
X124150000Y-66850000D01*
X124150000Y-71500000D02*
X124150000Y-74500000D01*
X124150000Y-79150000D02*
X111850000Y-79150000D01*
X111850000Y-79150000D02*
X111850000Y-76500000D01*
X124150000Y-66850000D02*
X124150000Y-69500000D01*
X111850000Y-69500000D02*
X111850000Y-66850000D01*
X122579050Y-73000000D02*
G75*
G03*
X122579050Y-73000000I-4579050J0D01*
G01*
X207850000Y-94850000D02*
X220150000Y-94850000D01*
X207850000Y-102500000D02*
X207850000Y-99500000D01*
X220150000Y-107150000D02*
X207850000Y-107150000D01*
X220150000Y-94850000D02*
X220150000Y-97500000D01*
X207850000Y-107150000D02*
X207850000Y-104500000D01*
X220150000Y-99500000D02*
X220150000Y-102500000D01*
X207850000Y-97500000D02*
X207850000Y-94850000D01*
X220150000Y-104500000D02*
X220150000Y-107150000D01*
X218579050Y-101000000D02*
G75*
G03*
X218579050Y-101000000I-4579050J0D01*
G01*
X188150000Y-48500000D02*
X188150000Y-51150000D01*
X175850000Y-46500000D02*
X175850000Y-43500000D01*
X188150000Y-43500000D02*
X188150000Y-46500000D01*
X175850000Y-41500000D02*
X175850000Y-38850000D01*
X175850000Y-38850000D02*
X188150000Y-38850000D01*
X188150000Y-38850000D02*
X188150000Y-41500000D01*
X188150000Y-51150000D02*
X175850000Y-51150000D01*
X175850000Y-51150000D02*
X175850000Y-48500000D01*
X186579050Y-45000000D02*
G75*
G03*
X186579050Y-45000000I-4579050J0D01*
G01*
X175850000Y-74500000D02*
X175850000Y-71500000D01*
X188150000Y-76500000D02*
X188150000Y-79150000D01*
X188150000Y-66850000D02*
X188150000Y-69500000D01*
X175850000Y-79150000D02*
X175850000Y-76500000D01*
X175850000Y-69500000D02*
X175850000Y-66850000D01*
X188150000Y-71500000D02*
X188150000Y-74500000D01*
X188150000Y-79150000D02*
X175850000Y-79150000D01*
X175850000Y-66850000D02*
X188150000Y-66850000D01*
X186579050Y-73000000D02*
G75*
G03*
X186579050Y-73000000I-4579050J0D01*
G01*
X220150000Y-108850000D02*
X220150000Y-111500000D01*
X220150000Y-118500000D02*
X220150000Y-121150000D01*
X207850000Y-116500000D02*
X207850000Y-113500000D01*
X207850000Y-111500000D02*
X207850000Y-108850000D01*
X207850000Y-108850000D02*
X220150000Y-108850000D01*
X220150000Y-121150000D02*
X207850000Y-121150000D01*
X220150000Y-113500000D02*
X220150000Y-116500000D01*
X207850000Y-121150000D02*
X207850000Y-118500000D01*
X218579050Y-115000000D02*
G75*
G03*
X218579050Y-115000000I-4579050J0D01*
G01*
X111850000Y-108850000D02*
X124150000Y-108850000D01*
X111850000Y-116500000D02*
X111850000Y-113500000D01*
X111850000Y-121150000D02*
X111850000Y-118500000D01*
X124150000Y-121150000D02*
X111850000Y-121150000D01*
X124150000Y-113500000D02*
X124150000Y-116500000D01*
X124150000Y-108850000D02*
X124150000Y-111500000D01*
X111850000Y-111500000D02*
X111850000Y-108850000D01*
X124150000Y-118500000D02*
X124150000Y-121150000D01*
X122579050Y-115000000D02*
G75*
G03*
X122579050Y-115000000I-4579050J0D01*
G01*
X204150000Y-52850000D02*
X204150000Y-55500000D01*
X191850000Y-52850000D02*
X204150000Y-52850000D01*
X191850000Y-60500000D02*
X191850000Y-57500000D01*
X204150000Y-62500000D02*
X204150000Y-65150000D01*
X204150000Y-57500000D02*
X204150000Y-60500000D01*
X191850000Y-55500000D02*
X191850000Y-52850000D01*
X204150000Y-65150000D02*
X191850000Y-65150000D01*
X191850000Y-65150000D02*
X191850000Y-62500000D01*
X202579050Y-59000000D02*
G75*
G03*
X202579050Y-59000000I-4579050J0D01*
G01*
X143850000Y-55500000D02*
X143850000Y-52850000D01*
X156150000Y-52850000D02*
X156150000Y-55500000D01*
X143850000Y-65150000D02*
X143850000Y-62500000D01*
X143850000Y-60500000D02*
X143850000Y-57500000D01*
X143850000Y-52850000D02*
X156150000Y-52850000D01*
X156150000Y-65150000D02*
X143850000Y-65150000D01*
X156150000Y-57500000D02*
X156150000Y-60500000D01*
X156150000Y-62500000D02*
X156150000Y-65150000D01*
X154579050Y-59000000D02*
G75*
G03*
X154579050Y-59000000I-4579050J0D01*
G01*
X207850000Y-66850000D02*
X220150000Y-66850000D01*
X220150000Y-71500000D02*
X220150000Y-74500000D01*
X207850000Y-79150000D02*
X207850000Y-76500000D01*
X220150000Y-66850000D02*
X220150000Y-69500000D01*
X220150000Y-79150000D02*
X207850000Y-79150000D01*
X207850000Y-69500000D02*
X207850000Y-66850000D01*
X220150000Y-76500000D02*
X220150000Y-79150000D01*
X207850000Y-74500000D02*
X207850000Y-71500000D01*
X218579050Y-73000000D02*
G75*
G03*
X218579050Y-73000000I-4579050J0D01*
G01*
X79850000Y-51150000D02*
X79850000Y-48500000D01*
X92150000Y-38850000D02*
X92150000Y-41500000D01*
X79850000Y-41500000D02*
X79850000Y-38850000D01*
X79850000Y-46500000D02*
X79850000Y-43500000D01*
X92150000Y-43500000D02*
X92150000Y-46500000D01*
X92150000Y-48500000D02*
X92150000Y-51150000D01*
X79850000Y-38850000D02*
X92150000Y-38850000D01*
X92150000Y-51150000D02*
X79850000Y-51150000D01*
X90579050Y-45000000D02*
G75*
G03*
X90579050Y-45000000I-4579050J0D01*
G01*
X127850000Y-111500000D02*
X127850000Y-108850000D01*
X140150000Y-113500000D02*
X140150000Y-116500000D01*
X127850000Y-116500000D02*
X127850000Y-113500000D01*
X127850000Y-108850000D02*
X140150000Y-108850000D01*
X140150000Y-121150000D02*
X127850000Y-121150000D01*
X140150000Y-118500000D02*
X140150000Y-121150000D01*
X127850000Y-121150000D02*
X127850000Y-118500000D01*
X140150000Y-108850000D02*
X140150000Y-111500000D01*
X138579050Y-115000000D02*
G75*
G03*
X138579050Y-115000000I-4579050J0D01*
G01*
X111850000Y-80850000D02*
X124150000Y-80850000D01*
X111850000Y-83500000D02*
X111850000Y-80850000D01*
X124150000Y-85500000D02*
X124150000Y-88500000D01*
X124150000Y-80850000D02*
X124150000Y-83500000D01*
X124150000Y-90500000D02*
X124150000Y-93150000D01*
X124150000Y-93150000D02*
X111850000Y-93150000D01*
X111850000Y-88500000D02*
X111850000Y-85500000D01*
X111850000Y-93150000D02*
X111850000Y-90500000D01*
X122579050Y-87000000D02*
G75*
G03*
X122579050Y-87000000I-4579050J0D01*
G01*
X223850000Y-69500000D02*
X223850000Y-66850000D01*
X236150000Y-79150000D02*
X223850000Y-79150000D01*
X223850000Y-74500000D02*
X223850000Y-71500000D01*
X223850000Y-66850000D02*
X236150000Y-66850000D01*
X236150000Y-71500000D02*
X236150000Y-74500000D01*
X223850000Y-79150000D02*
X223850000Y-76500000D01*
X236150000Y-76500000D02*
X236150000Y-79150000D01*
X236150000Y-66850000D02*
X236150000Y-69500000D01*
X234579050Y-73000000D02*
G75*
G03*
X234579050Y-73000000I-4579050J0D01*
G01*
X159850000Y-60500000D02*
X159850000Y-57500000D01*
X172150000Y-57500000D02*
X172150000Y-60500000D01*
X159850000Y-65150000D02*
X159850000Y-62500000D01*
X172150000Y-65150000D02*
X159850000Y-65150000D01*
X172150000Y-62500000D02*
X172150000Y-65150000D01*
X159850000Y-55500000D02*
X159850000Y-52850000D01*
X159850000Y-52850000D02*
X172150000Y-52850000D01*
X172150000Y-52850000D02*
X172150000Y-55500000D01*
X170579050Y-59000000D02*
G75*
G03*
X170579050Y-59000000I-4579050J0D01*
G01*
X92150000Y-71500000D02*
X92150000Y-74500000D01*
X79850000Y-79150000D02*
X79850000Y-76500000D01*
X79850000Y-69500000D02*
X79850000Y-66850000D01*
X92150000Y-66850000D02*
X92150000Y-69500000D01*
X92150000Y-79150000D02*
X79850000Y-79150000D01*
X79850000Y-66850000D02*
X92150000Y-66850000D01*
X79850000Y-74500000D02*
X79850000Y-71500000D01*
X92150000Y-76500000D02*
X92150000Y-79150000D01*
X90579050Y-73000000D02*
G75*
G03*
X90579050Y-73000000I-4579050J0D01*
G01*
X156150000Y-38850000D02*
X156150000Y-41500000D01*
X156150000Y-51150000D02*
X143850000Y-51150000D01*
X143850000Y-51150000D02*
X143850000Y-48500000D01*
X156150000Y-48500000D02*
X156150000Y-51150000D01*
X156150000Y-43500000D02*
X156150000Y-46500000D01*
X143850000Y-46500000D02*
X143850000Y-43500000D01*
X143850000Y-38850000D02*
X156150000Y-38850000D01*
X143850000Y-41500000D02*
X143850000Y-38850000D01*
X154579050Y-45000000D02*
G75*
G03*
X154579050Y-45000000I-4579050J0D01*
G01*
X188150000Y-80850000D02*
X188150000Y-83500000D01*
X175850000Y-88500000D02*
X175850000Y-85500000D01*
X188150000Y-93150000D02*
X175850000Y-93150000D01*
X175850000Y-83500000D02*
X175850000Y-80850000D01*
X188150000Y-90500000D02*
X188150000Y-93150000D01*
X175850000Y-80850000D02*
X188150000Y-80850000D01*
X188150000Y-85500000D02*
X188150000Y-88500000D01*
X175850000Y-93150000D02*
X175850000Y-90500000D01*
X186579050Y-87000000D02*
G75*
G03*
X186579050Y-87000000I-4579050J0D01*
G01*
X127850000Y-79150000D02*
X127850000Y-76500000D01*
X127850000Y-69500000D02*
X127850000Y-66850000D01*
X127850000Y-74500000D02*
X127850000Y-71500000D01*
X140150000Y-66850000D02*
X140150000Y-69500000D01*
X140150000Y-76500000D02*
X140150000Y-79150000D01*
X127850000Y-66850000D02*
X140150000Y-66850000D01*
X140150000Y-79150000D02*
X127850000Y-79150000D01*
X140150000Y-71500000D02*
X140150000Y-74500000D01*
X138579050Y-73000000D02*
G75*
G03*
X138579050Y-73000000I-4579050J0D01*
G01*
X159850000Y-102500000D02*
X159850000Y-99500000D01*
X172150000Y-107150000D02*
X159850000Y-107150000D01*
X159850000Y-97500000D02*
X159850000Y-94850000D01*
X172150000Y-94850000D02*
X172150000Y-97500000D01*
X159850000Y-107150000D02*
X159850000Y-104500000D01*
X172150000Y-99500000D02*
X172150000Y-102500000D01*
X172150000Y-104500000D02*
X172150000Y-107150000D01*
X159850000Y-94850000D02*
X172150000Y-94850000D01*
X170579050Y-101000000D02*
G75*
G03*
X170579050Y-101000000I-4579050J0D01*
G01*
X127850000Y-102500000D02*
X127850000Y-99500000D01*
X140150000Y-99500000D02*
X140150000Y-102500000D01*
X127850000Y-94850000D02*
X140150000Y-94850000D01*
X127850000Y-107150000D02*
X127850000Y-104500000D01*
X140150000Y-107150000D02*
X127850000Y-107150000D01*
X127850000Y-97500000D02*
X127850000Y-94850000D01*
X140150000Y-94850000D02*
X140150000Y-97500000D01*
X140150000Y-104500000D02*
X140150000Y-107150000D01*
X138579050Y-101000000D02*
G75*
G03*
X138579050Y-101000000I-4579050J0D01*
G01*
X95850000Y-116500000D02*
X95850000Y-113500000D01*
X108150000Y-121150000D02*
X95850000Y-121150000D01*
X108150000Y-113500000D02*
X108150000Y-116500000D01*
X108150000Y-108850000D02*
X108150000Y-111500000D01*
X108150000Y-118500000D02*
X108150000Y-121150000D01*
X95850000Y-121150000D02*
X95850000Y-118500000D01*
X95850000Y-108850000D02*
X108150000Y-108850000D01*
X95850000Y-111500000D02*
X95850000Y-108850000D01*
X106579050Y-115000000D02*
G75*
G03*
X106579050Y-115000000I-4579050J0D01*
G01*
X156150000Y-108850000D02*
X156150000Y-111500000D01*
X156150000Y-113500000D02*
X156150000Y-116500000D01*
X143850000Y-121150000D02*
X143850000Y-118500000D01*
X156150000Y-121150000D02*
X143850000Y-121150000D01*
X143850000Y-111500000D02*
X143850000Y-108850000D01*
X156150000Y-118500000D02*
X156150000Y-121150000D01*
X143850000Y-108850000D02*
X156150000Y-108850000D01*
X143850000Y-116500000D02*
X143850000Y-113500000D01*
X154579050Y-115000000D02*
G75*
G03*
X154579050Y-115000000I-4579050J0D01*
G01*
X108150000Y-62500000D02*
X108150000Y-65150000D01*
X95850000Y-55500000D02*
X95850000Y-52850000D01*
X95850000Y-65150000D02*
X95850000Y-62500000D01*
X108150000Y-52850000D02*
X108150000Y-55500000D01*
X108150000Y-65150000D02*
X95850000Y-65150000D01*
X95850000Y-52850000D02*
X108150000Y-52850000D01*
X108150000Y-57500000D02*
X108150000Y-60500000D01*
X95850000Y-60500000D02*
X95850000Y-57500000D01*
X106579050Y-59000000D02*
G75*
G03*
X106579050Y-59000000I-4579050J0D01*
G01*
X111850000Y-52850000D02*
X124150000Y-52850000D01*
X111850000Y-55500000D02*
X111850000Y-52850000D01*
X111850000Y-60500000D02*
X111850000Y-57500000D01*
X124150000Y-65150000D02*
X111850000Y-65150000D01*
X111850000Y-65150000D02*
X111850000Y-62500000D01*
X124150000Y-52850000D02*
X124150000Y-55500000D01*
X124150000Y-57500000D02*
X124150000Y-60500000D01*
X124150000Y-62500000D02*
X124150000Y-65150000D01*
X122579050Y-59000000D02*
G75*
G03*
X122579050Y-59000000I-4579050J0D01*
G01*
X207850000Y-51150000D02*
X207850000Y-48500000D01*
X220150000Y-48500000D02*
X220150000Y-51150000D01*
X207850000Y-38850000D02*
X220150000Y-38850000D01*
X207850000Y-41500000D02*
X207850000Y-38850000D01*
X207850000Y-46500000D02*
X207850000Y-43500000D01*
X220150000Y-38850000D02*
X220150000Y-41500000D01*
X220150000Y-51150000D02*
X207850000Y-51150000D01*
X220150000Y-43500000D02*
X220150000Y-46500000D01*
X218579050Y-45000000D02*
G75*
G03*
X218579050Y-45000000I-4579050J0D01*
G01*
X159850000Y-79150000D02*
X159850000Y-76500000D01*
X172150000Y-76500000D02*
X172150000Y-79150000D01*
X159850000Y-66850000D02*
X172150000Y-66850000D01*
X159850000Y-69500000D02*
X159850000Y-66850000D01*
X159850000Y-74500000D02*
X159850000Y-71500000D01*
X172150000Y-66850000D02*
X172150000Y-69500000D01*
X172150000Y-71500000D02*
X172150000Y-74500000D01*
X172150000Y-79150000D02*
X159850000Y-79150000D01*
X170579050Y-73000000D02*
G75*
G03*
X170579050Y-73000000I-4579050J0D01*
G01*
X204150000Y-90500000D02*
X204150000Y-93150000D01*
X204150000Y-85500000D02*
X204150000Y-88500000D01*
X204150000Y-80850000D02*
X204150000Y-83500000D01*
X191850000Y-83500000D02*
X191850000Y-80850000D01*
X204150000Y-93150000D02*
X191850000Y-93150000D01*
X191850000Y-88500000D02*
X191850000Y-85500000D01*
X191850000Y-93150000D02*
X191850000Y-90500000D01*
X191850000Y-80850000D02*
X204150000Y-80850000D01*
X202579050Y-87000000D02*
G75*
G03*
X202579050Y-87000000I-4579050J0D01*
G01*
X127850000Y-80850000D02*
X140150000Y-80850000D01*
X140150000Y-85500000D02*
X140150000Y-88500000D01*
X140150000Y-93150000D02*
X127850000Y-93150000D01*
X127850000Y-83500000D02*
X127850000Y-80850000D01*
X127850000Y-93150000D02*
X127850000Y-90500000D01*
X127850000Y-88500000D02*
X127850000Y-85500000D01*
X140150000Y-90500000D02*
X140150000Y-93150000D01*
X140150000Y-80850000D02*
X140150000Y-83500000D01*
X138579050Y-87000000D02*
G75*
G03*
X138579050Y-87000000I-4579050J0D01*
G01*
X188150000Y-118500000D02*
X188150000Y-121150000D01*
X175850000Y-111500000D02*
X175850000Y-108850000D01*
X188150000Y-113500000D02*
X188150000Y-116500000D01*
X188150000Y-121150000D02*
X175850000Y-121150000D01*
X175850000Y-108850000D02*
X188150000Y-108850000D01*
X175850000Y-116500000D02*
X175850000Y-113500000D01*
X188150000Y-108850000D02*
X188150000Y-111500000D01*
X175850000Y-121150000D02*
X175850000Y-118500000D01*
X186579050Y-115000000D02*
G75*
G03*
X186579050Y-115000000I-4579050J0D01*
G01*
X220150000Y-57500000D02*
X220150000Y-60500000D01*
X207850000Y-60500000D02*
X207850000Y-57500000D01*
X207850000Y-65150000D02*
X207850000Y-62500000D01*
X207850000Y-55500000D02*
X207850000Y-52850000D01*
X220150000Y-62500000D02*
X220150000Y-65150000D01*
X220150000Y-52850000D02*
X220150000Y-55500000D01*
X220150000Y-65150000D02*
X207850000Y-65150000D01*
X207850000Y-52850000D02*
X220150000Y-52850000D01*
X218579050Y-59000000D02*
G75*
G03*
X218579050Y-59000000I-4579050J0D01*
G01*
X223850000Y-102500000D02*
X223850000Y-99500000D01*
X223850000Y-97500000D02*
X223850000Y-94850000D01*
X236150000Y-107150000D02*
X223850000Y-107150000D01*
X223850000Y-94850000D02*
X236150000Y-94850000D01*
X236150000Y-94850000D02*
X236150000Y-97500000D01*
X236150000Y-99500000D02*
X236150000Y-102500000D01*
X236150000Y-104500000D02*
X236150000Y-107150000D01*
X223850000Y-107150000D02*
X223850000Y-104500000D01*
X234579050Y-101000000D02*
G75*
G03*
X234579050Y-101000000I-4579050J0D01*
G01*
X223850000Y-93150000D02*
X223850000Y-90500000D01*
X223850000Y-80850000D02*
X236150000Y-80850000D01*
X236150000Y-93150000D02*
X223850000Y-93150000D01*
X223850000Y-83500000D02*
X223850000Y-80850000D01*
X236150000Y-85500000D02*
X236150000Y-88500000D01*
X236150000Y-80850000D02*
X236150000Y-83500000D01*
X236150000Y-90500000D02*
X236150000Y-93150000D01*
X223850000Y-88500000D02*
X223850000Y-85500000D01*
X234579050Y-87000000D02*
G75*
G03*
X234579050Y-87000000I-4579050J0D01*
G01*
D12*
X67000000Y-34000000D03*
X249000000Y-126000000D03*
X158000000Y-126000000D03*
X67000000Y-126000000D03*
X158000000Y-34000000D03*
X249000000Y-34000000D03*
%LPC*%
D13*
X156250000Y-70500000D03*
X143750000Y-70500000D03*
X143750000Y-75500000D03*
X156250000Y-75500000D03*
X188250000Y-56500000D03*
X175750000Y-56500000D03*
X188250000Y-61500000D03*
X175750000Y-61500000D03*
X207750000Y-84500000D03*
X220250000Y-84500000D03*
X207750000Y-89500000D03*
X220250000Y-89500000D03*
X95750000Y-42500000D03*
X108250000Y-42500000D03*
X108250000Y-47500000D03*
X95750000Y-47500000D03*
X191750000Y-98500000D03*
X204250000Y-98500000D03*
X204250000Y-103500000D03*
X191750000Y-103500000D03*
X111750000Y-98500000D03*
X124250000Y-98500000D03*
X124250000Y-103500000D03*
X111750000Y-103500000D03*
X159750000Y-84500000D03*
X172250000Y-84500000D03*
X159750000Y-89500000D03*
X172250000Y-89500000D03*
X95750000Y-70500000D03*
X108250000Y-70500000D03*
X108250000Y-75500000D03*
X95750000Y-75500000D03*
X95750000Y-98500000D03*
X108250000Y-98500000D03*
X108250000Y-103500000D03*
X95750000Y-103500000D03*
X127750000Y-56500000D03*
X140250000Y-56500000D03*
X127750000Y-61500000D03*
X140250000Y-61500000D03*
X188250000Y-98500000D03*
X175750000Y-98500000D03*
X175750000Y-103500000D03*
X188250000Y-103500000D03*
X143750000Y-98500000D03*
X156250000Y-98500000D03*
X143750000Y-103500000D03*
X156250000Y-103500000D03*
X172250000Y-112500000D03*
X159750000Y-112500000D03*
X159750000Y-117500000D03*
X172250000Y-117500000D03*
X172250000Y-42500000D03*
X159750000Y-42500000D03*
X172250000Y-47500000D03*
X159750000Y-47500000D03*
X92250000Y-56500000D03*
X79750000Y-56500000D03*
X79750000Y-61500000D03*
X92250000Y-61500000D03*
X223750000Y-42500000D03*
X236250000Y-42500000D03*
X223750000Y-47500000D03*
X236250000Y-47500000D03*
X124250000Y-42500000D03*
X111750000Y-42500000D03*
X111750000Y-47500000D03*
X124250000Y-47500000D03*
D12*
X67000000Y-34000000D03*
D13*
X236250000Y-112500000D03*
X223750000Y-112500000D03*
X223750000Y-117500000D03*
X236250000Y-117500000D03*
X140250000Y-42500000D03*
X127750000Y-42500000D03*
X127750000Y-47500000D03*
X140250000Y-47500000D03*
X79750000Y-98500000D03*
X92250000Y-98500000D03*
X79750000Y-103500000D03*
X92250000Y-103500000D03*
X156250000Y-84500000D03*
X143750000Y-84500000D03*
X156250000Y-89500000D03*
X143750000Y-89500000D03*
D12*
X249000000Y-126000000D03*
X158000000Y-126000000D03*
D13*
X236250000Y-56500000D03*
X223750000Y-56500000D03*
X236250000Y-61500000D03*
X223750000Y-61500000D03*
X191750000Y-70500000D03*
X204250000Y-70500000D03*
X191750000Y-75500000D03*
X204250000Y-75500000D03*
X79750000Y-112500000D03*
X92250000Y-112500000D03*
X92250000Y-117500000D03*
X79750000Y-117500000D03*
X191750000Y-112500000D03*
X204250000Y-112500000D03*
X191750000Y-117500000D03*
X204250000Y-117500000D03*
X108250000Y-84500000D03*
X95750000Y-84500000D03*
X108250000Y-89500000D03*
X95750000Y-89500000D03*
X191750000Y-42500000D03*
X204250000Y-42500000D03*
X191750000Y-47500000D03*
X204250000Y-47500000D03*
X79750000Y-84500000D03*
X92250000Y-84500000D03*
X92250000Y-89500000D03*
X79750000Y-89500000D03*
X111750000Y-70500000D03*
X124250000Y-70500000D03*
X111750000Y-75500000D03*
X124250000Y-75500000D03*
X207750000Y-98500000D03*
X220250000Y-98500000D03*
X207750000Y-103500000D03*
X220250000Y-103500000D03*
X188250000Y-42500000D03*
X175750000Y-42500000D03*
X188250000Y-47500000D03*
X175750000Y-47500000D03*
X188250000Y-70500000D03*
X175750000Y-70500000D03*
X188250000Y-75500000D03*
X175750000Y-75500000D03*
X220250000Y-112500000D03*
X207750000Y-112500000D03*
X207750000Y-117500000D03*
X220250000Y-117500000D03*
D12*
X67000000Y-126000000D03*
D13*
X124250000Y-112500000D03*
X111750000Y-112500000D03*
X111750000Y-117500000D03*
X124250000Y-117500000D03*
X204250000Y-56500000D03*
X191750000Y-56500000D03*
X204250000Y-61500000D03*
X191750000Y-61500000D03*
X156250000Y-56500000D03*
X143750000Y-56500000D03*
X143750000Y-61500000D03*
X156250000Y-61500000D03*
X207750000Y-70500000D03*
X220250000Y-70500000D03*
X207750000Y-75500000D03*
X220250000Y-75500000D03*
X79750000Y-42500000D03*
X92250000Y-42500000D03*
X79750000Y-47500000D03*
X92250000Y-47500000D03*
X140250000Y-112500000D03*
X127750000Y-112500000D03*
X140250000Y-117500000D03*
X127750000Y-117500000D03*
X124250000Y-84500000D03*
X111750000Y-84500000D03*
X111750000Y-89500000D03*
X124250000Y-89500000D03*
X223750000Y-70500000D03*
X236250000Y-70500000D03*
X236250000Y-75500000D03*
X223750000Y-75500000D03*
X172250000Y-56500000D03*
X159750000Y-56500000D03*
X172250000Y-61500000D03*
X159750000Y-61500000D03*
X79750000Y-70500000D03*
X92250000Y-70500000D03*
X79750000Y-75500000D03*
X92250000Y-75500000D03*
X143750000Y-42500000D03*
X156250000Y-42500000D03*
X143750000Y-47500000D03*
X156250000Y-47500000D03*
X175750000Y-84500000D03*
X188250000Y-84500000D03*
X188250000Y-89500000D03*
X175750000Y-89500000D03*
X140250000Y-70500000D03*
X127750000Y-70500000D03*
X127750000Y-75500000D03*
X140250000Y-75500000D03*
D12*
X158000000Y-34000000D03*
D13*
X172250000Y-98500000D03*
X159750000Y-98500000D03*
X159750000Y-103500000D03*
X172250000Y-103500000D03*
X140250000Y-98500000D03*
X127750000Y-98500000D03*
X140250000Y-103500000D03*
X127750000Y-103500000D03*
D12*
X249000000Y-34000000D03*
D13*
X95750000Y-112500000D03*
X108250000Y-112500000D03*
X108250000Y-117500000D03*
X95750000Y-117500000D03*
X156250000Y-112500000D03*
X143750000Y-112500000D03*
X143750000Y-117500000D03*
X156250000Y-117500000D03*
X95750000Y-56500000D03*
X108250000Y-56500000D03*
X95750000Y-61500000D03*
X108250000Y-61500000D03*
X124250000Y-56500000D03*
X111750000Y-56500000D03*
X111750000Y-61500000D03*
X124250000Y-61500000D03*
X220250000Y-42500000D03*
X207750000Y-42500000D03*
X207750000Y-47500000D03*
X220250000Y-47500000D03*
X159750000Y-70500000D03*
X172250000Y-70500000D03*
X159750000Y-75500000D03*
X172250000Y-75500000D03*
X191750000Y-84500000D03*
X204250000Y-84500000D03*
X191750000Y-89500000D03*
X204250000Y-89500000D03*
X140250000Y-84500000D03*
X127750000Y-84500000D03*
X140250000Y-89500000D03*
X127750000Y-89500000D03*
X175750000Y-112500000D03*
X188250000Y-112500000D03*
X188250000Y-117500000D03*
X175750000Y-117500000D03*
X207750000Y-56500000D03*
X220250000Y-56500000D03*
X207750000Y-61500000D03*
X220250000Y-61500000D03*
X223750000Y-98500000D03*
X236250000Y-98500000D03*
X223750000Y-103500000D03*
X236250000Y-103500000D03*
X236250000Y-84500000D03*
X223750000Y-84500000D03*
X223750000Y-89500000D03*
X236250000Y-89500000D03*
D14*
X243900000Y-43250000D03*
D15*
X243900000Y-46750000D03*
D14*
X243900000Y-57250000D03*
D15*
X243900000Y-60750000D03*
D14*
X243900000Y-113250000D03*
D15*
X243900000Y-116750000D03*
D14*
X243900000Y-99250000D03*
D15*
X243900000Y-102750000D03*
D14*
X243900000Y-71250000D03*
D15*
X243900000Y-74750000D03*
D16*
X71000000Y-68570000D03*
D17*
X68460000Y-68570000D03*
X71000000Y-71110000D03*
X68460000Y-71110000D03*
X71000000Y-73650000D03*
X68460000Y-73650000D03*
X71000000Y-76190000D03*
X68460000Y-76190000D03*
X71000000Y-78730000D03*
X68460000Y-78730000D03*
X71000000Y-81270000D03*
X68460000Y-81270000D03*
X71000000Y-83810000D03*
X68460000Y-83810000D03*
X71000000Y-86350000D03*
X68460000Y-86350000D03*
X71000000Y-88890000D03*
X68460000Y-88890000D03*
X71000000Y-91430000D03*
X68460000Y-91430000D03*
D14*
X243900000Y-85250000D03*
D15*
X243900000Y-88750000D03*
M02*
